<?xml version="1.0" encoding="UTF-8"?>
<svg width="186px" height="148px" viewBox="0 0 186 148" version="1.1" xmlns="http://www.w3.org/2000/svg" xmlns:xlink="http://www.w3.org/1999/xlink">
    <title>sticker3</title>
    <g id="Page-1" stroke="none" stroke-width="1" fill="none" fill-rule="evenodd">
        <g id="Artboard-17-Copy" transform="translate(-1263.000000, -194.000000)">
            <g id="sticker3" transform="translate(1263.063400, 194.221100)">
                <path d="M185.155,89.496 C184.897,81.629 183.664,74.012 181.562,66.759 L164.766,70.027 C164.597,69.481 164.4,68.949 164.218,68.408 L179.763,61.162 C177.112,53.805 173.559,46.883 169.233,40.524 L154.233,48.841 C153.904,48.378 153.584,47.906 153.246,47.452 L165.76,35.783 C161.002,29.663 155.499,24.16 149.379,19.402 L137.71,31.916 C137.256,31.577 136.784,31.259 136.322,30.929 L144.638,15.929 C138.28,11.604 131.357,8.052 124.001,5.4 L116.754,20.944 C116.215,20.762 115.681,20.567 115.136,20.396 L118.403,3.6 C111.104,1.485 103.438,0.247 95.518,-6.82121026e-13 L93.431,16.994 C93.147,16.992 92.867,16.973 92.581,16.973 C92.296,16.973 92.015,16.992 91.73,16.994 L89.645,-6.82121026e-13 C81.725,0.247 74.059,1.485 66.76,3.6 L70.026,20.396 C69.481,20.567 68.948,20.762 68.409,20.944 L61.161,5.4 C53.806,8.052 46.882,11.604 40.524,15.929 L48.84,30.929 C48.377,31.259 47.907,31.578 47.451,31.916 L35.783,19.402 C29.663,24.16 24.159,29.663 19.403,35.783 L31.917,47.452 C31.578,47.906 31.258,48.378 30.93,48.841 L15.93,40.524 C11.603,46.883 8.051,53.805 5.4,61.162 L20.943,68.408 C20.762,68.949 20.566,69.481 20.396,70.027 L3.599,66.759 C1.499,74.013 0.264,81.631 0.006,89.499 C0.006,89.522 2.27373675e-13,89.544 2.27373675e-13,89.568 L2.27373675e-13,145.135 C2.27373675e-13,146.594 1.183,147.779 2.643,147.779 L182.519,147.779 C183.979,147.779 185.163,146.594 185.163,145.135 L185.163,89.568 C185.163,89.544 185.155,89.521 185.155,89.496" id="Fill-1200" fill="#FFE600"></path>
                <path d="M113.2905,69.2063 L102.7145,69.2063 C102.5975,68.3673 102.3835,67.5593 102.0765,66.7973 L111.2295,61.5123 L109.8035,59.0423 L100.6455,64.3313 C100.1315,63.6743 99.5405,63.0833 98.8835,62.5693 L104.1705,53.4103 L101.7005,51.9853 L96.4155,61.1393 C95.6545,60.8313 94.8475,60.6173 94.0075,60.5003 L94.0075,49.9243 L91.1555,49.9243 L91.1555,60.5003 C90.3155,60.6173 89.5075,60.8313 88.7465,61.1393 L83.4625,51.9853 L80.9915,53.4103 L86.2795,62.5693 C85.6215,63.0833 85.0305,63.6743 84.5175,64.3313 L75.3605,59.0423 L73.9345,61.5123 L83.0865,66.7973 C82.7785,67.5593 82.5645,68.3673 82.4475,69.2063 L71.8715,69.2063 L71.8715,72.0583 L113.2905,72.0583 L113.2905,69.2063 Z" id="Fill-1202" fill="#FFFFFF"></path>
                <path d="M34.6563,69.8028 C35.0583,69.9578 35.4753,69.5698 35.9443,68.8798 C36.7423,67.6968 37.4043,67.2918 38.2653,67.6288 C39.1413,67.9718 39.4233,69.0348 38.8593,70.2968 C38.6303,70.8088 38.3033,71.2388 37.8763,71.5868 C37.4433,71.9328 36.9063,72.0988 36.2643,72.0838 C36.2183,71.7168 36.1713,71.3498 36.1243,70.9828 C36.9923,71.0758 37.6443,70.6938 37.9873,69.9288 C38.2653,69.3048 38.2123,68.8028 37.8453,68.6598 C37.4733,68.5148 37.1303,68.7298 36.5963,69.5688 C35.8693,70.7258 35.0683,71.1398 34.2003,70.8048 C33.4333,70.5088 33.1483,69.5088 33.6493,68.3838 C34.0613,67.4608 34.8273,66.8928 35.7543,66.9118 C35.7873,67.2648 35.8203,67.6178 35.8533,67.9718 C35.2043,67.9118 34.7503,68.1808 34.4833,68.7758 C34.2603,69.2748 34.3473,69.6838 34.6563,69.8028" id="Fill-1204" fill="#FF5D38"></path>
                <path d="M37.3542,61.3504 C38.2712,61.8754 39.1892,62.4014 40.1062,62.9294 C40.8172,63.3394 41.5092,63.1544 41.9242,62.4804 C42.3402,61.8074 42.1752,61.1374 41.4642,60.7264 C40.5472,60.1964 39.6302,59.6684 38.7122,59.1424 C38.9052,58.8294 39.0982,58.5164 39.2912,58.2024 C40.2142,58.7334 41.1392,59.2664 42.0632,59.8004 C43.2402,60.4814 43.5272,61.7134 42.7552,62.9614 C41.9792,64.2174 40.7232,64.5564 39.5472,63.8804 C38.6242,63.3484 37.7002,62.8194 36.7762,62.2914 C36.9682,61.9774 37.1612,61.6644 37.3542,61.3504" id="Fill-1206" fill="#FF5D38"></path>
                <path d="M46.7336,56.8318 C46.4986,57.1138 46.2636,57.3958 46.0286,57.6778 C44.6416,56.5448 43.2546,55.4158 41.8666,54.2898 C42.2726,53.8008 42.6776,53.3118 43.0826,52.8238 C44.7916,53.1908 46.5016,53.5648 48.2106,53.9438 C47.0076,52.9578 45.8046,51.9748 44.6016,50.9938 C44.8356,50.7118 45.0716,50.4288 45.3056,50.1468 C46.6936,51.2778 48.0806,52.4138 49.4686,53.5538 C49.0626,54.0388 48.6576,54.5238 48.2526,55.0098 C46.5426,54.6308 44.8336,54.2568 43.1246,53.8888 C44.3276,54.8668 45.5306,55.8478 46.7336,56.8318" id="Fill-1208" fill="#FF5D38"></path>
                <path d="M53.6986,42.4571 C54.3356,43.3121 54.9726,44.1671 55.6096,45.0241 C56.1046,45.6871 56.7986,45.7791 57.4216,45.3021 C58.0456,44.8261 58.1406,44.1281 57.6486,43.4631 C57.0116,42.6051 56.3736,41.7471 55.7366,40.8911 C56.0266,40.6691 56.3156,40.4471 56.6056,40.2261 C57.2466,41.0891 57.8886,41.9531 58.5306,42.8181 C59.3476,43.9201 59.1586,45.1961 57.9996,46.0801 C56.8346,46.9691 55.5726,46.8061 54.7556,45.7081 C54.1136,44.8471 53.4726,43.9861 52.8306,43.1261 C53.1206,42.9031 53.4096,42.6801 53.6986,42.4571" id="Fill-1210" fill="#FF5D38"></path>
                <path d="M63.9162,41.8622 C63.6002,42.0392 63.2852,42.2172 62.9692,42.3952 C62.1112,40.7922 61.2522,39.1912 60.3942,37.5912 C61.1652,37.1532 61.9372,36.7172 62.7092,36.2822 C63.7612,35.6892 64.6852,36.0552 65.1102,36.8472 C65.5212,37.6172 65.3422,38.6472 64.2912,39.2372 C63.8352,39.4932 63.3792,39.7502 62.9232,40.0072 C63.2542,40.6252 63.5852,41.2432 63.9162,41.8622 M63.7612,38.4172 C64.1892,38.1772 64.3582,37.7782 64.1522,37.3932 C63.9432,37.0012 63.5272,36.9402 63.0992,37.1802 C62.6662,37.4242 62.2332,37.6682 61.8012,37.9122 C62.0222,38.3242 62.2432,38.7362 62.4632,39.1482 C62.8962,38.9042 63.3282,38.6612 63.7612,38.4172" id="Fill-1212" fill="#FF5D38"></path>
                <path d="M78.2276,31.2799 C77.5976,31.4609 76.9676,31.6429 76.3376,31.8259 C76.7316,33.2839 77.1256,34.7409 77.5206,36.1989 C77.1766,36.2989 76.8316,36.3979 76.4876,36.4979 C76.0926,35.0409 75.6986,33.5829 75.3046,32.1259 C74.6716,32.3109 74.0386,32.4959 73.4066,32.6819 C73.3206,32.3659 73.2346,32.0489 73.1496,31.7329 C74.7566,31.2599 76.3636,30.7919 77.9706,30.3289 C78.0556,30.6459 78.1416,30.9629 78.2276,31.2799" id="Fill-1214" fill="#FF5D38"></path>
                <path d="M87.8195,31.5072 C88.0375,33.0512 86.8505,34.5332 85.2725,34.7062 C83.6955,34.9502 82.1875,33.7962 82.0355,32.2612 C81.8195,30.7352 83.0045,29.2262 84.5905,29.0512 C86.1585,28.8132 87.6655,29.9632 87.8195,31.5072 M86.7415,31.6442 C86.6105,30.5522 85.7255,29.9152 84.7105,30.0482 C83.6945,30.1812 82.9895,31.0252 83.1215,32.1162 C83.2545,33.2152 84.1595,33.8292 85.1515,33.7002 C86.1425,33.5712 86.8765,32.7442 86.7415,31.6442" id="Fill-1216" fill="#FF5D38"></path>
                <path d="M98.1366,30.3618 C98.0916,30.8028 98.5636,31.0858 99.3356,31.3248 C100.6566,31.7308 101.2066,32.2498 101.1096,33.1928 C101.0086,34.1528 100.0766,34.7608 98.7366,34.6088 C98.1926,34.5478 97.7016,34.3658 97.2626,34.0618 C96.8236,33.7508 96.5296,33.2808 96.3816,32.6508 C96.7176,32.4888 97.0536,32.3268 97.3896,32.1658 C97.5226,33.0398 98.0506,33.5518 98.8616,33.6438 C99.5226,33.7188 99.9846,33.5088 100.0266,33.1078 C100.0686,32.6988 99.7776,32.4338 98.8476,32.1778 C97.5666,31.8338 96.9766,31.1878 97.0736,30.2358 C97.1616,29.3938 98.0396,28.7968 99.2276,28.9328 C100.2056,29.0428 100.9346,29.6138 101.1506,30.5228 C100.8246,30.6648 100.4986,30.8078 100.1726,30.9508 C100.0646,30.3018 99.6966,29.9408 99.0656,29.8698 C98.5386,29.8098 98.1746,30.0238 98.1366,30.3618" id="Fill-1218" fill="#FF5D38"></path>
                <path d="M106.8187,30.3614 C106.5547,31.4174 106.2917,32.4734 106.0267,33.5294 C105.8237,34.3484 106.1787,34.9644 106.9237,35.1644 C107.6697,35.3634 108.2617,35.0004 108.4657,34.1824 C108.7297,33.1274 108.9937,32.0724 109.2567,31.0174 C109.6027,31.1114 109.9487,31.2054 110.2947,31.2994 C110.0297,32.3614 109.7637,33.4234 109.4977,34.4864 C109.1607,35.8394 108.0707,36.4904 106.6847,36.1204 C105.2917,35.7484 104.6457,34.6314 104.9827,33.2764 C105.2487,32.2124 105.5137,31.1484 105.7797,30.0844 C106.1267,30.1764 106.4727,30.2684 106.8187,30.3614" id="Fill-1220" fill="#FF5D38"></path>
                <path d="M113.5964,38.1192 C113.2674,37.9732 112.9374,37.8282 112.6084,37.6832 C113.3154,35.9942 114.0234,34.3072 114.7304,32.6212 C115.2994,32.8732 115.8684,33.1262 116.4364,33.3792 C116.5334,35.1572 116.6294,36.9342 116.7264,38.7122 C117.3394,37.2512 117.9524,35.7912 118.5664,34.3322 C118.8954,34.4802 119.2254,34.6282 119.5544,34.7762 C118.8474,36.4582 118.1394,38.1412 117.4324,39.8252 C116.8634,39.5702 116.2954,39.3172 115.7264,39.0642 C115.6304,37.2862 115.5334,35.5092 115.4364,33.7312 C114.8234,35.1932 114.2104,36.6562 113.5964,38.1192" id="Fill-1222" fill="#FF5D38"></path>
                <path d="M128.401,39.9306 C128.979,40.3746 129.557,40.8196 130.136,41.2646 C131.627,42.4136 131.807,43.9496 130.826,45.2616 C129.905,46.4936 128.367,46.7366 126.916,45.6246 C126.331,45.1766 125.746,44.7296 125.161,44.2826 C126.241,42.8296 127.321,41.3786 128.401,39.9306 M126.598,44.1806 C126.887,44.4016 127.177,44.6236 127.465,44.8456 C128.435,45.5896 129.379,45.3676 129.958,44.5936 C130.621,43.7076 130.528,42.7586 129.559,42.0116 C129.274,41.7916 128.989,41.5726 128.704,41.3536 C128.002,42.2956 127.3,43.2376 126.598,44.1806" id="Fill-1224" fill="#FF5D38"></path>
                <path d="M138.0788,52.0808 C137.0098,53.1528 135.1178,53.0408 134.0098,51.8488 C132.8448,50.6998 132.8208,48.7898 133.9228,47.7688 C134.9818,46.7008 136.8838,46.8008 137.9978,48.0058 C139.1518,49.1608 139.1878,51.0618 138.0788,52.0808 M137.3048,51.2748 C138.0738,50.5348 138.0238,49.4398 137.2938,48.6818 C136.5658,47.9238 135.4738,47.8328 134.7028,48.5758 C133.9268,49.3248 134.0058,50.4268 134.7188,51.1638 C135.4308,51.9018 136.5288,52.0208 137.3048,51.2748" id="Fill-1226" fill="#FF5D38"></path>
                <path d="M142.6823,53.5556 C142.8993,53.8696 143.1163,54.1826 143.3333,54.4966 C142.2173,55.6236 141.1013,56.7526 139.9853,57.8856 C141.4803,57.3006 142.9763,56.7196 144.4713,56.1436 C144.8283,56.6596 145.1843,57.1756 145.5403,57.6926 C144.4333,58.8276 143.3243,59.9646 142.2163,61.1046 C143.7033,60.5136 145.1913,59.9256 146.6793,59.3436 C146.8963,59.6576 147.1123,59.9726 147.3293,60.2876 C145.6083,60.9336 143.8873,61.5856 142.1653,62.2446 C141.8163,61.7406 141.4683,61.2376 141.1193,60.7346 C142.2233,59.5856 143.3273,58.4406 144.4303,57.2966 C142.9313,57.8686 141.4323,58.4446 139.9333,59.0246 C139.5853,58.5226 139.2363,58.0196 138.8873,57.5176 C140.1523,56.1936 141.4173,54.8736 142.6823,53.5556" id="Fill-1228" fill="#FF5D38"></path>
                <path d="M144.9486,67.5388 C144.7906,67.2088 144.6326,66.8778 144.4746,66.5478 C146.1296,65.8428 147.7836,65.1438 149.4376,64.4508 C149.7096,65.0228 149.9816,65.5948 150.2536,66.1668 C149.1596,67.4808 148.0656,68.7978 146.9706,70.1168 C148.4056,69.5108 149.8396,68.9088 151.2736,68.3108 C151.4316,68.6428 151.5886,68.9738 151.7466,69.3058 C150.0926,69.9948 148.4386,70.6888 146.7846,71.3878 C146.5126,70.8168 146.2406,70.2468 145.9686,69.6758 C147.0626,68.3548 148.1566,67.0368 149.2516,65.7208 C147.8166,66.3228 146.3826,66.9288 144.9486,67.5388" id="Fill-1230" fill="#FF5D38"></path>
                <polygon id="Fill-1233" fill="#FF5D38" points="31.3634 83.1792 31.3634 87.3882 20.5064 87.3882 20.5064 91.4532 30.4924 91.4532 30.4924 95.6622 20.5064 95.6622 20.5064 103.5002 15.8614 103.5002 15.8614 83.1792"></polygon>
                <g id="Group-1240" transform="translate(32.773230, 82.886784)" fill="#FF5D38">
                    <path d="M21.4839705,10.4530162 C21.5999705,16.1140162 16.5779705,21.0490162 10.7429705,20.9040162 C4.90797045,21.0490162 -0.114029545,16.1140162 0.00197045456,10.4530162 C-0.114029545,4.79201618 4.90797045,-0.11398382 10.7429705,0.00201618 C16.5779705,-0.11398382 21.5999705,4.79201618 21.4839705,10.4530162 M16.8389705,10.4530162 C16.8389705,6.73701618 14.1389705,4.35701618 10.7429705,4.35701618 C7.34597045,4.35701618 4.64697045,6.73701618 4.64697045,10.4530162 C4.64697045,14.1690162 7.34597045,16.5490162 10.7429705,16.5490162 C14.1389705,16.5490162 16.8389705,14.1690162 16.8389705,10.4530162" id="Fill-1234"></path>
                    <path d="M44.7002705,10.4530162 C44.8162705,16.1140162 39.7942705,21.0490162 33.9592705,20.9040162 C28.1242705,21.0490162 23.1022705,16.1140162 23.2182705,10.4530162 C23.1022705,4.79201618 28.1242705,-0.11398382 33.9592705,0.00201618 C39.7942705,-0.11398382 44.8162705,4.79201618 44.7002705,10.4530162 M40.0552705,10.4530162 C40.0552705,6.73701618 37.3552705,4.35701618 33.9592705,4.35701618 C30.5622705,4.35701618 27.8632705,6.73701618 27.8632705,10.4530162 C27.8632705,14.1690162 30.5622705,16.5490162 33.9592705,16.5490162 C37.3552705,16.5490162 40.0552705,14.1690162 40.0552705,10.4530162" id="Fill-1236"></path>
                    <path d="M47.5720705,0.29241618 L55.5550705,0.29241618 C62.4350705,0.29241618 66.4410705,4.32741618 66.4410705,10.5974162 C66.4410705,16.4624162 62.4060705,20.6134162 55.7000705,20.6134162 L47.5720705,20.6134162 L47.5720705,0.29241618 Z M52.2170705,16.4044162 L55.5550705,16.4044162 C59.7350705,16.4044162 61.7970705,14.1104162 61.7970705,10.5974162 C61.7970705,6.73741618 59.6770705,4.50141618 55.4100705,4.50141618 L52.2170705,4.50141618 L52.2170705,16.4044162 Z" id="Fill-1238"></path>
                </g>
                <polygon id="Fill-1241" fill="#FF5D38" points="126.6781 83.1792 126.6781 87.3882 115.8211 87.3882 115.8211 91.4532 125.8071 91.4532 125.8071 95.6622 115.8211 95.6622 115.8211 103.5002 111.1761 103.5002 111.1761 83.1792"></polygon>
                <g id="Group-1246" transform="translate(128.087930, 82.886784)" fill="#FF5D38">
                    <path d="M21.4839705,10.4530162 C21.5999705,16.1140162 16.5779705,21.0490162 10.7429705,20.9040162 C4.90797045,21.0490162 -0.114029545,16.1140162 0.00197045456,10.4530162 C-0.114029545,4.79201618 4.90797045,-0.11398382 10.7429705,0.00201618 C16.5779705,-0.11398382 21.5999705,4.79201618 21.4839705,10.4530162 M16.8389705,10.4530162 C16.8389705,6.73701618 14.1389705,4.35701618 10.7429705,4.35701618 C7.34597045,4.35701618 4.64697045,6.73701618 4.64697045,10.4530162 C4.64697045,14.1690162 7.34597045,16.5490162 10.7429705,16.5490162 C14.1389705,16.5490162 16.8389705,14.1690162 16.8389705,10.4530162" id="Fill-1242"></path>
                    <path d="M36.3742705,20.6132162 C36.1132705,20.0612162 35.9392705,19.4812162 35.8512705,18.8712162 C35.7652705,18.2622162 35.7352705,17.2752162 35.7352705,15.9682162 C35.7352705,13.9652162 34.6612705,12.9202162 32.7752705,12.9202162 L29.0002705,12.9202162 L29.0002705,20.6132162 L24.3562705,20.6132162 L24.3562705,0.29221618 L34.5162705,0.29221618 C38.7832705,0.29221618 41.3382705,2.81821618 41.3382705,6.24321618 C41.3382705,7.37621618 40.9612705,8.44921618 40.2352705,9.46621618 C39.5092705,10.4822162 38.5802705,11.1782162 37.4192705,11.6142162 C39.1322705,12.0782162 40.4092705,13.6172162 40.5252705,15.8232162 C40.6412705,17.7972162 40.8742705,19.1322162 41.5992705,20.1492162 L41.5992705,20.6132162 L36.3742705,20.6132162 Z M34.3712705,8.71121618 C36.0262705,8.71121618 36.8392705,7.78221618 36.8392705,6.53421618 C36.8392705,5.28521618 36.0262705,4.50121618 34.3712705,4.50121618 L29.0002705,4.50121618 L29.0002705,8.71121618 L34.3712705,8.71121618 Z" id="Fill-1244"></path>
                </g>
                <polygon id="Fill-1247" fill="#FF5D38" points="34.4406 116.4196 27.4736 116.4196 27.4736 132.5316 22.8286 132.5316 22.8286 116.4196 15.8616 116.4196 15.8616 112.2106 34.4406 112.2106"></polygon>
                <polygon id="Fill-1248" fill="#FF5D38" points="42.4417 124.6932 42.4417 132.5312 37.7967 132.5312 37.7967 112.2102 42.4417 112.2102 42.4417 120.4842 51.4407 120.4842 51.4407 112.2102 56.0857 112.2102 56.0857 132.5312 51.4407 132.5312 51.4407 124.6932"></polygon>
                <g id="Group-1255" transform="translate(59.282730, 111.917884)" fill="#FF5D38">
                    <path d="M21.4839705,10.4530162 C21.5999705,16.1140162 16.5779705,21.0490162 10.7429705,20.9040162 C4.90797045,21.0490162 -0.114029545,16.1140162 0.00197045456,10.4530162 C-0.114029545,4.79201618 4.90797045,-0.11398382 10.7429705,0.00201618 C16.5779705,-0.11398382 21.5999705,4.79201618 21.4839705,10.4530162 M16.8389705,10.4530162 C16.8389705,6.73701618 14.1389705,4.35701618 10.7429705,4.35701618 C7.34597045,4.35701618 4.64697045,6.73701618 4.64697045,10.4530162 C4.64697045,14.1690162 7.34597045,16.5490162 10.7429705,16.5490162 C14.1389705,16.5490162 16.8389705,14.1690162 16.8389705,10.4530162" id="Fill-1249"></path>
                    <path d="M29.3276705,0.29251618 L29.3276705,12.3395162 C29.3276705,15.0105162 30.6916705,16.6945162 33.2466705,16.6945162 C35.8016705,16.6945162 37.1656705,15.0105162 37.1656705,12.3395162 L37.1656705,0.29251618 L41.8106705,0.29251618 L41.8106705,12.3395162 C41.8106705,17.5655162 38.5586705,20.9035162 33.2466705,20.9035162 C27.9346705,20.9035162 24.6826705,17.5655162 24.6826705,12.3395162 L24.6826705,0.29251618 L29.3276705,0.29251618 Z" id="Fill-1251"></path>
                    <path d="M45.0093705,10.4530162 C44.8933705,4.64701618 49.9153705,-0.08498382 55.7503705,0.00201618 C61.2363705,0.00201618 64.5463705,2.87601618 65.6203705,7.08501618 L61.1493705,8.50801618 C60.5693705,5.83701618 58.5373705,4.21201618 55.7503705,4.21201618 C52.2953705,4.21201618 49.6543705,6.82401618 49.6543705,10.4530162 C49.6543705,12.3400162 50.1763705,13.8780162 51.2503705,15.0110162 C52.3243705,16.1430162 53.7763705,16.6940162 55.6053705,16.6940162 C58.4503705,16.6940162 60.0463705,14.8650162 60.3373705,13.6460162 L52.6733705,13.6460162 L52.6733705,9.87201618 L66.3463705,9.87201618 L66.3463705,20.6130162 L62.2823705,20.6130162 L62.2823705,16.5200162 C61.1493705,19.2200162 58.6823705,20.9040162 55.1693705,20.9040162 C49.5383705,20.9910162 44.9223705,16.6650162 45.0093705,10.4530162" id="Fill-1253"></path>
                </g>
                <polygon id="Fill-1256" fill="#FF5D38" points="134.1082 124.6932 134.1082 132.5312 129.4632 132.5312 129.4632 112.2102 134.1082 112.2102 134.1082 120.4842 143.1072 120.4842 143.1072 112.2102 147.7522 112.2102 147.7522 132.5312 143.1072 132.5312 143.1072 124.6932"></polygon>
                <polygon id="Fill-1257" fill="#FF5D38" points="169.6877 116.4196 162.7207 116.4196 162.7207 132.5316 158.0757 132.5316 158.0757 116.4196 151.1087 116.4196 151.1087 112.2106 169.6877 112.2106"></polygon>
            </g>
        </g>
    </g>
</svg>