<?xml version="1.0" encoding="UTF-8"?>
<svg width="156px" height="82px" viewBox="0 0 156 82" version="1.1" xmlns="http://www.w3.org/2000/svg" xmlns:xlink="http://www.w3.org/1999/xlink">
    <title>sticker1</title>
    <g id="Page-1" stroke="none" stroke-width="1" fill="none" fill-rule="evenodd">
        <g id="Artboard-17-Copy" transform="translate(-605.000000, -227.000000)">
            <g id="sticker1" transform="translate(605.857405, 227.796500)">
                <path d="M154.837795,2.806 C154.892795,1.277 153.676795,1.70530257e-13 152.145795,1.70530257e-13 L2.69279483,1.70530257e-13 C1.16279483,1.70530257e-13 -0.0532051745,1.277 0.00179482554,2.806 C1.09279483,33.443 19.9837948,59.532 46.6397948,71.09 L44.3457948,78.155 C43.9577948,79.35 44.7197948,80.627 45.8207948,80.627 L109.017795,80.627 C110.119795,80.627 110.880795,79.35 110.492795,78.155 L108.198795,71.09 C134.854795,59.532 153.746795,33.443 154.837795,2.806" id="Fill-1431" fill="#00D461"></path>
                <path d="M25.5873948,16.9815 C25.5873948,18.3445 27.0573948,19.0135 29.5163948,19.4675 C34.2473948,20.3495 36.2793948,21.6855 36.2793948,25.1875 C36.2793948,28.4745 33.3923948,30.8805 28.6613948,30.8805 C26.7103948,30.8805 24.9723948,30.4535 23.3953948,29.5975 C21.8183948,28.7425 20.6423948,27.2995 19.8413948,25.2675 L23.4493948,22.9955 C24.2243948,25.7485 26.2023948,27.1385 28.7943948,27.1385 C30.7203948,27.1385 32.0023948,26.4705 32.0023948,25.3215 C32.0023948,24.0385 31.1733948,23.3965 27.8593948,22.9155 C23.9033948,22.3535 21.3113948,20.4825 21.3113948,16.9285 C21.3113948,14.0145 24.0103948,11.6365 28.2603948,11.6365 C31.8153948,11.6365 34.4073948,13.2395 35.4763948,16.3135 L32.0023948,18.3175 C31.3333948,16.1795 30.1313948,15.2435 28.1263948,15.2435 C26.6033948,15.2435 25.5873948,15.9925 25.5873948,16.9815" id="Fill-1433" fill="#FFFFFF"></path>
                <polygon id="Fill-1436" fill="#FFFFFF" points="55.7127948 15.7792 49.2967948 15.7792 49.2967948 30.6132 45.0207948 30.6132 45.0207948 15.7792 38.6067948 15.7792 38.6067948 11.9032 55.7127948 11.9032"></polygon>
                <path d="M70.7897948,30.6133 C70.5487948,30.1053 70.3887948,29.5703 70.3087948,29.0093 C70.2287948,28.4483 70.2017948,27.5393 70.2017948,26.3363 C70.2017948,24.4923 69.2127948,23.5303 67.4747948,23.5303 L64.0007948,23.5303 L64.0007948,30.6133 L59.7237948,30.6133 L59.7237948,11.9033 L69.0787948,11.9033 C73.0077948,11.9033 75.3597948,14.2293 75.3597948,17.3833 C75.3597948,18.4253 75.0117948,19.4143 74.3447948,20.3493 C73.6767948,21.2843 72.8207948,21.9263 71.7517948,22.3273 C73.3287948,22.7553 74.5047948,24.1713 74.6117948,26.2033 C74.7187948,28.0203 74.9327948,29.2503 75.6007948,30.1853 L75.6007948,30.6133 L70.7897948,30.6133 Z M68.9447948,19.6543 C70.4687948,19.6543 71.2167948,18.7993 71.2167948,17.6503 C71.2167948,16.5003 70.4687948,15.7793 68.9447948,15.7793 L64.0007948,15.7793 L64.0007948,19.6543 L68.9447948,19.6543 Z" id="Fill-1437" fill="#FFFFFF"></path>
                <polygon id="Fill-1439" fill="#FFFFFF" points="94.4999948 11.9036 94.4999948 15.7796 84.3159948 15.7796 84.3159948 19.1196 93.6979948 19.1196 93.6979948 22.9956 84.3159948 22.9956 84.3159948 26.7376 94.7669948 26.7376 94.7669948 30.6136 80.0399948 30.6136 80.0399948 11.9036"></polygon>
                <polygon id="Fill-1440" fill="#FFFFFF" points="113.987095 11.9036 113.987095 15.7796 103.804095 15.7796 103.804095 19.1196 113.186095 19.1196 113.186095 22.9956 103.804095 22.9956 103.804095 26.7376 114.255095 26.7376 114.255095 30.6136 99.5270948 30.6136 99.5270948 11.9036"></polygon>
                <polygon id="Fill-1441" fill="#FFFFFF" points="134.998395 15.7792 128.583395 15.7792 128.583395 30.6132 124.306395 30.6132 124.306395 15.7792 117.892395 15.7792 117.892395 11.9032 134.998395 11.9032"></polygon>
                <polygon id="Fill-1442" fill="#FFFFFF" points="56.1056948 38.9552 56.1056948 42.8312 45.9216948 42.8312 45.9216948 46.1722 55.3036948 46.1722 55.3036948 50.0472 45.9216948 50.0472 45.9216948 53.7892 56.3726948 53.7892 56.3726948 57.6652 41.6456948 57.6652 41.6456948 38.9552"></polygon>
                <path d="M66.0765948,38.9552 L72.2245948,38.9552 L79.5745948,57.6652 L74.8965948,57.6652 L73.4535948,53.7892 L64.8475948,53.7892 L63.4035948,57.6652 L58.7265948,57.6652 L66.0765948,38.9552 Z M72.0105948,49.9132 L69.1505948,42.2692 L66.2905948,49.9132 L72.0105948,49.9132 Z" id="Fill-1443" fill="#FFFFFF"></path>
                <polygon id="Fill-1444" fill="#FFFFFF" points="95.9347948 42.8309 89.5187948 42.8309 89.5187948 57.6649 85.2427948 57.6649 85.2427948 42.8309 78.8287948 42.8309 78.8287948 38.9549 95.9347948 38.9549"></polygon>
                <path d="M100.419595,44.0339 C100.419595,45.3969 101.889595,46.0649 104.348595,46.5189 C109.079595,47.4009 111.111595,48.7379 111.111595,52.2399 C111.111595,55.5269 108.224595,57.9319 103.493595,57.9319 C101.542595,57.9319 99.8045948,57.5049 98.2275948,56.6499 C96.6505948,55.7939 95.4745948,54.3509 94.6735948,52.3199 L98.2815948,50.0479 C99.0575948,52.7999 101.034595,54.1909 103.626595,54.1909 C105.552595,54.1909 106.834595,53.5219 106.834595,52.3729 C106.834595,51.0899 106.005595,50.4479 102.691595,49.9679 C98.7355948,49.4059 96.1435948,47.5349 96.1435948,43.9799 C96.1435948,41.0669 98.8425948,38.6879 103.092595,38.6879 C106.647595,38.6879 109.239595,40.2919 110.308595,43.3649 L106.834595,45.3699 C106.165595,43.2319 104.963595,42.2959 102.958595,42.2959 C101.435595,42.2959 100.419595,43.0449 100.419595,44.0339" id="Fill-1445" fill="#FFFFFF"></path>
            </g>
        </g>
    </g>
</svg>