<?xml version="1.0" encoding="UTF-8"?>
<svg width="151px" height="113px" viewBox="0 0 151 113" version="1.1" xmlns="http://www.w3.org/2000/svg" xmlns:xlink="http://www.w3.org/1999/xlink">
    <title>sticker8</title>
    <g id="Page-1" stroke="none" stroke-width="1" fill="none" fill-rule="evenodd">
        <g id="Artboard-17-Copy" transform="translate(-1615.000000, -512.000000)">
            <g id="sticker8" transform="translate(1615.991398, 512.736858)">
                <path d="M73.0002019,111.741642 C104.981202,112.980642 132.656202,95.1156419 140.372202,70.1616419 C140.773202,68.8596419 141.714202,67.7556419 142.993202,67.2986419 C146.527202,66.0376419 149.148202,62.7306419 149.350202,58.7476419 C149.542202,54.9756419 147.514202,51.6396419 144.417202,49.9976419 C142.948202,49.2186419 141.825202,47.8976419 141.479202,46.2586419 C136.131202,21.0106419 110.489202,1.29164188 78.6852019,0.0606418824 C47.8002019,-1.13535812 20.9322019,15.4816419 12.1772019,39.0976419 C11.4712019,41.0046419 9.88420189,42.4586419 7.93720189,43.0086419 C3.57120189,44.2416419 0.258201892,48.1756419 0.0142018923,52.9636419 C-0.228798108,57.7526419 2.67020189,61.9256419 6.89520189,63.4926419 C8.77820189,64.1906419 10.2112019,65.7626419 10.7212019,67.7176419 C17.0422019,91.9156419 42.1152019,110.545642 73.0002019,111.741642" id="Fill-1305" fill="#FFE600"></path>
                <polygon id="Fill-1308" fill="#363D45" points="30.8466019 42.0441419 30.8466019 44.7891419 23.7476019 44.7891419 23.7476019 47.4381419 30.2766019 47.4381419 30.2766019 50.1831419 23.7476019 50.1831419 23.7476019 55.2931419 20.7116019 55.2931419 20.7116019 42.0441419"></polygon>
                <polygon id="Fill-1309" fill="#363D45" points="36.5027019 42.0441419 36.5027019 52.5491419 43.9617019 52.5491419 43.9617019 55.2931419 33.4657019 55.2931419 33.4657019 42.0441419"></polygon>
                <path d="M50.6236019,42.0441419 L54.9896019,42.0441419 L60.2086019,55.2931419 L56.8876019,55.2931419 L55.8626019,52.5491419 L49.7516019,52.5491419 L48.7256019,55.2931419 L45.4046019,55.2931419 L50.6236019,42.0441419 Z M54.8376019,49.8041419 L52.8066019,44.3911419 L50.7756019,49.8041419 L54.8376019,49.8041419 Z" id="Fill-1310" fill="#363D45"></path>
                <polygon id="Fill-1311" fill="#363D45" points="69.7941019 42.0441419 73.0961019 42.0441419 68.1991019 55.2931419 63.7961019 55.2931419 58.9001019 42.0441419 62.2021019 42.0441419 65.9981019 52.9661419"></polygon>
                <g id="Group-1334" transform="translate(21.440777, 14.177054)">
                    <path d="M66.3847244,34.4920884 C66.4607244,38.1830884 63.1767244,41.4000884 59.3627244,41.3050884 C55.5477244,41.4000884 52.2637244,38.1830884 52.3397244,34.4920884 C52.2637244,30.8010884 55.5477244,27.6030884 59.3627244,27.6780884 C63.1767244,27.6030884 66.4607244,30.8010884 66.3847244,34.4920884 M63.3477244,34.4920884 C63.3477244,32.0690884 61.5827244,30.5170884 59.3627244,30.5170884 C57.1417244,30.5170884 55.3767244,32.0690884 55.3767244,34.4920884 C55.3767244,36.9150884 57.1417244,38.4670884 59.3627244,38.4670884 C61.5827244,38.4670884 63.3477244,36.9150884 63.3477244,34.4920884" id="Fill-1312" fill="#363D45"></path>
                    <path d="M71.8130244,27.8670884 L71.8130244,35.7220884 C71.8130244,37.4640884 72.7050244,38.5610884 74.3750244,38.5610884 C76.0450244,38.5610884 76.9380244,37.4640884 76.9380244,35.7220884 L76.9380244,27.8670884 L79.9740244,27.8670884 L79.9740244,35.7220884 C79.9740244,39.1290884 77.8480244,41.3050884 74.3750244,41.3050884 C70.9020244,41.3050884 68.7770244,39.1290884 68.7770244,35.7220884 L68.7770244,27.8670884 L71.8130244,27.8670884 Z" id="Fill-1314" fill="#363D45"></path>
                    <path d="M90.7172244,41.1164884 C90.5462244,40.7564884 90.4322244,40.3784884 90.3752244,39.9804884 C90.3192244,39.5834884 90.3002244,38.9394884 90.3002244,38.0884884 C90.3002244,36.7814884 89.5982244,36.1004884 88.3642244,36.1004884 L85.8962244,36.1004884 L85.8962244,41.1164884 L82.8602244,41.1164884 L82.8602244,27.8674884 L89.5022244,27.8674884 C92.2922244,27.8674884 93.9622244,29.5134884 93.9622244,31.7474884 C93.9622244,32.4854884 93.7162244,33.1854884 93.2412244,33.8484884 C92.7672244,34.5104884 92.1592244,34.9644884 91.4012244,35.2484884 C92.5202244,35.5514884 93.3552244,36.5544884 93.4312244,37.9934884 C93.5072244,39.2804884 93.6592244,40.1504884 94.1332244,40.8144884 L94.1332244,41.1164884 L90.7172244,41.1164884 Z M89.4072244,33.3564884 C90.4892244,33.3564884 91.0212244,32.7504884 91.0212244,31.9364884 C91.0212244,31.1234884 90.4892244,30.6114884 89.4072244,30.6114884 L85.8962244,30.6114884 L85.8962244,33.3564884 L89.4072244,33.3564884 Z" id="Fill-1316" fill="#363D45"></path>
                    <path d="M99.6200244,31.4637884 C99.6200244,32.4287884 100.663024,32.9017884 102.410024,33.2237884 C105.769024,33.8487884 107.211024,34.7947884 107.211024,37.2737884 C107.211024,39.6027884 105.161024,41.3057884 101.802024,41.3057884 C100.417024,41.3057884 99.1830244,41.0027884 98.0630244,40.3977884 C96.9430244,39.7917884 96.1080244,38.7687884 95.5380244,37.3307884 L98.1010244,35.7217884 C98.6520244,37.6717884 100.056024,38.6557884 101.897024,38.6557884 C103.263024,38.6557884 104.174024,38.1827884 104.174024,37.3687884 C104.174024,36.4597884 103.587024,36.0057884 101.233024,35.6657884 C98.4230244,35.2677884 96.5830244,33.9427884 96.5830244,31.4257884 C96.5830244,29.3627884 98.4990244,27.6777884 101.518024,27.6777884 C104.042024,27.6777884 105.882024,28.8137884 106.642024,30.9907884 L104.174024,32.4097884 C103.700024,30.8957884 102.846024,30.2327884 101.423024,30.2327884 C100.341024,30.2327884 99.6200244,30.7627884 99.6200244,31.4637884" id="Fill-1318" fill="#363D45"></path>
                    <path d="M54.8442244,53.3125884 L54.8442244,86.2645884 C54.8442244,86.9035884 55.3752244,87.4235884 56.0132244,87.3995884 C66.3832244,87.0065884 76.2082244,84.1755884 84.4282244,79.5655884 C85.0962244,79.1915884 85.1882244,78.2635884 84.6202244,77.7495884 L56.7312244,52.4755884 C56.0052244,51.8185884 54.8442244,52.3335884 54.8442244,53.3125884" id="Fill-1320" fill="#FFFFFF"></path>
                    <path d="M43.3537244,50.7529884 L1.12972441,50.7069873 C0.388724411,50.7059884 -0.148275589,51.4069884 0.0367244111,52.1249884 C0.126724411,52.4769884 0.230724411,52.8049884 0.334724411,53.2019884 C2.72672441,62.3579884 8.71772441,70.3449884 17.0127244,76.2999884 C17.4457244,76.6109884 18.0427244,76.5699884 18.4357244,76.2099884 L44.1147244,52.7149884 C44.8747244,52.0199884 44.3837244,50.7539884 43.3537244,50.7529884" id="Fill-1322" fill="#FFFFFF"></path>
                    <path d="M62.2510244,52.7366884 L88.0130244,76.3086884 C88.4060244,76.6666884 89.0010244,76.7086884 89.4340244,76.4006884 C97.2610244,70.8256884 103.087024,63.4676884 105.682024,55.0756884 C105.998024,54.0476884 106.200024,53.1986884 106.446024,52.2316884 C106.628024,51.5176884 106.091024,50.8216884 105.354024,50.8206884 L63.0140244,50.7746878 C61.9840244,50.7736884 61.4910244,52.0406884 62.2510244,52.7366884" id="Fill-1324" fill="#FFFFFF"></path>
                    <path d="M49.6108244,52.4723884 L21.8148244,77.6643884 C21.2478244,78.1783884 21.3388244,79.1033884 22.0048244,79.4793884 C30.1128244,84.0513884 39.8448244,86.8923884 50.3088244,87.3803884 C50.7798244,86.9273884 51.0268244,86.6903884 51.4978244,86.2373884 L51.4978244,53.3093884 C51.4978244,52.3293884 50.3368244,51.8143884 49.6108244,52.4723884" id="Fill-1326" fill="#FFFFFF"></path>
                    <path d="M10.5069244,15.9755884 C11.6359244,15.1905884 13.2389244,15.4765884 14.0229244,16.6015884 C14.8059244,17.7265884 14.5169244,19.3305884 13.3889244,20.1155884 C12.2609244,20.9005884 10.6569244,20.6145884 9.87292441,19.4895884 C9.08992441,18.3645884 9.37892441,16.7605884 10.5069244,15.9755884" id="Fill-1328" fill="#363D45"></path>
                    <path d="M95.9936244,15.9883884 C97.1146244,16.7833884 97.3886244,18.3893884 96.5956244,19.5083884 C95.8016244,20.6263884 94.1946244,20.8983884 93.0736244,20.1023884 C91.9526244,19.3073884 91.6776244,17.7003884 92.4716244,16.5823884 C93.2656244,15.4633884 94.8726244,15.1933884 95.9936244,15.9883884" id="Fill-1330" fill="#363D45"></path>
                    <path d="M41.8846244,11.0517884 C41.6536244,10.7907884 41.4646244,10.5007884 41.3196244,10.1807884 C41.1746244,9.86078836 41.0006244,9.32478836 40.7926244,8.60978836 C40.4726244,7.51278836 39.7156244,7.11278836 38.6786244,7.41478836 L36.6076244,8.01978836 L37.8356244,12.2327884 L35.2856244,12.9777884 L32.0386244,1.84678836 L37.6186244,0.218788359 C39.9616244,-0.465211641 41.7676244,0.508788359 42.3156244,2.38478836 C42.4966244,3.00478836 42.4606244,3.65378836 42.2246244,4.32678836 C41.9886244,4.99878836 41.5896244,5.52978836 41.0216244,5.95478836 C42.0356244,5.93478836 42.9826244,6.57178836 43.3996244,7.76278836 C43.7786244,8.82578836 44.1186244,9.51878836 44.6796244,9.95978836 L44.7546244,10.2137884 L41.8846244,11.0517884 Z M38.8836244,4.85278836 C39.7916244,4.58778836 40.0906244,3.94878836 39.8906244,3.26478836 C39.6916244,2.58178836 39.1196244,2.28178836 38.2116244,2.54778836 L35.2616244,3.40878836 L35.9346244,5.71378836 L38.8836244,4.85278836 Z" id="Fill-1332" fill="#363D45"></path>
                </g>
                <polygon id="Fill-1335" fill="#363D45" points="79.0148019 12.3257419 79.0468019 14.7267419 72.7178019 14.8097419 72.7448019 16.8797419 78.5758019 16.8027419 78.6078019 19.2037419 72.7768019 19.2807419 72.8078019 21.5987419 79.3028019 21.5137419 79.3348019 23.9147419 70.1818019 24.0357419 70.0288019 12.4437419"></polygon>
                <path d="M88.0932019,16.6229419 C87.9052019,17.4469419 88.7032019,18.0529419 90.1302019,18.6669419 C92.8752019,19.8519419 93.9212019,20.9389419 93.4392019,23.0539419 C92.9862019,25.0399419 90.9062019,26.0959419 88.0412019,25.4439419 C86.8592019,25.1749419 85.8652019,24.6769419 85.0282019,23.9429419 C84.1912019,23.2089419 83.6772019,22.1739419 83.4722019,20.8369419 L85.9702019,19.9619419 C86.0602019,21.7319419 87.0662019,22.8439419 88.6372019,23.2009419 C89.8022019,23.4669419 90.6722019,23.2399419 90.8302019,22.5449419 C91.0072019,21.7699419 90.5932019,21.2689419 88.6522019,20.5209419 C86.3332019,19.6369419 85.0202019,18.1489419 85.5092019,16.0019419 C85.9112019,14.2409419 87.8742019,13.1759419 90.4482019,13.7619419 C92.6012019,14.2519419 93.9502019,15.5779419 94.1752019,17.5829419 L91.7942019,18.3149419 C91.6842019,16.9309419 91.0842019,16.1999419 89.8702019,15.9229419 C88.9472019,15.7139419 88.2292019,16.0259419 88.0932019,16.6229419" id="Fill-1336" fill="#363D45"></path>
                <polygon id="Fill-1338" fill="#363D45" points="47.5998019 17.8169419 48.7838019 19.9069419 43.3808019 22.9679419 44.5248019 24.9859419 49.4948019 22.1689419 50.6788019 24.2589419 45.7088019 27.0749419 47.9148019 30.9649419 45.6028019 32.2749419 39.8848019 22.1889419"></polygon>
                <polygon id="Fill-1339" fill="#363D45" points="99.8583019 24.9756419 97.7153019 28.9016419 95.3833019 27.6286419 100.940302 17.4506419 103.272302 18.7246419 101.009302 22.8676419 105.529302 25.3346419 107.791302 21.1906419 110.124302 22.4636419 104.567302 32.6416419 102.235302 31.3686419 104.377302 27.4426419"></polygon>
            </g>
        </g>
    </g>
</svg>