<?xml version="1.0" encoding="UTF-8"?>
<svg width="185px" height="185px" viewBox="0 0 185 185" version="1.1" xmlns="http://www.w3.org/2000/svg" xmlns:xlink="http://www.w3.org/1999/xlink">
    <title>sticker5</title>
    <g id="Page-1" stroke="none" stroke-width="1" fill="none" fill-rule="evenodd">
        <g id="Artboard-17-Copy" transform="translate(-591.000000, -476.000000)">
            <g id="sticker5" transform="translate(591.524075, 476.884775)">
                <path d="M3.97903932e-13,91.3240251 C0.238025135,40.6510251 41.5090251,-0.235974865 92.1820251,-4.8316906e-13 C142.855025,0.238025135 183.742025,41.5090251 183.50605,92.1820251 C183.268025,142.855025 141.997025,183.742025 91.3240251,183.50605 C40.6510251,183.268025 -0.235974865,141.997025 3.97903932e-13,91.3240251" id="Fill-1556" fill="#61738C"></path>
                <path d="M30.7436251,108.840525 L31.5136251,112.072525 L17.3746251,115.440525 L15.7626251,108.674525 C15.0126251,105.523525 16.6716251,103.442525 19.0556251,102.874525 C21.3576251,102.325525 23.9086251,103.446525 24.6496251,106.557525 L25.4926251,110.091525 L30.7436251,108.840525 Z M21.7696251,107.456525 C21.5186251,106.406525 20.8156251,105.870525 19.8456251,106.101525 C18.8756251,106.332525 18.4896251,107.128525 18.7396251,108.178525 L19.5336251,111.511525 L22.5636251,110.789525 L21.7696251,107.456525 Z" id="Fill-1558" fill="#FFE3C9"></path>
                <path d="M13.8723251,90.8216251 L14.0753251,86.0506251 L28.8393251,80.9626251 L28.6853251,84.5936251 L25.6293251,85.5856251 L25.3453251,92.2656251 L28.3053251,93.5136251 L28.1513251,97.1436251 L13.8723251,90.8216251 Z M22.5733251,86.5776251 L16.5463251,88.5456251 L22.3853251,91.0176251 L22.5733251,86.5776251 Z" id="Fill-1561" fill="#FFE3C9"></path>
                <polygon id="Fill-1562" fill="#FFE3C9" points="17.9070251 67.1706251 28.7260251 71.1356251 31.5340251 63.4746251 34.3610251 64.5106251 30.4100251 75.2906251 16.7640251 70.2896251"></polygon>
                <polygon id="Fill-1563" fill="#FFE3C9" points="32.4963251 40.9553251 34.9153251 42.7483251 30.2043251 49.1033251 32.2893251 50.6493251 36.6293251 44.7943251 39.0483251 46.5873251 34.7083251 52.4423251 37.0433251 54.1723251 41.8783251 47.6503251 44.2963251 49.4433251 37.4843251 58.6343251 25.8073251 49.9803251"></polygon>
                <path d="M52.9812251,24.4688251 L57.1852251,22.2038251 L69.1052251,32.2888251 L65.9072251,34.0128251 L63.4922251,31.8938251 L57.6062251,35.0658251 L58.0482251,38.2478251 L54.8492251,39.9718251 L52.9812251,24.4688251 Z M61.0772251,29.7758251 L56.3042251,25.6028251 L57.1652251,31.8838251 L61.0772251,29.7758251 Z" id="Fill-1564" fill="#FFE3C9"></path>
                <polygon id="Fill-1565" fill="#FFE3C9" points="75.2399251 15.6856251 77.3869251 27.0076251 85.4039251 25.4876251 85.9649251 28.4456251 74.6839251 30.5846251 71.9759251 16.3046251"></polygon>
                <polygon id="Fill-1566" fill="#FFE3C9" points="104.951925 14.7278251 104.669925 17.7248251 96.7939251 16.9848251 96.5509251 19.5688251 103.806925 20.2508251 103.524925 23.2488251 96.2689251 22.5668251 95.9969251 25.4608251 104.079925 26.2208251 103.797925 29.2178251 92.4079251 28.1468251 93.7679251 13.6768251"></polygon>
                <g id="Group-1577" transform="translate(110.478525, 18.546241)" fill="#FFE3C9">
                    <path d="M6.513,3.63538424 C6.125,4.62038424 6.997,5.52238424 8.644,6.55138424 C11.812,8.53638424 12.9,10.0803842 11.902,12.6113842 C10.966,14.9873842 8.194,15.9033842 4.775,14.5553842 C3.365,14.0003842 2.231,13.1963842 1.335,12.1283842 C0.439,11.0613842 0,9.68338424 0,7.98638424 L3.255,7.37238424 C3.03,9.58338424 4.064,11.1513842 5.938,11.8893842 C7.328,12.4373842 8.446,12.3203842 8.773,11.4893842 C9.139,10.5623842 8.723,9.86238424 6.465,8.57138424 C3.766,7.03838424 2.425,4.94738424 3.437,2.37838424 C4.267,0.273384242 6.896,-0.677615758 9.967,0.533384242 C12.537,1.54638424 13.953,3.44338424 13.85,5.96938424 L10.768,6.42838424 C10.895,4.69338424 10.292,3.67438424 8.843,3.10338424 C7.742,2.66938424 6.795,2.92038424 6.513,3.63538424" id="Fill-1567"></path>
                    <path d="M34.4582,35.1851842 C33.1942,35.5621842 31.9182,35.1311842 30.8322,33.9581842 C30.0982,33.1661842 29.7472,32.3591842 29.7162,31.2551842 C28.3822,30.8221842 27.1362,29.9661842 25.9792,28.7161842 C23.8212,26.3851842 23.7392,23.5461842 25.6752,21.7551842 C27.1682,20.3721842 28.8852,20.0561842 30.8392,20.8221842 C31.0802,19.8911842 31.4152,19.2131842 32.0402,18.6351842 C33.6852,17.1121842 35.8072,17.3261842 37.4862,19.1391842 C39.2922,21.0891842 39.3032,23.0881842 37.8252,24.4561842 C36.5452,25.6411842 34.9682,25.7711842 33.0782,24.8611842 L32.7622,28.4931842 C33.8592,28.2411842 35.0602,27.5821842 36.3202,26.5291842 L38.1722,28.8041842 C36.3612,30.4241842 34.5032,31.3521842 32.6152,31.5441842 C32.6632,31.8101842 32.7732,32.0201842 32.9282,32.1871842 C33.3232,32.6141842 33.7012,32.7171842 34.3112,32.5201842 L34.4582,35.1851842 Z M29.9802,28.2391842 L30.5012,23.4831842 C29.5002,23.1361842 28.7032,23.2531842 28.0322,23.8731842 C27.2252,24.6211842 27.3232,25.8881842 28.3812,27.0311842 C28.8742,27.5641842 29.4172,27.9671842 29.9802,28.2391842 L29.9802,28.2391842 Z M33.3112,22.2401842 C34.3152,22.8661842 35.1502,22.9431842 35.7142,22.4211842 C36.2172,21.9551842 36.2572,21.2961842 35.7352,20.7321842 C35.2272,20.1831842 34.4812,20.1101842 33.9172,20.6321842 C33.5512,20.9711842 33.3892,21.3761842 33.3112,22.2401842 L33.3112,22.2401842 Z" id="Fill-1569"></path>
                    <path d="M45.1458,55.5831842 C45.8098,57.9631842 47.7258,58.9591842 50.1938,58.7661842 L49.8338,62.0351842 C46.1648,62.1751842 43.3108,60.2121842 42.2398,56.3721842 C40.9958,51.9121842 43.2728,48.1731842 47.3928,47.0241842 C51.3898,45.8231842 55.5758,48.2331842 56.6398,52.3551842 C57.6718,56.0551842 56.2848,58.9641842 53.8318,60.2951842 L51.6918,57.7231842 C53.5198,56.7821842 54.2638,55.0441842 53.7228,53.1041842 C53.0988,50.8641842 50.8848,49.4991842 48.2848,50.2241842 C45.6448,50.9601842 44.5208,53.3431842 45.1458,55.5831842" id="Fill-1571"></path>
                    <path d="M51.3984,85.3108842 C47.3524,85.1448842 44.0504,81.3418842 44.4114,77.1828842 C44.5654,73.0108842 48.3094,69.6438842 52.3454,69.9758842 C56.3914,70.1428842 59.6724,73.9438842 59.3324,78.1038842 C59.1574,82.2748842 55.4344,85.6438842 51.3984,85.3108842 M51.6034,81.9958842 C54.2554,82.1588842 56.0734,80.3368842 56.2234,77.9118842 C56.3734,75.4878842 54.7924,73.4558842 52.1404,73.2918842 C49.4884,73.1278842 47.6694,74.9498842 47.5204,77.3748842 C47.3704,79.7998842 48.9504,81.8318842 51.6034,81.9958842" id="Fill-1573"></path>
                    <path d="M42.3099,99.0284842 C41.3509,101.305484 42.2339,103.277484 44.2869,104.660484 L41.9739,106.997484 C39.0119,104.827484 37.9959,101.515484 39.5429,97.8404842 C41.3399,93.5734842 45.4479,92.0584842 49.3899,93.7184842 C53.2689,95.2614842 55.0509,99.7514842 53.3219,103.642484 C51.8319,107.183484 48.9369,108.600484 46.1879,108.119484 L46.1089,104.773484 C48.1269,105.172484 49.7899,104.273484 50.5719,102.416484 C51.4739,100.273484 50.5889,97.8274842 48.1009,96.7804842 C45.5749,95.7164842 43.2129,96.8854842 42.3099,99.0284842" id="Fill-1575"></path>
                </g>
                <polygon id="Fill-1578" fill="#FFE3C9" points="135.067525 138.666025 137.581525 135.762025 144.781525 136.803025 144.437525 133.869025 141.454525 131.287025 143.628525 128.775025 154.618525 138.287025 152.444525 140.799025 148.001525 136.954025 148.979525 144.803025 146.261525 147.943025 145.251525 140.066025"></polygon>
                <polygon id="Fill-1579" fill="#FFE3C9" points="126.160025 158.968025 130.386025 156.327025 124.278025 146.555025 127.095025 144.794025 133.203025 154.566025 137.428025 151.925025 139.024025 154.478025 127.756025 161.521025"></polygon>
                <path d="M115.482725,165.903525 L110.893725,167.224525 L101.386725,154.835525 L104.878725,153.830525 L106.788725,156.414525 L113.213725,154.565525 L113.458725,151.361525 L116.950725,150.356525 L115.482725,165.903525 Z M108.698725,158.997525 L112.475725,164.089525 L112.968725,157.768525 L108.698725,158.997525 Z" id="Fill-1580" fill="#FFE3C9"></path>
                <polygon id="Fill-1581" fill="#FFE3C9" points="96.3355251 169.588325 93.0155251 169.712325 92.4745251 155.187325 95.7945251 155.063325"></polygon>
                <polygon id="Fill-1582" fill="#FFE3C9" points="79.8803251 168.803225 81.9623251 157.468225 73.9363251 155.994225 74.4803251 153.033225 85.7733251 155.107225 83.1483251 169.403225"></polygon>
                <g id="Group-1587" transform="translate(29.817908, 124.736665)" fill="#FFE3C9">
                    <path d="M30.6090168,34.0419602 C31.0860168,33.0959602 30.2990168,32.1189602 28.7530168,30.9439602 C25.7790168,28.6779602 24.8370168,27.0409602 26.0610168,24.6119602 C27.2100168,22.3309602 30.0540168,21.6719602 33.3360168,23.3249602 C34.6890168,24.0079602 35.7450168,24.9119602 36.5400168,26.0559602 C37.3350168,27.2009602 37.6460168,28.6139602 37.4920168,30.3029602 L34.1950168,30.6179602 C34.6200168,28.4369602 33.7340168,26.7809602 31.9350168,25.8749602 C30.6000168,25.2019602 29.4760168,25.2169602 29.0740168,26.0139602 C28.6260168,26.9039602 28.9760168,27.6389602 31.1070168,29.1309602 C33.6550168,30.9039602 34.8000168,33.1079602 33.5570168,35.5739602 C32.5380168,37.5949602 29.8340168,38.3019602 26.8860168,36.8159602 C24.4200168,35.5729602 23.1820168,33.5539602 23.5150168,31.0479602 L26.6260168,30.8719602 C26.3420168,32.5889602 26.8500168,33.6589602 28.2400168,34.3589602 C29.2970168,34.8919602 30.2630168,34.7279602 30.6090168,34.0419602" id="Fill-1583"></path>
                    <path d="M5.61901679,0.0632602009 C6.91201679,-0.196739799 8.14301679,0.349260201 9.11701679,1.6172602 C9.77501679,2.4732602 10.0510168,3.3092602 9.98001679,4.4102602 C11.2700168,4.9642602 12.4310168,5.9312602 13.4690168,7.2812602 C15.4040168,9.8002602 15.2260168,12.6342602 13.1350168,14.2412602 C11.5210168,15.4802602 9.78301679,15.6382602 7.90701679,14.6962602 C7.58101679,15.6012602 7.18601679,16.2452602 6.51101679,16.7642602 C4.73301679,18.1302602 2.63901679,17.7232602 1.13401679,15.7642602 C-0.484983211,13.6562602 -0.312983211,11.6652602 1.28401679,10.4382602 C2.66701679,9.3752602 4.24901679,9.3902602 6.04701679,10.4692602 L6.69501679,6.8822602 C5.58001679,7.0322602 4.32401679,7.5782602 2.97201679,8.5122602 L1.33701679,6.0772602 C3.28801679,4.6292602 5.22301679,3.8762602 7.12101679,3.8582602 C7.09701679,3.5882602 7.00701679,3.3692602 6.86801679,3.1882602 C6.51401679,2.7272602 6.14701679,2.5902602 5.52101679,2.7312602 L5.61901679,0.0632602009 Z M5.57501679,13.0582602 C4.63201679,12.3422602 3.80801679,12.1902602 3.19901679,12.6582602 C2.65601679,13.0762602 2.55501679,13.7292602 3.02301679,14.3382602 C3.47901679,14.9302602 4.21601679,15.0712602 4.82501679,14.6032602 C5.22001679,14.3002602 5.41901679,13.9112602 5.57501679,13.0582602 L5.57501679,13.0582602 Z M9.44201679,7.3902602 L8.48701679,12.0772602 C9.45201679,12.5142602 10.2570168,12.4722602 10.9810168,11.9152602 C11.8540168,11.2452602 11.8720168,9.9742602 10.9240168,8.7392602 C10.4810168,8.1632602 9.97701679,7.7122602 9.44201679,7.3902602 L9.44201679,7.3902602 Z" id="Fill-1585"></path>
                </g>
                <polygon id="Fill-1588" fill="#FFE3C9" points="91.7529251 37.6855251 97.1659251 57.5755251 108.460925 40.3315251 107.462925 60.9215251 123.532925 48.0115251 116.220925 67.2845251 135.494925 59.9725251 122.584925 76.0435251 143.173925 75.0455251 125.929925 86.3395251 145.820925 91.7535251 125.929925 97.1665251 143.173925 108.460525 122.584925 107.462525 135.494925 123.533525 116.220925 116.221525 123.532925 135.494525 107.462925 122.584525 108.460925 143.174525 97.1659251 125.930525 91.7529251 145.820525 86.3399251 125.930525 75.0449251 143.174525 76.0429251 122.584525 59.9729251 135.494525 67.2849251 116.221525 48.0109251 123.533525 60.9209251 107.462525 40.3319251 108.460525 57.5759251 97.1665251 37.6849251 91.7535251 57.5759251 86.3395251 40.3319251 75.0455251 60.9209251 76.0435251 48.0109251 59.9725251 67.2849251 67.2845251 59.9729251 48.0115251 76.0429251 60.9215251 75.0449251 40.3315251 86.3399251 57.5755251"></polygon>
                <g id="Group-1595" transform="translate(74.268826, 65.261314)" fill="#61738C">
                    <path d="M17.7061987,-1.13686838e-13 C18.4411987,0.00301139008 19.0311987,0.59901139 19.0272189,1.33301139 C19.0241987,2.05001139 18.4281987,2.65801139 17.6941987,2.65403102 C16.9771987,2.65101139 16.3691987,2.03801139 16.3731791,1.32101139 C16.3761987,0.58701139 16.9891987,-0.00298860992 17.7061987,-1.13686838e-13" id="Fill-1589"></path>
                    <path d="M6.5048987,13.8147114 C6.5318987,15.5577114 5.0118987,17.0287114 3.2428987,16.9847114 C1.4638987,17.0207114 -0.0421013034,15.5097114 0.000898696623,13.7847114 C-0.0261013034,12.0587114 1.4938987,10.5707114 3.2718987,10.6137114 C5.0428987,10.5867114 6.5488987,12.0807114 6.5048987,13.8147114 M5.29291968,13.8087114 C5.2978987,12.5787114 4.4088987,11.7427114 3.2668987,11.7376888 C2.1258987,11.7327114 1.2278987,12.5597114 1.22286939,13.7897114 C1.2168987,15.0287114 2.1328987,15.8467114 3.2478987,15.8527344 C4.3628987,15.8577114 5.2868987,15.0477114 5.29291968,13.8087114" id="Fill-1591"></path>
                    <path d="M12.0036987,16.9372114 L10.8086987,16.9312114 L10.8376987,10.7382114 L13.7576987,10.7522114 C15.0856987,10.7582114 15.7886987,11.6372114 15.7837252,12.6552114 C15.7796987,13.6462114 15.0676987,14.5622114 13.7396987,14.5562114 L12.0146987,14.5482114 L12.0036987,16.9372114 Z M13.6566987,13.4502214 C14.1966987,13.4522114 14.5696987,13.1532114 14.5717068,12.6582114 C14.5736987,12.1532114 14.2046987,11.8602114 13.6646987,11.8572114 L12.0276987,11.8492114 L12.0196987,13.4422114 L13.6566987,13.4502214 Z" id="Fill-1593"></path>
                </g>
                <polygon id="Fill-1596" fill="#61738C" points="99.0434251 76.0644251 99.0384251 77.1704251 95.5784251 77.1544251 95.5724251 78.4994251 98.7664251 78.5144251 98.7614251 79.6204251 95.5674251 79.6054251 95.5604251 81.1364251 99.1084251 81.1524251 99.1034251 82.2584251 94.3604251 82.2364251 94.3894251 76.0424251"></polygon>
                <polygon id="Fill-1597" fill="#61738C" points="104.651725 82.2845251 103.456725 82.2785251 103.485725 76.0855251 105.547725 76.0945251 108.097725 81.4775251 108.122725 76.1065251 109.316725 76.1125251 109.287725 82.3065251 107.226725 82.2965251 104.676725 76.9135251"></polygon>
                <polygon id="Fill-1598" fill="#61738C" points="82.6708251 89.6340251 80.4848251 89.6240251 80.4618251 94.7110251 79.2668251 94.7060251 79.2908251 89.6180251 77.0968251 89.6080251 77.1018251 88.5020251 82.6758251 88.5280251"></polygon>
                <polygon id="Fill-1599" fill="#61738C" points="86.8618251 88.5476251 88.0568251 88.5526251 88.0278251 94.7466251 86.8328251 94.7406251"></polygon>
                <polygon id="Fill-1600" fill="#61738C" points="93.8173251 88.5800251 93.7933251 93.6680251 97.3953251 93.6850251 97.3893251 94.7900251 92.5943251 94.7680251 92.6223251 88.5740251"></polygon>
                <polygon id="Fill-1601" fill="#61738C" points="102.913825 88.6225251 102.889825 93.7105251 106.491825 93.7275251 106.485825 94.8335251 101.690825 94.8105251 101.718825 88.6175251"></polygon>
                <polygon id="Fill-1602" fill="#61738C" points="76.8703251 101.040625 76.8463251 106.128625 80.4473251 106.145625 80.4423251 107.251625 75.6463251 107.228625 75.6753251 101.035625"></polygon>
                <path d="M86.7633251,101.086925 L88.4533251,101.094925 L90.9113251,107.299925 L89.5923251,107.293925 L89.0593251,105.893925 L86.1043251,105.879925 L85.5663251,107.274925 L84.2393251,107.268925 L86.7633251,101.086925 Z M88.6573251,104.811925 L87.5993251,102.037925 L86.5253251,104.802925 L88.6573251,104.811925 Z" id="Fill-1603" fill="#61738C"></path>
                <polygon id="Fill-1604" fill="#61738C" points="99.2172251 102.251425 97.0312251 102.241425 97.0082251 107.329425 95.8132251 107.323425 95.8372251 102.235425 93.6432251 102.225425 93.6482251 101.119425 99.2222251 101.145425"></polygon>
                <polygon id="Fill-1605" fill="#61738C" points="108.062325 101.186625 108.057325 102.292625 104.597325 102.276625 104.591325 103.621625 107.785325 103.636625 107.780325 104.742625 104.586325 104.727625 104.579325 106.258625 108.127325 106.274625 108.122325 107.380625 103.379325 107.358625 103.408325 101.164625"></polygon>
                <path d="M91.7403251,115.419914 C92.4753251,115.422925 93.0643251,116.018925 93.0613365,116.752925 C93.0583251,117.469925 92.4623251,118.077925 91.7283251,118.073945 C91.0113251,118.070925 90.4033251,117.457925 90.4073055,116.740925 C90.4103251,116.006925 91.0233251,115.416925 91.7403251,115.419914" id="Fill-1606" fill="#61738C"></path>
            </g>
        </g>
    </g>
</svg>