<?xml version="1.0" encoding="UTF-8"?>
<svg width="205px" height="205px" viewBox="0 0 205 205" version="1.1" xmlns="http://www.w3.org/2000/svg" xmlns:xlink="http://www.w3.org/1999/xlink">
    <title>sticker7</title>
    <g id="Page-1" stroke="none" stroke-width="1" fill="none" fill-rule="evenodd">
        <g id="Artboard-17-Copy" transform="translate(-1252.000000, -466.000000)">
            <g id="sticker7" transform="translate(1252.006315, 466.678323)">
                <path d="M108.180285,0.18907706 C51.9382845,-3.20892294 3.58928454,39.6000771 0.189284542,95.8060771 C-3.21171546,152.012077 39.6252845,200.332077 95.8662845,203.730077 C152.108285,207.128077 200.457285,164.319077 203.857285,108.112077 C207.258285,51.9060771 164.422285,3.58707706 108.180285,0.18907706" id="Fill-1447" fill="#00D461"></path>
                <path d="M30.4257845,104.707977 C25.5697845,104.366977 21.9977845,99.8199771 22.5117845,94.9589771 C22.9257845,90.3819771 25.5727845,87.8379771 29.1697845,87.2589771 L30.0187845,91.0959771 C27.7467845,91.3779771 26.2347845,92.9509771 26.0257845,95.2769771 C25.7647845,98.1589771 27.7467845,100.559977 30.7747845,100.833977 C32.3507845,100.974977 33.6747845,100.655977 34.7017845,99.8449771 C35.7277845,99.0329771 36.2967845,97.8639771 36.4347845,96.3389771 C36.6497845,93.9649771 35.2437845,92.4959771 34.2477845,92.1609771 L33.6697845,98.5549771 L30.5187845,98.2709771 L31.5497845,86.8629771 L40.5177845,87.6729771 L40.2107845,91.0629771 L36.7937845,90.7559771 C38.9617845,91.9029771 40.1817845,94.0889771 39.9167845,97.0199771 C39.5637845,101.723977 35.6047845,105.249977 30.4257845,104.707977" id="Fill-1449" fill="#363D45"></path>
                <path d="M41.6723845,63.4127771 C46.0023845,65.3537771 47.9383845,70.9267771 45.7343845,75.2917771 C43.7503845,79.7617771 38.2103845,81.7937771 33.9643845,79.6757771 C29.6353845,77.7327771 27.7203845,72.1717771 29.9013845,67.7967771 C31.9083845,63.3377771 37.4263845,61.2947771 41.6723845,63.4127771 M40.0053845,66.9297771 C37.1903845,65.5967771 34.4193845,66.7877771 33.2003845,69.3577771 C31.9823845,71.9287771 32.8153845,74.8257771 35.6303845,76.1587771 C38.4453845,77.4907771 41.2173845,76.3017771 42.4363845,73.7297771 C43.6553845,71.1597771 42.8203845,68.2617771 40.0053845,66.9297771" id="Fill-1451" fill="#363D45"></path>
                <path d="M57.8411845,45.6036771 C61.2821845,48.8676771 61.2621845,54.7656771 57.7381845,58.1546771 C54.3851845,61.7156771 48.4841845,61.7986771 45.1811845,58.3956771 C41.7391845,55.1316771 41.7751845,49.2506771 45.2821845,45.8446771 C48.6521845,42.3016771 54.5351845,42.2006771 57.8411845,45.6036771 M55.1031845,48.3696771 C52.8891845,46.1806771 49.8791845,46.3866771 47.8771845,48.4086771 C45.8761845,50.4326771 45.7041845,53.4416771 47.9171845,55.6306771 C50.1321845,57.8196771 53.1411845,57.6126771 55.1421845,55.5896771 C57.1441845,53.5676771 57.3171845,50.5576771 55.1031845,48.3696771" id="Fill-1453" fill="#363D45"></path>
                <path d="M59.5200845,34.3279771 L65.5050845,31.3359771 C70.6620845,28.7569771 75.1780845,30.2799771 77.5280845,34.9769771 C79.7280845,39.3699771 78.2610845,43.9919771 73.2340845,46.5049771 L67.1400845,49.5509771 L59.5200845,34.3279771 Z M69.0430845,44.6569771 L71.5460845,43.4059771 C74.6800845,41.8389771 75.3650845,39.3499771 74.0480845,36.7179771 C72.6000845,33.8259771 70.1730845,32.9449771 66.9740845,34.5439771 L64.5800845,35.7409771 L69.0430845,44.6569771 Z" id="Fill-1455" fill="#363D45"></path>
                <polygon id="Fill-1458" fill="#363D45" points="112.744985 25.9270771 106.905985 25.9330771 106.918985 39.4270771 103.025985 39.4320771 103.013985 25.9380771 97.1739845 25.9420771 97.1709845 22.4170771 112.741985 22.4020771"></polygon>
                <polygon id="Fill-1459" fill="#363D45" points="121.994585 34.8839771 120.038585 41.1499771 116.322585 39.9919771 121.392585 23.7469771 125.109585 24.9059771 123.044585 31.5199771 130.242585 33.7629771 132.307585 27.1489771 136.022585 28.3079771 130.952585 44.5529771 127.235585 43.3949771 129.192585 37.1279771"></polygon>
                <polygon id="Fill-1460" fill="#363D45" points="144.843085 33.0450771 148.168085 35.0680771 139.308085 49.6110771 135.982085 47.5860771"></polygon>
                <polygon id="Fill-1461" fill="#363D45" points="147.376485 55.6845771 144.699485 52.8615771 157.059485 41.1495771 161.647485 45.9835771 155.461485 60.4235771 165.933485 50.5015771 168.611485 53.3245771 156.250485 65.0375771 151.662485 60.2015771 157.849485 45.7625771"></polygon>
                <g id="Group-1542" transform="translate(10.747382, 7.708158)">
                    <path d="M155.768903,57.5072186 C160.186903,55.4692186 165.506903,57.7342186 167.398903,62.2402186 C169.242903,66.4492186 168.146903,69.9522186 165.276903,72.1892186 L162.682903,69.2372186 C164.537903,67.8952186 165.102903,65.7912186 164.167903,63.6542186 C163.007903,61.0022186 160.113903,59.8532186 157.328903,61.0712186 C155.879903,61.7032186 154.874903,62.6212186 154.365903,63.8252186 C153.857903,65.0302186 153.920903,66.3292186 154.534903,67.7322186 C155.491903,69.9142186 157.430903,70.5252186 158.465903,70.3382186 L155.890903,64.4592186 L158.788903,63.1922186 L163.380903,73.6832186 L155.134903,77.2872186 L153.769903,74.1702186 L156.911903,72.7952186 C154.459903,72.8342186 152.337903,71.5052186 151.157903,68.8112186 C149.200903,64.5192186 150.969903,59.5252186 155.768903,57.5072186" id="Fill-1462" fill="#363D45"></path>
                    <path d="M168.865903,85.9206186 C167.628903,86.0206186 167.128903,87.4006186 166.895903,89.6636186 C166.439903,94.0166186 165.375903,95.9536186 162.198903,96.2096186 C159.217903,96.4486186 156.825903,94.0066186 156.480903,89.7176186 C156.339903,87.9476186 156.600903,86.3426186 157.261903,84.8516186 C157.922903,83.3596186 159.146903,82.1886186 160.931903,81.3136186 L163.254903,84.4196186 C160.812903,85.3226186 159.696903,87.2156186 159.885903,89.5666186 C160.025903,91.3116186 160.724903,92.4256186 161.766903,92.3416186 C162.931903,92.2486186 163.452903,91.4506186 163.647903,88.4116186 C163.868903,84.7846186 165.378903,82.2986186 168.602903,82.0406186 C171.244903,81.8276186 173.599903,84.1016186 173.907903,87.9546186 C174.166903,91.1786186 172.900903,93.6446186 170.190903,94.8376186 L168.119903,91.8336186 C170.010903,91.0716186 170.770903,89.9126186 170.626903,88.0966186 C170.513903,86.7156186 169.761903,85.8486186 168.865903,85.9206186" id="Fill-1464" fill="#363D45"></path>
                    <path d="M95.8048025,182.961019 C97.2938025,182.943019 98.5168025,184.126019 98.5348025,185.613019 C98.5568025,187.094019 97.3648025,188.314019 95.8818025,188.342019 C95.5548025,188.342019 95.2478025,188.292019 94.9568025,188.191019 C93.9188025,187.829019 93.1698025,186.851019 93.1538025,185.682019 C93.1328025,184.202019 94.3248025,182.982019 95.8048025,182.961019" id="Fill-1466" fill="#FFFFFF"></path>
                    <path d="M34.5494025,163.611619 C33.6154025,164.764619 33.7904025,166.459619 34.9434025,167.400619 C35.4584025,167.807619 36.0764025,168.004619 36.6834025,167.994619 C37.4524025,167.981619 38.2084025,167.645619 38.7274025,166.999619 C39.6694025,165.845619 39.4874025,164.158619 38.3334025,163.217619 C37.1794025,162.283619 35.4914025,162.458619 34.5494025,163.611619" id="Fill-1468" fill="#FFFFFF"></path>
                    <path d="M77.2424025,184.179619 C77.0134025,185.651619 78.0204025,187.025619 79.4854025,187.261619 C79.6394025,187.282619 79.7944025,187.295619 79.9474025,187.292619 C81.2314025,187.270619 82.3534025,186.329619 82.5614025,185.019619 C82.7904025,183.555619 81.7914025,182.174619 80.3184025,181.945619 C78.8534025,181.716619 77.4794025,182.715619 77.2424025,184.179619" id="Fill-1470" fill="#FFFFFF"></path>
                    <path d="M47.5066025,172.936719 C46.7826025,174.232719 47.2486025,175.868719 48.5456025,176.592719 C48.9796025,176.830719 49.4436025,176.938719 49.8966025,176.930719 C50.8266025,176.914719 51.7256025,176.415719 52.2106025,175.546719 C52.9276025,174.251719 52.4606025,172.614719 51.1646025,171.891719 C49.8686025,171.167719 48.2306025,171.633719 47.5066025,172.936719" id="Fill-1472" fill="#FFFFFF"></path>
                    <path d="M61.8767025,179.862819 C61.3937025,181.269819 62.1417025,182.801819 63.5427025,183.284819 C63.8507025,183.394819 64.1597025,183.435819 64.4667025,183.430819 C65.5667025,183.411819 66.5847025,182.718819 66.9657025,181.620819 C67.4497025,180.214819 66.7097025,178.689819 65.3017025,178.198819 C63.8937025,177.715819 62.3607025,178.463819 61.8767025,179.862819" id="Fill-1474" fill="#FFFFFF"></path>
                    <path d="M23.4065025,152.198019 C22.2775025,153.170019 22.1605025,154.870019 23.1405025,155.991019 C23.6815025,156.620019 24.4475025,156.930019 25.2165025,156.917019 C25.8235025,156.906019 26.4355025,156.689019 26.9355025,156.258019 C28.0575025,155.286019 28.1745025,153.585019 27.2025025,152.465019 C26.2225025,151.344019 24.5215025,151.227019 23.4065025,152.198019" id="Fill-1476" fill="#FFFFFF"></path>
                    <path d="M6.28340254,127.973919 C6.70140254,129.057919 7.74340254,129.716919 8.84240254,129.697919 C9.15040254,129.692919 9.45740254,129.633919 9.76240254,129.520919 C11.1454025,128.982919 11.8414025,127.434919 11.3104025,126.044919 L11.3034025,126.044919 C10.7714025,124.654919 9.22240254,123.966919 7.83240254,124.496919 C6.44140254,125.027919 5.75340254,126.583919 6.28340254,127.973919" id="Fill-1478" fill="#FFFFFF"></path>
                    <path d="M1.76850254,112.183219 C2.02150254,113.493219 3.17450254,114.388219 4.45850254,114.366219 C4.61250254,114.364219 4.76550254,114.346219 4.91950254,114.320219 C6.38350254,114.034219 7.33550254,112.627219 7.05750254,111.172219 C6.77150254,109.708219 5.36350254,108.756219 3.90750254,109.034219 C2.44350254,109.321219 1.49050254,110.727219 1.76850254,112.183219" id="Fill-1480" fill="#FFFFFF"></path>
                    <path d="M13.4825025,142.716819 C13.9975025,143.568819 14.9045025,144.037819 15.8345025,144.021819 C16.2965025,144.013819 16.7555025,143.890819 17.1735025,143.638819 C18.4525025,142.870819 18.8635025,141.219819 18.0955025,139.941819 C17.3285025,138.671819 15.6755025,138.260819 14.4045025,139.027819 C13.1335025,139.794819 12.7155025,141.446819 13.4825025,142.716819" id="Fill-1482" fill="#FFFFFF"></path>
                    <path d="M1.21470254,79.4709186 C0.986702541,80.9349186 1.98570254,82.3089186 3.45070254,82.5449186 C3.61270254,82.5659186 3.76670254,82.5789186 3.91970254,82.5759186 C5.20370254,82.5539186 6.32670254,81.6129186 6.52770254,80.3029186 C6.76370254,78.8389186 5.75670254,77.4649186 4.29170254,77.2289186 C2.82670254,76.9999186 1.44370254,77.9989186 1.21470254,79.4709186" id="Fill-1484" fill="#FFFFFF"></path>
                    <path d="M16.5864025,51.1664186 C17.3104025,49.8634186 16.8444025,48.2264186 15.5474025,47.5034186 C14.2444025,46.7874186 12.6054025,47.2524186 11.8824025,48.5484186 C11.1654025,49.8444186 11.6324025,51.4884186 12.9284025,52.2044186 C13.3624025,52.4424186 13.8264025,52.5494186 14.2794025,52.5424186 C15.2094025,52.5264186 16.1084025,52.0354186 16.5864025,51.1664186" id="Fill-1486" fill="#FFFFFF"></path>
                    <path d="M8.60870254,61.8733186 C7.20070254,61.3903186 5.67570254,62.1383186 5.18370254,63.5373186 C4.70070254,64.9443186 5.44870254,66.4763186 6.84870254,66.9593186 C7.15870254,67.0623186 7.46670254,67.1103186 7.77370254,67.1053186 C8.87370254,67.0863186 9.89270254,66.3933186 10.2737025,65.2953186 C10.7577025,63.8893186 10.0167025,62.3573186 8.60870254,61.8733186" id="Fill-1488" fill="#FFFFFF"></path>
                    <path d="M44.8665025,17.1977186 C45.3815025,18.0497186 46.2885025,18.5187186 47.2185025,18.5027186 C47.6795025,18.4947186 48.1395025,18.3717186 48.5575025,18.1187186 C49.8365025,17.3517186 50.2465025,15.7007186 49.4715025,14.4227186 C48.7115025,13.1517186 47.0595025,12.7417186 45.7815025,13.5087186 C44.5105025,14.2757186 44.0995025,15.9277186 44.8665025,17.1977186" id="Fill-1490" fill="#FFFFFF"></path>
                    <path d="M58.9931025,9.78311856 C59.4121025,10.8671186 60.4531025,11.5331186 61.5521025,11.5151186 C61.8601025,11.5101186 62.1661025,11.4511186 62.4641025,11.3301186 C63.8541025,10.8001186 64.5511025,9.24411856 64.0201025,7.86211856 C63.4821025,6.47211856 61.9251025,5.77611856 60.5411025,6.31411856 C59.1511025,6.84511856 58.4621025,8.40111856 58.9931025,9.78311856" id="Fill-1492" fill="#FFFFFF"></path>
                    <path d="M32.5063025,23.1593186 C31.3763025,24.1313186 31.2593025,25.8233186 32.2403025,26.9523186 C32.7803025,27.5733186 33.5473025,27.8833186 34.3163025,27.8703186 C34.9233025,27.8603186 35.5343025,27.6493186 36.0353025,27.2183186 C37.1573025,26.2393186 37.2743025,24.5393186 36.3013025,23.4183186 C35.3213025,22.2973186 33.6203025,22.1803186 32.4983025,23.1593186 L32.5063025,23.1593186 Z" id="Fill-1494" fill="#FFFFFF"></path>
                    <path d="M21.0876025,34.9570186 C20.1536025,36.1100186 20.3286025,37.8050186 21.4816025,38.7390186 C21.9966025,39.1530186 22.6146025,39.3500186 23.2226025,39.3400186 C23.9906025,39.3270186 24.7466025,38.9910186 25.2656025,38.3450186 C26.2076025,37.1910186 26.0256025,35.4960186 24.8716025,34.5630186 C23.7186025,33.6290186 22.0296025,33.8040186 21.0876025,34.9570186" id="Fill-1496" fill="#FFFFFF"></path>
                    <path d="M74.2019025,4.95071856 C74.4549025,6.25271856 75.6009025,7.15571856 76.8839025,7.13371856 C77.0379025,7.13171856 77.1919025,7.11371856 77.3529025,7.07971856 L77.3529025,7.08771856 C78.8159025,6.80171856 79.7689025,5.39471856 79.4829025,3.93171856 C79.2049025,2.47671856 77.7889025,1.51671856 76.3329025,1.80271856 C74.8769025,2.08071856 73.9159025,3.49571856 74.2019025,4.95071856" id="Fill-1498" fill="#FFFFFF"></path>
                    <path d="M161.623703,32.2450186 C160.501703,33.2240186 160.384703,34.9170186 161.357703,36.0380186 C161.897703,36.6670186 162.672703,36.9760186 163.433703,36.9630186 C164.048703,36.9530186 164.659703,36.7350186 165.152703,36.3040186 C166.273703,35.3330186 166.391703,33.6320186 165.418703,32.5110186 C164.446703,31.3900186 162.744703,31.2730186 161.623703,32.2450186" id="Fill-1500" fill="#FFFFFF"></path>
                    <path d="M181.503403,77.3368186 C181.755403,78.6388186 182.909403,79.5338186 184.193403,79.5128186 C184.347403,79.5098186 184.500403,79.4998186 184.653403,79.4658186 C186.117403,79.1798186 187.070403,77.7728186 186.792403,76.3178186 C186.506403,74.8548186 185.097403,73.9028186 183.633403,74.1808186 C182.178403,74.4668186 181.224403,75.8738186 181.503403,77.3368186" id="Fill-1502" fill="#FFFFFF"></path>
                    <path d="M149.833003,21.5036186 C148.891003,22.6566186 149.074003,24.3516186 150.220003,25.2856186 C150.734003,25.6996186 151.353003,25.8966186 151.960003,25.8866186 C152.729003,25.8736186 153.484003,25.5306186 154.012003,24.8916186 C154.946003,23.7386186 154.771003,22.0426186 153.617003,21.1096186 C152.464003,20.1756186 150.767003,20.3506186 149.833003,21.5036186" id="Fill-1504" fill="#FFFFFF"></path>
                    <path d="M182.277403,60.5316186 L182.277403,60.5396186 C181.746403,59.1496186 180.189403,58.4606186 178.798403,58.9916186 C177.416403,59.5226186 176.719403,61.0786186 177.250403,62.4606186 C177.668403,63.5446186 178.710403,64.2116186 179.809403,64.1926186 C180.117403,64.1876186 180.423403,64.1286186 180.729403,64.0076186 C182.119403,63.4776186 182.808403,61.9216186 182.277403,60.5316186" id="Fill-1506" fill="#FFFFFF"></path>
                    <path d="M170.465203,48.5605186 C170.980203,49.4125186 171.887203,49.8735186 172.817203,49.8585186 C173.279203,49.8505186 173.738203,49.7275186 174.156203,49.4745186 C175.436203,48.7075186 175.845203,47.0555186 175.078203,45.7855186 C174.311203,44.5155186 172.658203,44.1045186 171.380203,44.8715186 C170.108203,45.6315186 169.698203,47.2825186 170.465203,48.5605186" id="Fill-1508" fill="#FFFFFF"></path>
                    <path d="M121.593603,6.87981856 C121.109603,8.28681856 121.851603,9.81881856 123.258603,10.3028186 C123.560603,10.4048186 123.875603,10.4528186 124.183603,10.4478186 C125.282603,10.4298186 126.301603,9.73581856 126.675603,8.63881856 C127.166603,7.23181856 126.417603,5.69981856 125.010603,5.21581856 C123.610603,4.73281856 122.077603,5.48081856 121.593603,6.87981856" id="Fill-1510" fill="#FFFFFF"></path>
                    <path d="M136.349703,12.9538186 C135.633703,14.2498186 136.099703,15.8858186 137.395703,16.6098186 C137.822703,16.8478186 138.286703,16.9558186 138.747703,16.9478186 C139.677703,16.9318186 140.568703,16.4408186 141.053703,15.5718186 C141.777703,14.2688186 141.311703,12.6318186 140.015703,11.9088186 C138.711703,11.1848186 137.074703,11.6588186 136.349703,12.9538186" id="Fill-1512" fill="#FFFFFF"></path>
                    <path d="M105.997303,3.48491856 C105.768303,4.94891856 106.768303,6.32991856 108.233303,6.55891856 C108.387303,6.58791856 108.549303,6.59991856 108.703303,6.59791856 C109.986303,6.57591856 111.101303,5.63491856 111.309303,4.32491856 C111.546303,2.85291856 110.539303,1.47891856 109.073303,1.25091856 C107.601303,1.01391856 106.226303,2.02091856 105.997303,3.48491856" id="Fill-1514" fill="#FFFFFF"></path>
                    <path d="M182.024303,108.199319 C181.795303,109.663319 182.795303,111.045319 184.268303,111.274319 C184.422303,111.301319 184.576303,111.307319 184.737303,111.304319 C186.013303,111.282319 187.136303,110.349319 187.344303,109.039319 C187.573303,107.568319 186.573303,106.194319 185.100303,105.965319 C183.636303,105.728319 182.261303,106.735319 182.024303,108.199319" id="Fill-1516" fill="#FFFFFF"></path>
                    <path d="M109.068003,184.573219 C109.321003,185.875219 110.474003,186.778219 111.758003,186.756219 C111.912003,186.754219 112.065003,186.736219 112.226003,186.702219 C113.682003,186.424219 114.635003,185.009219 114.357003,183.554219 C114.078003,182.098219 112.663003,181.146219 111.207003,181.425219 C109.750003,181.703219 108.790003,183.117219 109.068003,184.573219" id="Fill-1518" fill="#FFFFFF"></path>
                    <path d="M139.082503,174.080119 C139.596503,174.932119 140.511503,175.393119 141.433503,175.378119 C141.895503,175.370119 142.354503,175.247119 142.772503,174.994119 C144.052503,174.234119 144.462503,172.583119 143.695503,171.305119 C142.927503,170.034119 141.275503,169.624119 140.003503,170.391119 C138.732503,171.158119 138.322503,172.810119 139.082503,174.080119" id="Fill-1520" fill="#FFFFFF"></path>
                    <path d="M152.524303,161.292119 C151.403303,162.264119 151.285303,163.964119 152.258303,165.085119 C152.806303,165.706119 153.573303,166.024119 154.341303,166.011119 C154.949303,166.000119 155.561303,165.783119 156.060303,165.351119 L156.053303,165.351119 C157.175303,164.372119 157.292303,162.679119 156.320303,161.559119 C155.347303,160.438119 153.646303,160.320119 152.524303,161.292119" id="Fill-1522" fill="#FFFFFF"></path>
                    <path d="M163.294803,150.158219 C162.352803,151.311219 162.535803,153.006219 163.681803,153.940219 C164.195803,154.354219 164.814803,154.551219 165.421803,154.541219 C166.190803,154.528219 166.945803,154.192219 167.473803,153.553219 C168.406803,152.393219 168.232803,150.697219 167.078803,149.764219 C165.925803,148.830219 164.228803,149.005219 163.294803,150.158219" id="Fill-1524" fill="#FFFFFF"></path>
                    <path d="M171.964603,137.343419 C171.240603,138.638419 171.714603,140.275419 173.010603,140.998419 C173.437603,141.237419 173.901603,141.345419 174.361603,141.337419 C175.292603,141.321419 176.183603,140.822419 176.668603,139.953419 C177.392603,138.658419 176.927603,137.021419 175.630603,136.298419 C174.326603,135.574419 172.688603,136.040419 171.964603,137.343419" id="Fill-1526" fill="#FFFFFF"></path>
                    <path d="M124.540003,180.642819 C124.959003,181.734819 126.000003,182.392819 127.099003,182.374819 C127.407003,182.368819 127.713003,182.310819 128.019003,182.197819 C129.401003,181.659819 130.098003,180.103819 129.567003,178.721819 C129.036003,177.331819 127.479003,176.642819 126.088003,177.173819 C124.706003,177.703819 124.009003,179.260819 124.540003,180.642819" id="Fill-1528" fill="#FFFFFF"></path>
                    <path d="M90.0477025,2.72151856 C90.0657025,3.88351856 90.8127025,4.86751856 91.8507025,5.22951856 C92.1417025,5.33051856 92.4497025,5.38151856 92.7707025,5.37151856 C94.2587025,5.35251856 95.4507025,4.13251856 95.4297025,2.65251856 C95.4037025,1.16251856 94.1827025,-0.028481435 92.6987025,0.000518564962 C91.2117025,0.018518565 90.0267025,1.24151856 90.0477025,2.72151856" id="Fill-1530" fill="#FFFFFF"></path>
                    <path d="M0.000202541185,95.8245186 C0.0182025412,96.9865186 0.768202541,97.9635186 1.80620254,98.3255186 C2.09720254,98.4265186 2.40520254,98.4775186 2.73020254,98.476533 C4.21420254,98.4495186 5.40320254,97.2355186 5.38420254,95.7485186 L5.37720254,95.7465186 C5.35920254,94.2585186 4.14320254,93.0775186 2.65520254,93.0965186 C1.16620254,93.1145186 -0.0177974588,94.3375186 0.000202541185,95.8245186" id="Fill-1532" fill="#FFFFFF"></path>
                    <path d="M188.222403,92.8833186 L188.220403,92.8903186 C188.201403,91.4033186 186.978403,90.2193186 185.489403,90.2383186 C184.008403,90.2593186 182.817403,91.4793186 182.838403,92.9593186 C182.855403,94.1213186 183.603403,95.1063186 184.641403,95.4683186 C184.932403,95.5693186 185.239403,95.6193186 185.568403,95.6113186 C187.056403,95.5933186 188.240403,94.3703186 188.222403,92.8833186" id="Fill-1534" fill="#FFFFFF"></path>
                    <path d="M26.6399025,129.548919 C27.9739025,132.117919 30.4099025,132.798919 33.1939025,131.984919 L33.5689025,135.818919 C29.3949025,136.860919 25.6479025,135.296919 23.4959025,131.151919 C20.9959025,126.338919 22.7079025,121.504919 27.1589025,119.196919 C31.4539025,116.858919 36.8369025,118.615919 39.0479025,123.086919 C41.1199025,127.079919 40.2289025,130.748919 37.7369025,132.862919 L34.6629025,130.428919 C36.5339025,128.910919 36.9699025,126.739919 35.8819025,124.645919 C34.6269025,122.228919 31.7589025,121.194919 28.9519025,122.650919 C26.0999025,124.128919 25.3839025,127.131919 26.6399025,129.548919" id="Fill-1536" fill="#363D45"></path>
                    <path d="M52.3222025,152.315619 C49.1502025,155.841619 43.2522025,155.982619 39.7662025,152.551619 C36.1152025,149.298619 35.8722025,143.407619 39.1862025,140.014619 C42.3582025,136.488619 48.2412025,136.366619 51.7432025,139.778619 C55.3772025,143.048619 55.6382025,148.922619 52.3222025,152.315619 M49.4822025,149.656619 C51.6112025,147.385619 51.3242025,144.384619 49.2472025,142.439619 C47.1702025,140.494619 44.1562025,140.402619 42.0262025,142.673619 C39.8982025,144.945619 40.1852025,147.945619 42.2612025,149.890619 C44.3382025,151.835619 47.3532025,151.926619 49.4822025,149.656619" id="Fill-1538" fill="#363D45"></path>
                    <path d="M74.3999025,163.093919 C72.6079025,167.483919 67.1039025,169.609919 62.6639025,167.560919 C58.1279025,165.733919 55.9049025,160.271919 57.8749025,155.957919 C59.6679025,151.567919 65.1609025,149.464919 69.6109025,151.491919 C74.1379025,153.340919 76.3699025,158.780919 74.3999025,163.093919 M70.8279025,161.550919 C72.0629025,158.693919 70.7759025,155.967919 68.1649025,154.838919 C65.5519025,153.711919 62.6829025,154.644919 61.4479025,157.500919 C60.2139025,160.357919 61.4989025,163.083919 64.1119025,164.212919 C66.7239025,165.340919 69.5919025,164.407919 70.8279025,161.550919" id="Fill-1540" fill="#363D45"></path>
                </g>
                <polygon id="Fill-1543" fill="#363D45" points="106.772385 181.949077 102.287385 181.581077 98.2923845 174.056077 95.7543845 176.410077 95.3773845 181.014077 91.4973845 180.695077 92.8923845 163.733077 96.7713845 164.052077 96.2073845 170.910077 102.954385 164.560077 107.803385 164.958077 101.052385 171.356077"></polygon>
                <polygon id="Fill-1544" fill="#363D45" points="112.680985 164.096277 116.528985 163.506277 119.111985 180.330277 115.263985 180.920277"></polygon>
                <polygon id="Fill-1545" fill="#363D45" points="132.668885 176.757177 129.099885 178.311177 122.300885 162.702177 128.413885 160.041177 139.885885 170.779177 134.125885 157.557177 137.694885 156.003177 144.494885 171.612177 138.380885 174.272177 126.909885 163.534177"></polygon>
                <path d="M147.700885,159.625277 C144.267885,156.178277 144.567885,150.408277 148.152885,147.083277 C151.474885,143.907277 155.143885,143.730277 158.232885,145.657277 L156.348885,149.105277 C154.451885,147.825277 152.278885,148.017277 150.589885,149.631277 C148.497885,151.630277 148.411885,154.740277 150.512885,156.937277 C151.606885,158.079277 152.813885,158.708277 154.120885,158.771277 C155.426885,158.835277 156.623885,158.328277 157.732885,157.269277 C159.454885,155.623277 159.362885,153.592277 158.832885,152.686277 L154.191885,157.122277 L152.005885,154.838277 L160.285885,146.923277 L166.507885,153.424277 L164.045885,155.777277 L161.675885,153.300277 C162.553885,155.588277 162.033885,158.036277 159.906885,160.069277 C156.546885,163.382277 151.246885,163.436277 147.700885,159.625277" id="Fill-1546" fill="#363D45"></path>
                <path d="M106.427385,78.1693771 C112.768385,78.5523771 118.591385,81.3913771 122.820385,86.1623771 C124.750385,88.3383771 126.215385,90.8043771 127.229385,93.4343771 L135.108385,90.4173771 C130.704385,78.9843771 119.947385,70.5493771 106.935385,69.7633771 C102.289385,69.4833771 97.7563845,70.1743771 93.4643845,71.8173771 C81.7363845,76.3083771 73.6493845,87.2603771 72.7973845,99.7623771 L81.1583845,102.645377 C81.1373845,101.939377 81.1463845,101.228377 81.1893845,100.514377 C81.7523845,91.2003771 87.7543845,83.0223771 96.4793845,79.6813771 C99.6413845,78.4703771 102.988385,77.9613771 106.427385,78.1693771" id="Fill-1548" fill="#FFFFFF"></path>
                <path d="M64.6561845,96.9555771 C65.7321845,88.0735771 69.6881845,79.8425771 76.0781845,73.3695771 C80.1951845,69.1975771 85.0331845,66.0285771 90.4581845,63.9515771 L90.4591845,63.9505771 L90.4591845,63.9505771 C105.340185,58.2515771 122.284185,61.7945771 133.626185,72.9745771 C137.897185,77.1845771 141.027185,82.1145771 143.036185,87.3805771 L150.915185,84.3635771 C148.484185,78.0135771 144.702185,72.0645771 139.544185,66.9795771 C125.381185,53.0185771 104.884185,49.4085771 87.4441845,56.0875771 C87.4431845,56.0875771 87.4421845,56.0875771 87.4411845,56.0885771 C81.0991845,58.5175771 75.1581845,62.3085771 70.0791845,67.4555771 C62.6051845,75.0265771 58.1121845,84.4095771 56.5671845,94.1665771 L64.6561845,96.9555771 Z" id="Fill-1550" fill="#FFFFFF"></path>
                <path d="M98.0113845,101.531577 C98.1763845,98.7945771 99.9423845,96.3915771 102.509385,95.4085771 C103.450385,95.0485771 104.344385,94.9165771 105.410385,94.9815771 C107.285385,95.0945771 108.943385,95.9065771 110.206385,97.3305771 C110.779385,97.9775771 111.199385,98.6975771 111.495385,99.4595771 L119.365385,96.4455771 C118.708385,94.7475771 117.760385,93.1535771 116.513385,91.7465771 C113.775385,88.6585771 110.014385,86.8225771 105.918385,86.5755771 C103.656385,86.4385771 101.554385,86.7555771 99.4943845,87.5445771 C93.8493845,89.7065771 89.9643845,94.9975771 89.6003845,101.022577 C89.5023845,102.640577 89.6553845,104.206577 90.0313845,105.704577 L100.183385,109.204577 L98.4433845,104.457577 C98.0953845,103.556577 97.9473845,102.588577 98.0113845,101.531577" id="Fill-1552" fill="#FFFFFF"></path>
                <path d="M56.5659845,94.1611771 L140.140985,122.975177 C140.193985,122.904177 140.244985,122.834177 140.297985,122.763177 C144.638985,116.825177 152.280985,114.303177 159.318985,116.449177 L196.081985,127.658177 C195.104985,131.122177 193.923985,134.540177 192.543985,137.899177 L156.709985,124.020177 C153.087985,122.617177 149.063985,124.250177 147.042985,127.398177 C146.963985,127.522177 146.888985,127.627177 146.812985,127.737177 C145.074985,130.548177 143.041985,133.232177 140.676985,135.725177 C134.539985,142.199177 127.051985,146.619177 119.071985,148.992177 L64.9399845,130.329177 C57.3779845,119.667177 54.5669845,106.620177 56.5659845,94.1611771" id="Fill-1554" fill="#363D45"></path>
            </g>
        </g>
    </g>
</svg>