<?xml version="1.0" encoding="UTF-8"?>
<svg width="142px" height="226px" viewBox="0 0 142 226" version="1.1" xmlns="http://www.w3.org/2000/svg" xmlns:xlink="http://www.w3.org/1999/xlink">
    <title>sticker11</title>
    <g id="Page-1" stroke="none" stroke-width="1" fill="none" fill-rule="evenodd">
        <g id="Artboard-17-Copy" transform="translate(-1285.000000, -756.000000)">
            <g id="sticker11" transform="translate(1285.818400, 756.653000)">
                <g id="Group-1348" transform="translate(0.000000, -0.000000)">
                    <path d="M70.156,0 C31.409,0 0,31.411 0,70.156 L0,155.104 C0,193.849 31.409,225.259 70.156,225.259 C108.903,225.259 140.312,193.849 140.312,155.104 L140.312,70.156 C140.312,31.411 108.903,0 70.156,0" id="Fill-1340" fill="#61738C"></path>
                    <path d="M34.8186,29.0006 C35.7606,28.1836 35.7956,27.0876 35.2106,26.0826 L36.3916,25.6696 C36.7826,26.3936 36.9116,27.1326 36.7846,27.8806 C36.6596,28.6286 36.2516,29.2956 35.5736,29.8846 C34.0116,31.2406 32.0456,31.0226 30.7686,29.5526 C29.5036,28.1386 29.6416,25.9786 31.1136,24.7486 C32.4176,23.6166 33.8456,23.6896 34.8736,24.4116 L34.3296,25.5716 C33.5616,24.9746 32.6326,24.9566 31.8616,25.6256 C30.9776,26.3936 30.8556,27.6636 31.7526,28.6986 C32.6636,29.7466 33.9196,29.7806 34.8186,29.0006" id="Fill-1342" fill="#FFFFFF"></path>
                    <path d="M45.4148,19.2158 C46.3618,20.8158 45.7348,22.9808 44.0738,23.8778 C42.4458,24.8518 40.2518,24.2508 39.3788,22.6308 C38.4398,21.0488 39.0598,18.8658 40.7288,17.9658 C42.3518,17.0028 44.5368,17.5878 45.4148,19.2158 M44.2898,19.8518 C43.6448,18.7108 42.3778,18.4078 41.3188,19.0068 C40.2588,19.6068 39.8668,20.8478 40.5118,21.9898 C41.1618,23.1388 42.4438,23.4108 43.4788,22.8268 C44.5138,22.2408 44.9398,21.0018 44.2898,19.8518" id="Fill-1344" fill="#FFFFFF"></path>
                    <path d="M53.3625,18.5612 C54.5485,18.1812 55.0125,17.1902 54.8725,16.0362 L56.1185,16.1212 C56.1915,16.9412 56.0205,17.6692 55.6095,18.3062 C55.1995,18.9442 54.5615,19.3952 53.7085,19.6692 C51.7395,20.3002 50.0205,19.3252 49.4265,17.4742 C48.8205,15.6762 49.7975,13.7482 51.6335,13.2002 C53.2775,12.6722 54.5585,13.3012 55.2185,14.3682 L54.2635,15.2202 C53.7925,14.3702 52.9465,13.9872 51.9765,14.2982 C50.8615,14.6552 50.2485,15.7742 50.6665,17.0772 C51.0895,18.3972 52.2305,18.9242 53.3625,18.5612" id="Fill-1346" fill="#FFFFFF"></path>
                </g>
                <polygon id="Fill-1349" fill="#FFFFFF" points="66.4619 17.1067 64.9619 17.2857 62.6999 14.5197 61.7599 15.8117 61.9769 17.6407 60.7109 17.7917 59.9299 11.2247 61.1949 11.0737 61.5479 14.0287 63.9159 10.7497 65.5399 10.5557 63.4399 13.4617"></polygon>
                <polygon id="Fill-1350" fill="#FFFFFF" points="76.1591 11.9942 73.8331 11.8482 73.4911 17.2622 72.2201 17.1832 72.5611 11.7672 70.2261 11.6192 70.3001 10.4432 76.2331 10.8162"></polygon>
                <path d="M82.2583,11.895 L84.0123,12.316 L85.0543,19.361 L83.6863,19.034 L83.4733,17.449 L80.4063,16.715 L79.5083,18.034 L78.1303,17.705 L82.2583,11.895 Z M83.3183,16.227 L82.8953,13.087 L81.1053,15.698 L83.3183,16.227 Z" id="Fill-1351" fill="#FFFFFF"></path>
                <polygon id="Fill-1352" fill="#FFFFFF" points="91.1257 14.6265 92.3037 15.1105 89.7957 21.2235 88.6167 20.7395"></polygon>
                <polygon id="Fill-1353" fill="#FFFFFF" points="98.2689 18.0414 95.5039 22.7114 98.8099 24.6684 98.2089 25.6834 93.8059 23.0774 97.1719 17.3924"></polygon>
                <path d="M105.6508,25.2227 C105.3058,25.6237 105.5788,26.2197 106.1788,26.9727 C107.2078,28.2537 107.4018,29.1307 106.6618,29.9907 C105.9098,30.8657 104.5758,30.8387 103.3558,29.7927 C102.8628,29.3667 102.5018,28.8587 102.2758,28.2657 C102.0558,27.6657 102.0868,27.0067 102.3668,26.2887 L103.6908,26.4907 C103.2248,27.4367 103.3978,28.2937 104.1348,28.9287 C104.7368,29.4467 105.3348,29.5477 105.6498,29.1827 C105.9698,28.8107 105.8618,28.3567 105.1178,27.4807 C104.0888,26.2857 103.9438,25.2517 104.6898,24.3837 C105.3488,23.6177 106.6158,23.6217 107.6978,24.5517 C108.5858,25.3147 108.9208,26.3627 108.5158,27.3977 L107.2588,27.1647 C107.5938,26.4557 107.4748,25.8557 106.9008,25.3617 C106.4218,24.9497 105.9158,24.9137 105.6508,25.2227" id="Fill-1354" fill="#FFFFFF"></path>
                <polygon id="Fill-1356" fill="#FFFFFF" points="101.5029 196.7762 105.3939 201.2552 102.8009 195.6492 104.2619 194.3792 109.4579 197.7232 105.5679 193.2452 106.5299 192.4092 110.8669 197.4012 109.0979 198.9372 104.1549 195.7242 106.6379 201.0742 104.8759 202.6042 100.5409 197.6122"></polygon>
                <g id="Group-1361" transform="translate(82.005421, 200.931124)" fill="#FFFFFF">
                    <path d="M10.7683786,5.08007628 C9.84837862,3.46307628 10.5173786,1.30707628 12.1953786,0.440076278 C13.8413786,-0.505923722 16.0263786,0.135076278 16.8693786,1.77107628 C17.7813786,3.37207628 17.1233786,5.54607628 15.4363786,6.41707628 C13.7933786,7.35007628 11.6173786,6.72607628 10.7683786,5.08007628 M11.9063786,4.46307628 C12.5313786,5.61807628 13.7933786,5.94307628 14.8643786,5.36207628 C15.9353786,4.78207628 16.3513786,3.54707628 15.7243786,2.39207628 C15.0953786,1.23107628 13.8163786,0.936076278 12.7713786,1.50307628 C11.7253786,2.07007628 11.2753786,3.30207628 11.9063786,4.46307628" id="Fill-1357"></path>
                    <path d="M2.80907862,5.61027628 C1.61507862,5.97227628 1.13307862,6.95627628 1.25807862,8.11327628 L0.0110786188,8.00627628 C-0.0489213812,7.18727628 0.135078619,6.45927628 0.556078619,5.82927628 C0.976078619,5.19727628 1.62207862,4.75627628 2.48207862,4.49527628 C4.46007862,3.89627628 6.16607862,4.90027628 6.73007862,6.76127628 C7.30707862,8.57127628 6.29807862,10.4852763 4.45207862,11.0042763 C2.79707862,11.5052763 1.52507862,10.8542763 0.882078619,9.77527628 L1.85207862,8.94027628 C2.31007862,9.79727628 3.15007862,10.1952763 4.12707862,9.89827628 C5.24807862,9.56027628 5.87907862,8.45027628 5.48307862,7.13927628 C5.07907862,5.81027628 3.94807862,5.26527628 2.80907862,5.61027628" id="Fill-1359"></path>
                </g>
                <polygon id="Fill-1362" fill="#FFFFFF" points="71.6875 207.7688 73.1915 207.6158 75.4045 210.4208 76.3665 209.1458 76.1815 207.3128 77.4495 207.1838 78.1185 213.7638 76.8485 213.8918 76.5485 210.9318 74.1225 214.1698 72.4965 214.3348 74.6455 211.4658"></polygon>
                <polygon id="Fill-1363" fill="#FFFFFF" points="61.9095 212.7258 64.2365 212.9128 64.6705 207.4968 65.9435 207.5998 65.5075 213.0148 67.8435 213.2018 67.7495 214.3798 61.8155 213.9028"></polygon>
                <path d="M55.8116,212.72 L54.0646,212.273 L53.1316,205.211 L54.4956,205.561 L54.6836,207.149 L57.7396,207.93 L58.6576,206.626 L60.0296,206.977 L55.8116,212.72 Z M54.8196,208.373 L55.1926,211.519 L57.0226,208.936 L54.8196,208.373 Z" id="Fill-1364" fill="#FFFFFF"></path>
                <polygon id="Fill-1365" fill="#FFFFFF" points="47.0018 209.8422 45.8298 209.3382 48.4388 203.2622 49.6108 203.7662"></polygon>
                <polygon id="Fill-1366" fill="#FFFFFF" points="39.9265 206.3143 42.7645 201.6863 39.4875 199.6773 40.1045 198.6713 44.4675 201.3463 41.0125 206.9803"></polygon>
                <path d="M32.6565,198.9936 C33.0065,198.5986 32.7445,197.9986 32.1565,197.2386 C31.1505,195.9406 30.9715,195.0626 31.7235,194.2156 C32.4885,193.3536 33.8205,193.4016 35.0215,194.4666 C35.5075,194.8986 35.8595,195.4126 36.0745,196.0086 C36.2845,196.6116 36.2445,197.2696 35.9525,197.9816 L34.6355,197.7596 C35.1135,196.8216 34.9565,195.9616 34.2285,195.3156 C33.6365,194.7896 33.0415,194.6776 32.7215,195.0386 C32.3965,195.4046 32.4965,195.8596 33.2235,196.7466 C34.2325,197.9576 34.3595,198.9926 33.6025,199.8466 C32.9325,200.6026 31.6665,200.5776 30.6005,199.6306 C29.7255,198.8546 29.4085,197.8036 29.8295,196.7746 L31.0815,197.0276 C30.7355,197.7306 30.8445,198.3326 31.4095,198.8336 C31.8825,199.2546 32.3865,199.2966 32.6565,198.9936" id="Fill-1367" fill="#FFFFFF"></path>
                <polygon id="Fill-1369" fill="#FFFFFF" points="109.7841 77.2393 22.4951 102.9853 9.7181 59.6673 97.0071 33.9213"></polygon>
                <polygon id="Fill-1370" fill="#363D45" points="54.552 84.2393 47.636 60.7893 48.461 86.0363 39.325 88.7303 26.318 67.0773 33.234 90.5273 27.143 92.3243 19.283 65.6753 30.324 62.4203 42.613 83.0433 41.743 59.0513 52.784 55.7953 60.643 82.4433"></polygon>
                <polygon id="Fill-1371" fill="#363D45" points="57.659 54.357 63.749 52.56 71.609 79.209 65.518 81.005"></polygon>
                <polygon id="Fill-1372" fill="#363D45" points="80.4004 60.8906 68.2414 51.2356 75.2844 49.1576 82.4794 55.3126 85.1824 46.2386 92.2254 44.1616 87.2524 58.8706 101.6064 70.3606 94.5644 72.4376 85.2294 64.6386 81.6214 76.2556 74.5784 78.3326"></polygon>
                <polygon id="Fill-1373" fill="#FFFFFF" points="119.6308 136.2016 67.6438 124.7866 77.3298 80.6746 129.3168 92.0896"></polygon>
                <polygon id="Fill-1374" fill="#363D45" points="85.5245 91.1302 91.7275 92.4922 85.7685 119.6282 79.5665 118.2662"></polygon>
                <polygon id="Fill-1375" fill="#363D45" points="118.6384 104.293 109.3344 102.25 104.6104 123.766 98.4074 122.404 103.1314 100.887 93.8274 98.845 95.0624 93.224 119.8714 98.672"></polygon>
                <polygon id="Fill-1376" fill="#FFFFFF" points="102.2943 182.7531 37.0933 183.2631 36.7403 138.1011 101.9413 137.5921"></polygon>
                <g id="Group-1385" transform="translate(13.962600, 111.691800)">
                    <path d="M37.1537,34.9433 L37.2827,51.4143 C37.3117,55.0663 39.1947,57.3543 42.6867,57.3263 C46.1787,57.2983 48.0277,54.9833 47.9987,51.3313 L47.8697,34.8603 L54.2187,34.8103 L54.3477,51.2813 C54.4047,58.4253 49.9957,63.0243 42.7327,63.0803 C35.4697,63.1373 30.9887,58.6073 30.9337,51.4633 L30.8047,34.9933 L37.1537,34.9433 Z" id="Fill-1377" fill="#363D45"></path>
                    <path d="M65.631,62.5056 L59.281,62.5556 L59.063,34.7726 L72.358,34.6686 C78.551,34.6206 81.718,38.6036 81.754,43.2876 C81.789,47.8106 78.607,52.0836 72.495,52.1316 L65.55,52.1856 L65.631,62.5056 Z M72.053,46.3796 C74.117,46.3636 75.418,45.2816 75.404,43.3766 C75.388,41.4706 74.07,40.4096 72.007,40.4256 L65.458,40.4776 L65.504,46.4316 L72.053,46.3796 Z" id="Fill-1379" fill="#363D45"></path>
                    <path d="M4.699,1.132 L1.5,1.132 C1.5,1.594 1.452,2.085 1.358,2.585 C1.669,2.274 2.207,2.057 2.746,2.057 C4.01,2.057 5.01,2.849 5.01,4.265 C5.01,5.681 4.075,6.7 2.5,6.7 C1.849,6.7 1.283,6.53 0.821,6.19 C0.357,5.85 0.084,5.359 0,4.719 L1.179,4.388 C1.283,5.114 1.745,5.567 2.5,5.567 C3.302,5.567 3.812,5.067 3.812,4.359 C3.812,3.651 3.322,3.133 2.529,3.133 C1.971,3.133 1.5,3.435 1.321,3.888 L0.094,3.604 C0.311,2.293 0.377,1.217 0.377,0 L4.699,0 L4.699,1.132 Z" id="Fill-1381" fill="#FFFFFF"></path>
                    <path d="M10.8845,6.6053 L9.6105,6.6053 L9.6105,0.0003 L12.7235,0.0003 C14.1405,0.0003 14.8955,0.9333 14.8955,2.0193 C14.8955,3.0763 14.1405,4.0573 12.7235,4.0573 L10.8845,4.0573 L10.8845,6.6053 Z M12.6305,2.8783 C13.2055,2.8783 13.6025,2.5573 13.6025,2.0283 C13.6025,1.4903 13.2055,1.1793 12.6305,1.1793 L10.8845,1.1793 L10.8845,2.8783 L12.6305,2.8783 Z" id="Fill-1383" fill="#FFFFFF"></path>
                </g>
                <polygon id="Fill-1386" fill="#FFFFFF" points="40.1294 118.2971 40.1294 112.3711 38.4124 118.2971 36.4784 118.2971 34.7504 112.3711 34.7504 118.2971 33.4774 118.2971 33.4774 111.6921 35.8164 111.6921 37.4394 117.3531 39.0724 111.6921 41.4034 111.6921 41.4034 118.2971"></polygon>
                <path d="M14.2071,124.1404 L16.7551,124.1404 C18.9441,124.1404 20.1811,125.4904 20.1811,127.4894 C20.1811,129.3684 18.9161,130.7454 16.7841,130.7454 L14.2071,130.7454 L14.2071,124.1404 Z M15.4821,129.5844 L16.7551,129.5844 C18.1801,129.5844 18.9071,128.6694 18.9071,127.4894 C18.9071,126.1404 18.1611,125.2914 16.7361,125.2914 L15.4821,125.2914 L15.4821,129.5844 Z" id="Fill-1387" fill="#FFFFFF"></path>
                <path d="M26.4998,124.1404 L28.3008,124.1404 L30.9528,130.7454 L29.5468,130.7454 L28.9708,129.2544 L25.8198,129.2544 L25.2528,130.7454 L23.8378,130.7454 L26.4998,124.1404 Z M28.5378,128.1034 L27.3958,125.1504 L26.2638,128.1034 L28.5378,128.1034 Z" id="Fill-1389" fill="#FFFFFF"></path>
                <polygon id="Fill-1390" fill="#FFFFFF" points="35.2896 130.745 36.5636 130.745 36.5636 124.14 35.2896 124.14"></polygon>
                <polygon id="Fill-1391" fill="#FFFFFF" points="42.7098 124.1404 42.7098 129.5664 46.5508 129.5664 46.5508 130.7454 41.4368 130.7454 41.4368 124.1404"></polygon>
                <polygon id="Fill-1392" fill="#FFFFFF" points="52.4624 126.9329 54.2084 124.1399 55.6234 124.1399 53.1044 128.1219 53.1044 130.7449 51.8294 130.7449 51.8294 128.1219 49.3014 124.1399 50.8114 124.1399"></polygon>
            </g>
        </g>
    </g>
</svg>