<?xml version="1.0" encoding="UTF-8"?>
<svg width="215px" height="150px" viewBox="0 0 215 150" version="1.1" xmlns="http://www.w3.org/2000/svg" xmlns:xlink="http://www.w3.org/1999/xlink">
    <title>sticker9</title>
    <g id="Page-1" stroke="none" stroke-width="1" fill="none" fill-rule="evenodd">
        <g id="Artboard-17-Copy" transform="translate(-576.000000, -794.000000)">
            <g id="sticker9" transform="translate(576.374400, 794.820800)">
                <path d="M9.06,148.924 C5.12,148.924 1.343,146.347 0.156,141.861 C0.039,141.418 -1.13686838e-13,140.952 -1.13686838e-13,140.494 L-1.13686838e-13,90.628 C-1.13686838e-13,74.929 11.222,61.555 26.684,58.829 L123.075,41.829 C134.849,39.036 142.678,27.522 140.922,15.519 L140.14,10.169 C139.839,8.109 140.856,6.081 142.688,5.092 L147.444,2.523 C148.802,1.789 150.976,0.815 153.61,0.35 C154.935,0.118 156.273,1.33582034e-12 157.595,1.33582034e-12 C162.438,1.33582034e-12 167.031,1.525 170.878,4.411 C175.847,8.141 179.109,13.727 180.314,20.566 C180.69,22.695 180.907,24.899 180.971,27.134 C181.039,29.478 183.105,31.247 185.414,30.84 L187.342,30.5 C188.524,30.291 189.73,30.186 190.929,30.186 C200.274,30.186 208.349,36.429 210.567,45.369 C211.193,47.887 211.319,50.475 210.97,52.99 C210.832,53.988 211.051,55.006 211.518,55.899 C212.462,57.703 213.134,59.658 213.498,61.71 C214.33,66.44 213.448,71.182 211.148,75.185 C211.377,75.942 211.561,76.714 211.699,77.498 C212.435,81.676 211.829,85.865 210.085,89.547 C209.657,90.451 209.523,91.48 209.737,92.456 C209.837,92.914 209.921,93.376 209.99,93.842 C211.56,104.472 204.082,114.672 193.32,116.575 L10.633,148.785 C10.11,148.877 9.584,148.924 9.06,148.924" id="Fill-1061" fill="#FFE600"></path>
                <path d="M174.6042,82.729 C176.6412,82.325 178.4772,83.547 178.8462,85.55 C179.2022,87.481 177.9282,89.319 175.8922,89.723 C173.9292,90.113 172.0922,88.891 171.7372,86.96 C171.3682,84.957 172.6412,83.119 174.6042,82.729 L174.6042,82.729 Z M173.0702,63.086 L180.9012,61.761 L178.0332,78.978 L173.1592,79.795 L173.0702,63.086 Z" id="Fill-1063" fill="#FF5D38"></path>
                <path d="M27.1608,88.2619 L40.3418,85.9469 C45.3218,85.0719 48.5648,87.2429 48.5398,91.4569 C48.5218,94.3949 47.1178,96.6869 44.2928,98.3809 C47.5088,98.7809 49.3998,100.6499 49.3809418,103.8579 C49.3538,108.6499 45.9318,111.9929 40.3658,112.9709 L27.0008,115.3179 L27.1608,88.2619 Z M40.7648,107.3019 C42.5578,106.9869 43.7008,105.7439 43.7098534,104.0819 C43.7188,102.4199 42.5898,101.5759 40.7958,101.8909 L32.9238,103.2739 L32.8928,108.6849 L40.7648,107.3019 Z M40.0978,96.4149 C41.8918,96.0989 42.8488,95.0049 42.8578613,93.4199 C42.8668,92.0289 41.8848,91.2749 40.1258,91.5829 L32.9868,92.8379 L32.9578,97.6689 L40.0978,96.4149 Z" id="Fill-1065" fill="#FF5D38"></path>
                <path d="M59.3491,82.608 L59.2541,98.647 C59.2321,102.204 60.9401,104.144 64.1611,103.577 C67.3851,103.011 69.1201,100.467 69.1401,96.911 L69.2351,80.87 L75.0931,79.842 L74.9981,95.882 C74.9561,102.84 70.8291,108.005 64.1291,109.183 C57.4291,110.36 53.3541,106.634 53.3951,99.677 L53.4911,83.637 L59.3491,82.608 Z" id="Fill-1067" fill="#FF5D38"></path>
                <path d="M106.36,87.8624 C106.461,95.3734 100.088,103.0574 92.729,104.1584 C85.368,105.6434 79.072,100.1854 79.265,92.6224 C79.162,85.1114 85.535,77.4664 92.894,76.3274 C100.255,74.8804 106.551,80.3004 106.36,87.8624 M100.5,88.8914 C100.529,83.9444 97.144,81.3734 92.86,82.1254 C88.575,82.8784 85.152,86.6454 85.123,91.5934 C85.093,96.5404 88.48,99.1124 92.763,98.3604 C97.046,97.6084 100.471,93.8394 100.5,88.8914" id="Fill-1069" fill="#FF5D38"></path>
                <polygon id="Fill-1072" fill="#FF5D38" points="116.6095 99.576 110.7495 100.605 110.9095 73.549 120.9435 71.786 130.1815 93.061 130.3165 70.14 136.1745 69.111 136.0145 96.167 125.9825 97.929 116.7445 76.655"></polygon>
                <path d="M167.6608,77.0927 C167.7618,84.6047 161.3888,92.2877 154.0318,93.3887 C146.6708,94.8737 140.3748,89.4167 140.5658,81.8527 C140.4648,74.3417 146.8378,66.6967 154.1968,65.5577 C161.5558,64.1107 167.8518,69.5307 167.6608,77.0927 M161.8028,78.1217 C161.8318,73.1747 158.4448,70.6037 154.1608,71.3557 C149.8778,72.1087 146.4528,75.8757 146.4238,80.8237 C146.3948,85.7707 149.7808,88.3437 154.0658,87.5907 C158.3488,86.8387 161.7718,83.0697 161.8028,78.1217" id="Fill-1073" fill="#FF5D38"></path>
                <path d="M202.7761,79.071 C202.4401,77.167 201.6131,75.41 200.4021,73.953 C203.5881,71.517 205.3041,67.426 204.5771,63.294 C204.0761,60.47 202.4981,57.994 200.2481,56.339 C201.9581,53.803 202.5421,50.646 201.7721,47.549 C200.5601,42.66 196.0991,39.246 190.9291,39.246 C190.2561,39.246 189.5791,39.306 188.9151,39.423 L169.3911,42.864 C171.8001,36.424 172.5731,28.838 171.3921,22.139 C170.5921,17.605 168.5351,13.981 165.4421,11.659 C163.1761,9.959 160.4621,9.06 157.5951,9.06 C156.7961,9.06 155.9861,9.132 155.1851,9.273 C153.7451,9.527 152.5231,10.077 151.7501,10.495 L149.5201,11.7 L149.8861,14.208 C152.3341,30.942 141.3561,46.959 124.8811,50.711 L28.2571,67.751 C17.1341,69.713 9.0601,79.335 9.0601,90.628 L9.0601,139.862 L191.7431,107.652 C197.7221,106.596 201.8861,100.99 201.0251,95.157 C200.7271,93.128 199.8811,91.26 198.6031,89.728 C201.7881,87.288 203.5031,83.199 202.7761,79.071 M194.1921,88.004 L191.3751,88.905 L193.9141,90.423 C195.8311,91.568 197.1161,93.486 197.4401,95.685 C198.0181,99.597 195.1791,103.365 191.1121,104.082 L12.6851,135.544 L12.6851,90.628 C12.6851,81.096 19.4981,72.977 28.8851,71.32 L125.5971,54.266 C144.1161,50.096 156.2081,32.38 153.4731,13.683 C154.0191,13.388 154.8561,13.011 155.8151,12.842 C158.5111,12.367 161.1581,12.976 163.2681,14.559 C165.6111,16.317 167.1861,19.156 167.8231,22.768 C169.1301,30.186 167.8031,38.796 164.3581,45.238 L163.0621,47.661 L189.5451,42.992 C193.5071,42.291 197.3261,44.679 198.2541,48.421 C198.9521,51.23 197.9941,54.11 195.7531,55.939 L193.9031,57.449 L196.1581,58.236 C198.6851,59.117 200.5431,61.297 201.0071,63.926 C201.6441,67.541 199.4881,71.109 195.9931,72.228 L193.1751,73.13 L195.7141,74.647 C197.5621,75.752 198.8361,77.594 199.2071,79.7 C199.8441,83.314 197.6881,86.884 194.1921,88.004" id="Fill-1075" fill="#FF5D38"></path>
            </g>
        </g>
    </g>
</svg>