<?xml version="1.0" encoding="UTF-8"?>
<svg width="206px" height="202px" viewBox="0 0 206 202" version="1.1" xmlns="http://www.w3.org/2000/svg" xmlns:xlink="http://www.w3.org/1999/xlink">
    <title>sticker2</title>
    <g id="Page-1" stroke="none" stroke-width="1" fill="none" fill-rule="evenodd">
        <g id="Artboard-17-Copy" transform="translate(-915.000000, -167.000000)">
            <g id="sticker2" transform="translate(915.515300, 167.881382)">
                <path d="M205.321,100.228818 C205.321,107.513818 189.81,112.958818 188.26,119.774818 C186.661,126.812818 198.236,138.434818 195.172,144.784818 C192.058,151.238818 175.724,149.413818 171.298,154.957818 C166.849,160.528818 172.244,176.044818 166.673,180.492818 C161.129,184.919818 147.205,176.226818 140.751,179.340818 C134.402,182.403818 132.541,198.737818 125.504,200.336818 C118.688,201.886818 109.945,188.010818 102.66,188.010818 C95.376,188.010818 86.633,201.886818 79.817,200.336818 C72.779,198.737818 70.919,182.403818 64.569,179.340818 C58.115,176.226818 44.191,184.919818 38.647,180.492818 C33.076,176.043818 38.471,160.527818 34.023,154.957818 C29.596,149.413818 13.262,151.238818 10.148,144.784818 C7.085,138.434818 18.66,126.811818 17.06,119.774818 C15.511,112.958818 -5.68434189e-14,107.513818 -5.68434189e-14,100.228818 C-5.68434189e-14,92.9438179 15.511,87.4988179 17.06,80.6828179 C18.66,73.6448179 7.085,62.0228179 10.148,55.6728179 C13.262,49.2188179 29.596,51.0438179 34.023,45.4998179 C38.472,39.9288179 33.077,24.4128179 38.648,19.9648179 C44.192,15.5378179 58.115,24.2308179 64.57,21.1168179 C70.919,18.0538179 72.779,1.71981793 79.817,0.12081793 C86.633,-1.42918207 95.376,12.4468179 102.66,12.4468179 C109.945,12.4468179 118.688,-1.42918207 125.504,0.12081793 C132.542,1.71981793 134.402,18.0538179 140.752,21.1168179 C147.206,24.2308179 161.129,15.5378179 166.673,19.9648179 C172.244,24.4138179 166.85,39.9288179 171.298,45.4998179 C175.725,51.0438179 192.059,49.2188179 195.173,55.6728179 C198.236,62.0228179 186.661,73.6458179 188.26,80.6828179 C189.81,87.4988179 205.321,92.9438179 205.321,100.228818" id="Fill-1133" fill="#C8F7C8"></path>
                <polygon id="Fill-1136" fill="#363D45" points="60.5531 45.8009179 61.7831 47.4889179 60.9781 48.0769179 57.9341 43.8999179 58.7391 43.3139179 60.0231 45.0729179 62.0801 43.5729179 60.7981 41.8129179 61.6031 41.2259179 64.6471 45.4019179 63.8421 45.9889179 62.6121 44.3009179"></polygon>
                <path d="M66.5993,38.2219179 L67.8443,37.5609179 L72.0973,41.1489179 L71.1263,41.6639179 L70.1813,40.8459179 L68.0063,42.0019179 L68.1613,43.2389179 L67.1843,43.7589179 L66.5993,38.2219179 Z M69.4593,40.2099179 L67.5883,38.5899179 L67.8893,41.0439179 L69.4593,40.2099179 Z" id="Fill-1137" fill="#363D45"></path>
                <polygon id="Fill-1138" fill="#363D45" points="75.7965 39.6313179 74.8585 39.9633179 73.1345 35.0983179 74.7545 34.5243179 78.2715 38.0263179 76.7775 33.8073179 77.7155 33.4753179 79.4395 38.3413179 77.8195 38.9143179 74.3015 35.4113179"></polygon>
                <g id="Group-1145" transform="translate(81.732000, 30.143218)" fill="#363D45">
                    <path d="M0,2.2244 L1.949,1.8134 C3.624,1.4604 4.786,2.2944 5.109,3.8244 C5.41,5.2614 4.666,6.5184 3.035,6.8624 L1.064,7.2764 L0,2.2244 Z M1.852,6.1844 L2.826,5.9784 C3.916,5.7494 4.324,4.9324 4.133,4.0304 C3.917,2.9974 3.21,2.4674 2.12,2.6974 L1.16,2.8994 L1.852,6.1844 Z" id="Fill-1139"></path>
                    <path d="M15.7089,4.4451 C16.6829,4.4001 17.2359,3.7471 17.3649,2.8471 L18.2879,3.1661 C18.1769,3.8001 17.8969,4.3151 17.4579,4.7121 C17.0179,5.1091 16.4439,5.3201 15.7429,5.3521 C14.1289,5.4261 13.0299,4.3391 12.9609,2.8201 C12.8699,1.3391 14.0029,0.0831 15.4999,0.0431 C16.8499,-0.0179 17.6879,0.7191 17.9679,1.6601 L17.0719,2.1061 C16.8909,1.3691 16.3299,0.9071 15.5339,0.9431 C14.6199,0.9851 13.9289,1.7041 13.9779,2.7731 C14.0279,3.8571 14.7809,4.4871 15.7089,4.4451" id="Fill-1141"></path>
                    <path d="M24.835,5.251 C24.772,5.116 24.732,4.967 24.714,4.804 C24.696,4.641 24.689,4.398 24.698,4.066 C24.716,3.446 24.421,3.187 23.883,3.172 L22.776,3.14 L22.719,5.19 L21.723,5.162 L21.87,0 L24.399,0.073 C25.462,0.104 26.078,0.748 26.054,1.574 C26.036,2.193 25.624,2.698 24.997,2.909 C25.465,3.077 25.756,3.469 25.768,4.082 C25.782,4.643 25.811,4.917 26.003,5.166 L25.999,5.284 L24.835,5.251 Z M24.278,2.261 C24.772,2.275 25.045,2.032 25.056,1.641 C25.067,1.251 24.808,1.007 24.314,0.992 L22.839,0.951 L22.803,2.219 L24.278,2.261 Z" id="Fill-1143"></path>
                </g>
                <path d="M113.3796,30.6989179 L114.7796,30.8519179 L116.2786,36.2089179 L115.1866,36.0899179 L114.8666,34.8829179 L112.4166,34.6149179 L111.8506,35.7249179 L110.7506,35.6049179 L113.3796,30.6989179 Z M114.6266,33.9519179 L113.9906,31.5599179 L112.8596,33.7579179 L114.6266,33.9519179 Z" id="Fill-1146" fill="#363D45"></path>
                <polygon id="Fill-1147" fill="#363D45" points="124.1699 32.4630179 123.9819 33.3650179 121.2029 32.7860179 120.9469 34.0130179 123.5099 34.5480179 123.3209 35.4500179 120.7589 34.9150179 120.3359 36.9370179 119.3619 36.7330179 120.4159 31.6800179"></polygon>
                <polygon id="Fill-1148" fill="#363D45" points="131.8045 35.6896179 130.0735 35.1236179 128.7555 39.1526179 127.8085 38.8436179 129.1275 34.8136179 127.3905 34.2456179 127.6775 33.3686179 132.0915 34.8146179"></polygon>
                <polygon id="Fill-1149" fill="#363D45" points="139.1413 37.8951179 138.7473 38.7291179 136.1393 37.4971179 135.6593 38.5101179 138.0683 39.6481179 137.6733 40.4821179 135.2653 39.3441179 134.7203 40.4981179 137.3953 41.7621179 137.0013 42.5961179 133.4263 40.9061179 135.6323 36.2371179"></polygon>
                <g id="Group-1154" transform="translate(50.047100, 39.850118)" fill="#363D45">
                    <path d="M92.646,1.13686838e-13 L94.317,1.082 C95.755,2.013 95.992,3.424 95.141,4.736 C94.343,5.968 92.929,6.334 91.529,5.428 L89.839,4.333 L92.646,1.13686838e-13 Z M91.168,4.113 L92.004,4.655 C92.939,5.26 93.804,4.968 94.306,4.195 C94.879,3.31 94.751,2.435 93.817,1.83 L92.993,1.296 L91.168,4.113 Z" id="Fill-1150"></path>
                    <path d="M3.516,106.7814 L4.975,108.1374 C6.228,109.3034 6.219,110.7334 5.153,111.8794 C4.154,112.9544 2.697,113.0704 1.475,111.9354 L1.13686838e-13,110.5634 L3.516,106.7814 Z M1.348,110.5774 L2.077,111.2554 C2.893,112.0144 3.796,111.8764 4.424,111.2014 C5.142,110.4284 5.168,109.5464 4.352,108.7864 L3.633,108.1184 L1.348,110.5774 Z" id="Fill-1152"></path>
                </g>
                <polygon id="Fill-1155" fill="#363D45" points="62.6693 154.159118 62.1273 154.905118 59.7943 153.211118 59.1353 154.118118 61.2893 155.682118 60.7473 156.427118 58.5933 154.863118 57.8443 155.895118 60.2363 157.633118 59.6953 158.379118 56.4973 156.056118 59.5313 151.880118"></polygon>
                <polygon id="Fill-1156" fill="#363D45" points="66.4066 156.441018 64.3766 160.163018 67.0096 161.600018 66.5686 162.409018 63.0616 160.495018 65.5326 155.964018"></polygon>
                <polygon id="Fill-1157" fill="#363D45" points="72.0728 159.239018 72.9918 159.623018 71.0018 164.390018 70.0828 164.007018"></polygon>
                <path d="M77.3958,165.754518 C78.3278,166.032518 79.0668,165.599518 79.4838,164.792518 L80.2488,165.398518 C79.9358,165.958518 79.5018,166.353518 78.9568,166.582518 C78.4108,166.811518 77.7998,166.821518 77.1288,166.620518 C75.5818,166.158518 74.9038,164.771518 75.3388,163.315518 C75.7418,161.890518 77.2238,161.078518 78.6488,161.535518 C79.9418,161.921518 80.4888,162.893518 80.4438,163.872518 L79.4518,163.998518 C79.5238,163.242518 79.1478,162.622518 78.3838,162.394518 C77.5088,162.133518 76.6208,162.583518 76.3138,163.607518 C76.0038,164.645518 76.5048,165.488518 77.3958,165.754518" id="Fill-1158" fill="#363D45"></path>
                <polygon id="Fill-1160" fill="#363D45" points="84.3858 163.043818 85.3618 163.238818 84.3578 168.300818 83.3808 168.106818"></polygon>
                <g id="Group-1169" transform="translate(88.386452, 163.352585)" fill="#363D45">
                    <path d="M5.41004804,3.67253312 C5.27304804,5.12053312 3.87804804,6.20053312 2.41604804,6.00253312 C0.938048043,5.86853312 -0.171951957,4.47853312 0.0220480432,3.05253312 C0.157048043,1.61953312 1.55304804,0.525533118 3.02404804,0.724533118 C4.49304804,0.863533118 5.60504804,2.23953312 5.41004804,3.67253312 M4.40604804,3.55753312 C4.52304804,2.53753312 3.86204804,1.76353312 2.91604804,1.65553312 C1.97104804,1.54653312 1.15104804,2.14953312 1.03304804,3.16953312 C0.915048043,4.19453312 1.60004804,4.95753312 2.52404804,5.06353312 C3.44804804,5.17053312 4.28704804,4.58353312 4.40604804,3.55753312" id="Fill-1161"></path>
                    <path d="M10.004548,1.34013312 L9.91054804,4.39213312 C9.88654804,5.18113312 10.329548,5.66713312 11.044548,5.68913312 C11.759548,5.71013312 12.224548,5.25313312 12.247548,4.46413312 L12.341548,1.41113312 L13.337548,1.44213312 L13.242548,4.51613312 C13.203548,5.82113312 12.344548,6.65113312 11.016548,6.61113312 C9.68254804,6.56913312 8.87554804,5.68913312 8.91454804,4.38413312 L9.00954804,1.30913312 L10.004548,1.34013312 Z" id="Fill-1163"></path>
                    <path d="M18.042748,2.75313312 C18.059748,3.16613312 18.532748,3.36113312 19.275748,3.47213312 C20.545748,3.65713312 21.123748,4.05513312 21.157748,4.93913312 C21.193748,5.83913312 20.417748,6.53513312 19.163748,6.58613312 C18.654748,6.60513312 18.178748,6.50613312 17.733748,6.28913312 C17.288748,6.06213312 16.955748,5.67013312 16.734748,5.11013312 L17.596748,4.52213312 C17.834748,5.31013312 18.390748,5.70813312 19.149748,5.67813312 C19.768748,5.65313312 20.165748,5.39313312 20.148748,5.01713312 C20.134748,4.63313312 19.830748,4.43213312 18.940748,4.32713312 C17.715748,4.19113312 17.082748,3.67813312 17.047748,2.78513312 C17.014748,1.99713312 17.741748,1.32513312 18.854748,1.28113312 C19.768748,1.24413312 20.517748,1.66413312 20.837748,2.47113312 L19.994748,3.00713312 C19.809748,2.42413312 19.421748,2.14413312 18.831748,2.16813312 C18.336748,2.18713312 18.029748,2.43613312 18.042748,2.75313312" id="Fill-1165"></path>
                    <path d="M28.631348,0.444133118 L30.588348,0.0681331183 C32.268348,-0.255866882 33.417348,0.599133118 33.713348,2.13413312 C33.990348,3.57713312 33.222348,4.82213312 31.584348,5.13713312 L29.606348,5.51713312 L28.631348,0.444133118 Z M30.413348,4.43713312 L31.391348,4.24913312 C32.485348,4.03913312 32.908348,3.22813312 32.735348,2.32313312 C32.535348,1.28713312 31.837348,0.745133118 30.743348,0.955133118 L29.779348,1.14013312 L30.413348,4.43713312 Z" id="Fill-1167"></path>
                </g>
                <polygon id="Fill-1170" fill="#363D45" points="124.8344 162.031618 125.7884 161.746618 127.2654 166.690618 126.3124 166.976618"></polygon>
                <path d="M130.6528,161.486818 C130.8108,161.867818 131.3208,161.887818 132.0558,161.733818 C133.3108,161.467818 133.9898,161.641818 134.3298,162.458818 C134.6748,163.289818 134.1868,164.210818 133.0298,164.691818 C132.5588,164.885818 132.0778,164.958818 131.5858,164.907818 C131.0908,164.849818 130.6418,164.595818 130.2408,164.148818 L130.8458,163.298818 C131.3418,163.954818 131.9998,164.135818 132.7018,163.844818 C133.2738,163.607818 133.5538,163.227818 133.4098,162.879818 C133.2638,162.525818 132.9098,162.441818 132.0378,162.650818 C130.8438,162.948818 130.0718,162.685818 129.7298,161.861818 C129.4268,161.132818 129.8768,160.251818 130.9038,159.824818 C131.7488,159.473818 132.5958,159.608818 133.1748,160.254818 L132.5708,161.048818 C132.1948,160.566818 131.7338,160.438818 131.1898,160.664818 C130.7328,160.853818 130.5308,161.192818 130.6528,161.486818" id="Fill-1171" fill="#363D45"></path>
                <polygon id="Fill-1173" fill="#363D45" points="138.1886 159.806418 139.2436 161.605418 138.3846 162.109418 135.7756 157.657418 136.6336 157.154418 137.7326 159.030418 139.9286 157.744418 138.8276 155.867418 139.6866 155.364418 142.2966 159.816418 141.4376 160.319418 140.3826 158.519418"></polygon>
                <polygon id="Fill-1174" fill="#363D45" points="145.6135 150.987418 146.1795 151.716418 143.9015 153.487418 144.5915 154.372418 146.6935 152.737418 147.2605 153.465418 145.1565 155.101418 145.9415 156.108418 148.2765 154.292418 148.8435 155.020418 145.7205 157.448418 142.5485 153.371418"></polygon>
                <path d="M149.8477,149.035018 C150.1337,149.332018 150.6177,149.165018 151.2467,148.755018 C152.3197,148.052018 153.0147,147.967018 153.6277,148.605018 C154.2507,149.254018 154.1297,150.289018 153.2257,151.158018 C152.8587,151.511018 152.4367,151.752018 151.9597,151.883018 C151.4777,152.009018 150.9677,151.937018 150.4307,151.665018 L150.6867,150.652018 C151.3867,151.084018 152.0657,151.014018 152.6137,150.488018 C153.0607,150.059018 153.1847,149.602018 152.9247,149.331018 C152.6587,149.055018 152.2977,149.105018 151.5627,149.617018 C150.5577,150.326018 149.7427,150.362018 149.1247,149.719018 C148.5787,149.149018 148.6757,148.166018 149.4797,147.395018 C150.1387,146.761018 150.9767,146.580018 151.7517,146.971018 L151.4767,147.931018 C150.9507,147.618018 150.4757,147.665018 150.0507,148.074018 C149.6937,148.416018 149.6287,148.806018 149.8477,149.035018" id="Fill-1175" fill="#363D45"></path>
                <polygon id="Fill-1177" fill="#FFFFFF" points="168.9786 86.0388179 32.3316 103.268818 28.3546 71.7248179 165.0016 54.4948179"></polygon>
                <polygon id="Fill-1178" fill="#FFFFFF" points="170.0759 133.803518 31.4519 130.987518 32.1079 98.7095179 170.7319 101.524518"></polygon>
                <g id="Group-1183" transform="translate(35.499666, 75.008514)" fill="#363D45">
                    <path d="M9.73883421,16.3398042 C12.6448342,15.9728042 14.1438342,13.8998042 14.3458342,10.9708042 L18.1178342,11.9588042 C17.6458342,16.2838042 14.8498342,19.2908042 10.1608342,19.8828042 C4.71583421,20.5688042 0.725834206,17.2528042 0.0918342055,12.2228042 C-0.624165794,7.32680419 2.92683421,2.83580419 7.94483421,2.30180419 C12.4608342,1.73280419 15.6328342,3.86380419 16.7688342,6.96880419 L13.3828342,9.03380419 C12.5958342,6.72680419 10.6858342,5.55380419 8.31783421,5.85280419 C5.58283421,6.19780419 3.59883421,8.55680419 3.99883421,11.7298042 C4.40483421,14.9518042 7.00483421,16.6848042 9.73883421,16.3398042" id="Fill-1179"></path>
                    <path d="M31.3518342,16.9630042 C31.0738342,16.5270042 30.8658342,16.0560042 30.7278342,15.5540042 C30.5898342,15.0490042 30.4608342,14.2220042 30.3228342,13.1230042 C30.1098342,11.4390042 29.0958342,10.6750042 27.5078342,10.8740042 L24.3338342,11.2750042 L25.1498342,17.7450042 L21.2428342,18.2380042 L19.0878342,1.14600419 L27.6348342,0.0680041923 C31.2238342,-0.384995808 33.6398342,1.46800419 34.0038342,4.35000419 C34.1238342,5.30300419 33.9188342,6.24700419 33.4168342,7.17700419 C32.9148342,8.10900419 32.2068342,8.79200419 31.2758342,9.28200419 C32.7668342,9.49200419 34.0038342,10.6500042 34.3358342,12.4940042 C34.6428342,14.1420042 34.9788342,15.2400042 35.6978342,16.0180042 L35.7478342,16.4090042 L31.3518342,16.9630042 Z M28.4048342,7.16400419 C29.7968342,6.98900419 30.3818342,6.12100419 30.2498342,5.07100419 C30.1168342,4.02100419 29.3498342,3.44900419 27.9588342,3.62400419 L23.4418342,4.19300419 L23.8878342,7.73400419 L28.4048342,7.16400419 Z" id="Fill-1181"></path>
                </g>
                <polygon id="Fill-1184" fill="#363D45" points="84.7947 72.3452179 85.2417 75.8862179 75.9377 77.0592179 76.3237 80.1112179 84.8937 79.0312179 85.3397 82.5712179 76.7687 83.6512179 77.2007 87.0702179 86.7467 85.8662179 87.1937 89.4072179 73.7407 91.1032179 71.5857 74.0112179"></polygon>
                <path d="M92.9283,71.3195179 L98.5443,70.6115179 L107.4133,86.8575179 L103.1413,87.3955179 L101.3753,84.0215179 L93.5133,85.0125179 L92.6423,88.7195179 L88.3693,89.2585179 L92.9283,71.3195179 Z M99.6113,80.6475179 L96.1183,73.9935179 L94.3853,81.3065179 L99.6113,80.6475179 Z" id="Fill-1185" fill="#363D45"></path>
                <polygon id="Fill-1186" fill="#363D45" points="119.6744 71.5446179 113.8144 72.2826179 115.5234 85.8346179 111.6174 86.3266179 109.9084 72.7756179 104.0484 73.5146179 103.6014 69.9746179 119.2284 68.0036179"></polygon>
                <polygon id="Fill-1187" fill="#363D45" points="121.3314 67.7380179 125.2374 67.2450179 127.3934 84.3380179 123.4864 84.8300179"></polygon>
                <polygon id="Fill-1188" fill="#363D45" points="141.0127 65.2570179 145.2607 64.7210179 141.1167 82.6080179 135.4517 83.3220179 126.9967 67.0240179 131.2457 66.4880179 137.9047 79.9610179"></polygon>
                <polygon id="Fill-1189" fill="#363D45" points="160.231 62.8337179 160.677 66.3747179 151.374 67.5467179 151.76 70.5987179 160.329 69.5187179 160.776 73.0587179 152.205 74.1387179 152.637 77.5577179 162.183 76.3537179 162.63 79.8947179 149.177 81.5907179 147.022 64.4987179"></polygon>
                <polygon id="Fill-1190" fill="#363D45" points="51.7467 124.138718 47.1247 124.043718 42.5517 116.578718 40.0997 119.152718 40.0037 123.899718 36.0057 123.818718 36.3607 106.329718 40.3587 106.410718 40.2157 113.480718 46.7297 106.539718 51.7267 106.641718 45.2117 113.632718"></polygon>
                <polygon id="Fill-1191" fill="#363D45" points="53.9548 106.686318 57.9518 106.768318 57.5968 124.257318 53.5988 124.175318"></polygon>
                <polygon id="Fill-1192" fill="#363D45" points="76.0189 110.759518 70.0229 110.637518 69.7409 124.504518 65.7439 124.422518 66.0259 110.556518 60.0289 110.435518 60.1029 106.811518 76.0929 107.136518"></polygon>
                <path d="M85.6043,121.452518 C88.5773,121.512518 90.3893,119.649518 91.0233,116.738518 L94.6663,118.286518 C93.5553,122.562518 90.3023,125.171518 85.5053,125.074518 C79.9333,124.960518 76.4143,121.040518 76.5183,115.893518 C76.5203,110.869518 80.7503,106.880518 85.8713,107.085518 C90.4933,107.178518 93.3643,109.786518 94.0473,113.074518 L90.3413,114.649518 C89.8913,112.215518 88.1453,110.755518 85.7223,110.706518 C82.9233,110.649518 80.5823,112.727518 80.5163,115.974518 C80.4483,119.273518 82.8053,121.395518 85.6043,121.452518" id="Fill-1193" fill="#363D45"></path>
                <polygon id="Fill-1195" fill="#363D45" points="101.0179 118.390618 100.8799 125.136618 96.8829 125.055618 97.2379 107.565618 101.2359 107.647618 101.0909 114.767618 108.8359 114.925618 108.9809 107.804618 112.9779 107.885618 112.6229 125.375618 108.6259 125.294618 108.7629 118.548618"></polygon>
                <polygon id="Fill-1196" fill="#363D45" points="129.6973 108.225418 129.6233 111.848418 120.1043 111.655418 120.0413 114.777418 128.8113 114.956418 128.7383 118.578418 119.9683 118.400418 119.8963 121.898418 129.6663 122.097418 129.5923 125.720418 115.8253 125.440418 116.1813 107.950418"></polygon>
                <polygon id="Fill-1197" fill="#363D45" points="136.1416 125.852518 132.1446 125.771518 132.4996 108.282518 139.3456 108.421518 145.4406 123.367518 145.7416 108.551518 149.7386 108.632518 149.3836 126.121518 142.5386 125.983518 136.4436 111.036518"></polygon>
                <path d="M157.0683,113.530418 C157.0423,114.804418 158.4033,115.457418 160.6943,115.928418 C165.0993,116.843418 166.9723,118.131418 166.9063,121.403418 C166.8433,124.477418 164.0993,126.671418 159.6773,126.581418 C157.8533,126.544418 156.2383,126.111418 154.7803,125.281418 C153.3223,124.452418 152.2503,123.080418 151.5393,121.166418 L154.9543,119.111418 C155.6273,121.699418 157.4503,123.036418 159.8733,123.086418 C161.6723,123.122418 162.8843,122.522418 162.9063,121.447418 C162.9313,120.248418 162.1683,119.632418 159.0793,119.120418 C155.3923,118.520418 153.0043,116.722418 153.0713,113.399418 C153.1263,110.675418 155.6963,108.503418 159.6683,108.583418 C162.9913,108.651418 165.3853,110.200418 166.3253,113.093418 L163.0393,114.901418 C162.4553,112.890418 161.3493,111.993418 159.4743,111.955418 C158.0513,111.926418 157.0873,112.606418 157.0683,113.530418" id="Fill-1198" fill="#363D45"></path>
            </g>
        </g>
    </g>
</svg>