<?xml version="1.0" encoding="UTF-8"?>
<svg width="162px" height="160px" viewBox="0 0 162 160" version="1.1" xmlns="http://www.w3.org/2000/svg" xmlns:xlink="http://www.w3.org/1999/xlink">
    <title>sticker4</title>
    <g id="Page-1" stroke="none" stroke-width="1" fill="none" fill-rule="evenodd">
        <g id="Artboard-17-Copy" transform="translate(-1610.000000, -188.000000)">
            <g id="sticker4" transform="translate(1610.222746, 188.247800)">
                <g id="Group-1045" transform="translate(0.000000, 0.000000)">
                    <path d="M95.897854,91.233 C89.290854,99.767 77.013854,101.329 68.478854,94.722 C59.945854,88.114 58.382854,75.838 64.990854,67.303 C71.597854,58.768 83.873854,57.206 92.408854,63.814 C100.943854,70.422 102.505854,82.698 95.897854,91.233 M148.411854,36.234 C135.758854,16.249 115.754854,3.743 94.148854,0 C94.054854,0.803 93.895854,1.614 93.628854,2.424 C92.320854,6.397 89.242854,9.174 85.903854,9.84 C86.981854,12.994 86.991854,16.222 85.900854,19.53 C84.566854,23.579 82.071854,26.573 78.414854,28.513 C74.955854,30.352 71.385854,30.72 67.706854,29.622 C67.765854,32.389 67.727854,36.459 66.809854,39.299 C65.435854,43.547 63.436854,46.669 57.939854,50.292 C52.784854,53.69 47.696854,53.415 41.950854,51.916 C36.009854,50.367 32.706854,48.169 29.334854,42.922 C29.094854,42.551 28.950854,42.125 28.759854,41.724 C24.836854,45.796 22.953854,46.459 20.465854,47.544 C17.484854,48.845 13.759854,48.417 10.697854,47.412 C9.44585401,47.001 8.33685401,46.419 7.35785401,45.683 C-3.60714599,69.605 -2.64914599,98.411 12.475854,122.303 C36.242854,159.841 85.940854,171.003 123.478854,147.236 C161.016854,123.469 172.178854,73.772 148.411854,36.234" id="Fill-1037" fill="#FF5D38"></path>
                    <path d="M32.346254,67.7102 C32.013254,69.0932 30.665254,69.9222 29.283254,69.5912 C27.922254,69.2672 27.118254,67.9252 27.450254,66.5432 C27.776254,65.1822 29.097254,64.3712 30.458254,64.6962 C31.840254,65.0252 32.672254,66.3502 32.346254,67.7102" id="Fill-1039" fill="#FFE600"></path>
                    <path d="M37.481954,78.4317 L38.648954,86.7407 C39.089954,89.8797 37.740954,92.1627 35.224954,92.5127 C33.469954,92.7577 32.123954,92.0507 31.156954,90.3717 C30.867954,92.4847 29.720954,93.8677 27.804954,94.1347 C24.942954,94.5327 22.999954,92.6147 22.507954,89.1057 L21.322954,80.6807 L37.481954,78.4317 Z M25.886954,88.8717 C26.046954,90.0017 26.768954,90.6307 27.762954,90.4927 C28.755954,90.3537 29.277954,89.5517 29.118954,88.4217 L28.420954,83.4577 L25.189954,83.9077 L25.886954,88.8717 Z M32.400954,87.4937 C32.559954,88.6237 33.198954,89.1477 34.144954,89.0157 C34.976954,88.9007 35.441954,88.1987 35.285954,87.0917 L34.652954,82.5907 L31.767954,82.9917 L32.400954,87.4937 Z" id="Fill-1041" fill="#FFE600"></path>
                    <path d="M44.345254,115.9091 C40.702254,118.6251 35.138254,117.6461 32.514254,113.7641 C29.702254,110.0181 30.586254,104.4341 34.339254,101.8681 C37.982254,99.1521 43.528254,100.1451 46.170254,104.0131 C48.964254,107.7731 48.098254,113.3431 44.345254,115.9091 M42.182254,112.8731 C44.610254,111.1401 44.908254,108.2641 43.325254,106.0441 C41.743254,103.8241 38.929254,103.1701 36.502254,104.9041 C34.074254,106.6371 33.777254,109.5131 35.358254,111.7331 C36.941254,113.9531 39.755254,114.6061 42.182254,112.8731" id="Fill-1043" fill="#FFE600"></path>
                </g>
                <polygon id="Fill-1046" fill="#FFE600" points="58.995354 116.1593 53.044354 127.6443 61.180354 131.8543 59.624354 134.8543 48.177354 128.9313 55.684354 114.4453"></polygon>
                <g id="Group-1053" transform="translate(71.532654, 105.371946)" fill="#FFE600">
                    <path d="M0.547,16.4200543 L6.95,16.6290543 C12.468,16.8090543 15.574,20.1530543 15.404,25.1830543 C15.249,29.8870543 11.9,33.1130543 6.521,32.9370543 L0,32.7250543 L0.547,16.4200543 Z M3.84,29.4680543 L6.519,29.5570543 C9.871,29.6650543 11.586,27.8790543 11.68,25.0610543 C11.784,21.9630543 10.144,20.1150543 6.721,20.0030543 L4.159,19.9190543 L3.84,29.4680543 Z" id="Fill-1047"></path>
                    <path d="M26.4038,20.6531543 C27.7378,20.1621543 29.1738,20.8261543 29.6638,22.1601543 C30.1468,23.4711543 29.4758,24.8861543 28.1418,25.3771543 C26.8308,25.8591543 25.4248,25.2101543 24.9418,23.8981543 C24.4508,22.5631543 25.0918,21.1351543 26.4038,20.6531543" id="Fill-1049"></path>
                    <path d="M35.7501,8.16345434 L41.4841,2.04045434 C43.6501,-0.272545661 46.2761,-0.656545661 48.1301,1.08045434 C49.4221,2.29045434 49.7171,3.78145434 49.0201,5.58445434 C50.8461,4.48645434 52.6441,4.50945434 54.0561,5.83145434 C56.1651,7.80645434 55.8911,10.5194543 53.4701,13.1054543 L47.6571,19.3124543 L35.7501,8.16345434 Z M45.9971,6.42645434 C46.7771,5.59245434 46.7831,4.76745434 46.0861,4.11445434 C45.4731,3.54045434 44.6351,3.61845434 43.8711,4.43545434 L40.7651,7.75245434 L42.8911,9.74145434 L45.9971,6.42645434 Z M51.1631,10.6244543 C51.9441,9.79045434 51.9781,8.83345434 51.2461,8.14945434 C50.5161,7.46545434 49.5621,7.56145434 48.7831,8.39445434 L45.3571,12.0524543 L47.7381,14.2814543 L51.1631,10.6244543 Z" id="Fill-1051"></path>
                </g>
                <polygon id="Fill-1054" fill="#FFE600" points="119.681154 97.0628 121.083154 93.6068 136.211154 99.7218 134.808154 103.1778"></polygon>
                <polygon id="Fill-1055" fill="#FFE600" points="127.128254 73.5074 126.931254 79.0954 139.859254 79.5634 139.726254 83.2884 126.799254 82.8224 126.600254 88.4094 123.224254 88.2874 123.752254 73.3844"></polygon>
                <polygon id="Fill-1056" fill="#FFE600" points="117.689854 56.8116 120.806854 55.5056 124.231854 63.6986 126.918854 62.5726 123.763854 55.0256 126.880854 53.7186 130.035854 61.2666 133.044854 60.0056 129.529854 51.5976 132.646854 50.2916 137.600854 62.1396 122.552854 68.4446"></polygon>
                <path d="M114.212954,45.9392 C115.011954,45.0602 114.454954,43.7672 113.135954,42.0322 C110.600954,38.6882 110.074954,36.6342 112.129954,34.3762 C114.057954,32.2572 117.329954,32.3982 120.380954,35.1722 C121.637954,36.3162 122.508954,37.6122 123.023954,39.0882 C123.538954,40.5652 123.451954,42.1862 122.776954,43.9662 L119.116954,43.3152 C120.231954,41.0842 119.771954,39.0282 118.099954,37.5072 C116.858954,36.3792 115.640954,36.0582 114.965954,36.7982 C114.212954,37.6262 114.371954,38.5252 116.226954,40.7802 C118.448954,43.4622 119.023954,46.1892 116.938954,48.4822 C115.228954,50.3612 112.092954,50.3122 109.351954,47.8192 C107.059954,45.7342 106.328954,43.1792 107.441954,40.5692 L110.857954,41.3152 C110.034954,43.0862 110.261954,44.3952 111.554954,45.5702 C112.537954,46.4642 113.630954,46.5772 114.212954,45.9392" id="Fill-1057" fill="#FFE600"></path>
                <path d="M98.980954,32.9779 C97.657954,32.4569 97.025954,31.0059 97.544954,29.6819 C98.055954,28.3799 99.496954,27.7699 100.819954,28.2899 C102.121954,28.8029 102.740954,30.2249 102.228954,31.5259 C101.709954,32.8499 100.281954,33.4899 98.980954,32.9779" id="Fill-1059" fill="#FFE600"></path>
            </g>
        </g>
    </g>
</svg>