<svg width="124" height="110" viewBox="0 0 124 110" xmlns="http://www.w3.org/2000/svg" xmlns:xlink="http://www.w3.org/1999/xlink"><title>Logo full Copy</title><defs><path id="a" d="M.935.485h8.037v9.413H.935z"></path></defs><g fill="none" fill-rule="evenodd"><g transform="translate(19.077 .563)"><mask id="b" fill="#fff"><use xlink:href="#a"></use></mask><path d="M5.53 9.898c1.366 0 2.682-.706 3.442-1.7V4.21H5.175v1.243h2.531v2.353c-.468.484-1.24.85-2.177.85-1.885 0-3.327-1.4-3.327-3.464 0-1.974 1.404-3.465 3.214-3.465.949 0 1.873.446 2.392 1.032l.847-.862C7.883 1.02 6.68.485 5.416.485 2.86.485.936 2.55.936 5.192c0 2.706 1.948 4.706 4.593 4.706" fill="#FFF" mask="url(#b)"></path></g><path d="M34.11 6.015h1.011l3.151 4.314h1.532l-3.177-4.366a2.1 2.1 0 0 0 1.038-.483 2.452 2.452 0 0 0 .873-1.883c0-.76-.34-1.439-.873-1.882-.405-.34-.91-.537-1.721-.537h-3.1v9.151h1.265V6.015zm0-3.594h1.77c.57 0 .862.13 1.064.34.202.208.329.51.329.836 0 .326-.127.628-.329.837-.202.209-.494.34-1.064.34h-1.77V2.42zM43.721 1.178v9.152h5.19V9.087h-3.924V6.016h2.91V4.774h-2.91V2.42h3.796V1.178zM53.443 1.178v9.152h5.188V9.087h-3.923V6.016h2.91V4.774h-2.91V2.42h3.796V1.178zM69.25 1.178v6.72l-5.315-6.72h-.886v9.152h1.265V3.61l5.316 6.72h.885V1.178zM85.092 1.178l-1.986 6.628-2.165-6.628h-.885l-2.164 6.628-1.987-6.628h-1.29l2.784 9.15h.885l2.215-6.77 2.213 6.77h.887l2.785-9.15zM90.483 10.33h1.265V1.18h-1.265zM100.757 9.218c-1.886 0-3.328-1.398-3.328-3.464 0-1.974 1.404-3.465 3.213-3.465.95 0 1.873.445 2.391 1.033l.85-.863c-.772-.876-1.975-1.411-3.24-1.411-2.556 0-4.48 2.065-4.48 4.706 0 2.706 1.949 4.706 4.594 4.706 1.366 0 2.682-.693 3.441-1.699l-.899-.838c-.492.615-1.353 1.295-2.542 1.295M114.565 1.179v3.595h-4.936V1.18h-1.266v9.15h1.266V6.016h4.936v4.313h1.265v-9.15zM34.106 21.391h2.089c.86 0 1.417-.222 1.847-.601a2.59 2.59 0 0 0 .873-1.948c0-.785-.342-1.477-.873-1.948-.43-.38-.988-.602-1.847-.602H32.84v9.151h1.266v-4.052zm0-3.857h2.024c.608 0 .937.158 1.165.405.215.237.354.55.354.903s-.139.666-.354.902c-.228.248-.557.406-1.165.406h-2.024v-2.616zM48.907 24.202h-3.923V21.13h2.91v-1.243h-2.91v-2.354h3.796v-1.241h-5.062v9.152h5.189zM59.64 23.012l-5.315-6.72h-.885v9.152h1.264v-6.72l5.315 6.72h.886v-9.151H59.64zM65.876 25.445h1.265v-9.152h-1.265zM78.453 23.012l-5.315-6.72h-.885v9.152h1.265v-6.72l5.315 6.72h.886v-9.151h-1.266z" fill="#FFF"></path><g fill="#FFF"><path d="M88.766 20.83c-1.14-.785-3.024-1.034-3.024-2.198 0-.797.733-1.229 1.468-1.229.556 0 1.101.209 1.581.628l.747-.953c-.47-.406-1.253-.916-2.379-.916-1.544 0-2.684 1.098-2.684 2.432 0 .954.494 1.581 1.128 2.012 1.175.798 3.048.954 3.048 2.354 0 .823-.72 1.372-1.543 1.372-.911 0-1.645-.522-2.164-1.176l-.872.888c.784.98 1.885 1.53 3.1 1.53 1.543 0 2.746-1.046 2.746-2.654 0-1.045-.558-1.685-1.152-2.09M100.217 21.718c0 .863-.202 1.398-.557 1.804-.442.51-1.1.81-1.848.81-.746 0-1.404-.3-1.847-.81-.354-.406-.557-.94-.557-1.804v-5.426h-1.265v5.36c0 1.23.354 2.08.924 2.72a3.678 3.678 0 0 0 2.745 1.203 3.678 3.678 0 0 0 2.746-1.204c.57-.64.925-1.49.925-2.718v-5.36h-1.266v5.425z"></path></g><path fill="#FFF" d="M107.673 16.293h-1.265v9.15h5.187v-1.24h-3.922zM119.048 16.293l-3.67 9.15h1.317l.923-2.352h3.733l.935 2.352h1.317l-3.67-9.15h-.885zm.443 2.157l1.366 3.4h-2.732l1.366-3.4zM1.076 62.942l.686.969 1.543.175-1.287-1.82zM3.127 61.472l1.995 2.82 1.543.173-2.596-3.669zM5.178 60.002l3.305 4.668 1.544.175-3.907-5.518zM13.383 54.123l8.541 12.066 1.544.175-9.143-12.917zM24.774 63.841l-8.397-11.864-.943.676 8.88 12.543zM25.779 60.892l-7.351-10.385-.943.676 7.833 11.064zM29.796 49.097l-3.163-4.47-.943.676 3.645 5.148zM31.587 43.838l-.7 2.056 3.403-3.984-.526-.62z"></path><path fill="#FFF" d="M23.64 46.773l4.69 6.627.101-.295 7.702-9.019-.526-.62-6.476 7.585-.34.995-4.21-5.948zM39.819 48.44l-.526-.62-15.075 17.653-.32.94.524.058zM33.598 67.495l.963.108 10.787-12.632-.525-.62zM47.191 57.148l-.525-.62-9.688 11.344.963.108zM40.357 68.25l.964.108 7.713-9.034-.524-.62zM44.7 68.735l6.177-7.234-.525-.62-6.615 7.746zM48.08 69.113l4.64-5.434-.525-.62-5.078 5.946zM50.497 69.382l.963.108 3.103-3.635-.524-.62zM56.407 68.032l-.526-.62-2.004 2.348.963.107zM57.257 70.137l.963.108.03-.036-.525-.62zM2.444 107.885l.443-.296 1.952-7.557-.743 1.455zM11.065 87.827l-4.464 17.284.443-.296 4.764-18.443zM16.973 78.305l-6.205 24.026.443-.295 6.062-23.473zM19.795 80.73l-4.86 18.822.442-.296 4.718-18.267zM19.1 96.773l.443-.296 3.374-13.062-.3-.258zM23.266 93.993l.443-.295 2.03-7.857-.301-.258zM27.432 91.214l.443-.296.685-2.651-.3-.258zM0 109.515l.323-.635-.323-.574zM0 103.163l1.701 3.018.329-.643L0 101.936zM0 96.793l3.407 6.046.328-.644L0 95.566zM0 90.423l5.113 9.072.328-.644L0 89.196zM0 84.053l6.818 12.099.328-.643L0 82.826zM0 77.682L8.523 92.81l.329-.644L0 76.456zM0 71.312l10.23 18.154.328-.644L0 70.086zM0 64.942l11.935 21.181.328-.644L0 63.716zM8.337 70.88l.22-1.11-2.094-.5-.845-.728 8.023 14.238.328-.644-7.01-12.441-.035-.03.258.223.88.21-.093.466zM15.675 78.793l-1.753-3.112-1.341-1.152 2.765 4.907z"></path><g fill="#FFF"><path d="M18.362 31.038c1.978 0 3.817-.63 5.338-1.705l-1.627-1.935a6.799 6.799 0 0 1-3.711 1.102c-3.862 0-7.005-3.241-7.005-7.224a7.33 7.33 0 0 1 1.651-4.653l-1.627-1.934a9.891 9.891 0 0 0-2.487 6.587c0 5.382 4.248 9.762 9.468 9.762"></path><path d="M18.362 23.891c.235 0 .462-.035.678-.097l-3-3.568a2.661 2.661 0 0 0-.216 1.05c0 1.442 1.139 2.615 2.538 2.615"></path><path d="M18.362 27.465c1.11 0 2.151-.314 3.045-.86l-1.66-1.97a3.432 3.432 0 0 1-1.385.292c-1.952 0-3.54-1.638-3.54-3.651 0-.69.19-1.334.514-1.885l-1.66-1.976a6.28 6.28 0 0 0-1.316 3.86c0 3.414 2.692 6.19 6.002 6.19"></path><path d="M18.362 34.612a12.6 12.6 0 0 0 7.618-2.569l-1.62-1.925a10.191 10.191 0 0 1-5.998 1.956c-5.773 0-10.47-4.845-10.47-10.798 0-2.848 1.076-5.44 2.83-7.371l-1.62-1.926a13.505 13.505 0 0 0-3.672 9.297c0 7.353 5.801 13.336 12.932 13.336"></path></g><path fill="#FFF" d="M3.746 66.934l.368.315.598-3.008-.42-.047zM19.611 80.573l.253-1.273-2.4-.573.72.618 1.184.283-.125.63zM7.653 66.112l.3-1.508-.421-.047-.374 1.884 4.72 1.127-.976 4.902 4.72 1.127-.601 3.03.367.315.73-3.673-4.72-1.127.975-4.902zM29.187 88.806l1.358.325.486-.331-2.565-.613z"></path><path d="M31.242 80.272l-4.72-1.128.975-4.903-4.721-1.127.974-4.903-4.72-1.129.237-1.193.84.095-7.833-11.067 2.148-1.539 11.135-13.173 1.042-.002-9.54 11.286 2.478-1.776 6.784 9.586-.346 1.018 12.001-14.054-.526-.62L26.675 58.26l.108-.317-6.304-8.906 1.109-.795 5.738 8.107.46-1.355-5.256-7.427 1.723-1.235 5.188-6.138 1.043-.002-3.593 4.25.851-.61 2.597 3.67.462-1.355-2.116-2.99 1.108-.794 1.55 2.19.462-1.355-1.07-1.51 1.11-.795.503.711.483-1.418-6.19-7.36c-2.318 1.77-5.181 2.82-8.28 2.82-7.683 0-13.934-6.447-13.934-14.372 0-3.923 1.535-7.484 4.015-10.08L.007 1.168 0 40.213v2.709l2.247-2.66 1.043-.002L0 44.152v3.357l6.132-7.256 1.043-.002L0 48.739v3.356l10.018-11.852 1.042-.003L0 53.325v3.356l13.902-16.447 1.043-.003L0 57.91v3.356l17.787-21.042 1.043-.004L0 62.498v1.214l4.59-3.288 17.083-20.21 1.042-.002L7.228 58.534l.001-.001 4.614 6.518 1.544.174-5.215-7.368 1.108-.794 5.924 8.367.403.045-.889 4.466 4.72 1.128-.974 4.902 4.721 1.128-.976 4.904 4.722 1.127-.634 3.19.366.317.764-3.835-4.722-1.128.975-4.903-4.72-1.127.975-4.904-4.72-1.128.813-4.088.719.08-6.525-9.217 2.007-1.437-.897.642 7.232 10.218.282.032-.311 1.57 4.72 1.127-.975 4.903L27 74.57l-.975 4.903 4.721 1.128-.974 4.904 4.516 1.078.485-.33-4.506-1.077.975-4.904z" fill="#FFF"></path><path fill="#FFF" d="M35.058 77.742l-4.72-1.128.975-4.903-4.722-1.127.754-3.787.456.051 13.86-16.23-.524-.62-14.3 16.742.087.01-.828 4.163 4.72 1.127-.974 4.903 4.721 1.128-.975 4.904 4.443 1.06.485-.33-4.433-1.059z"></path><path fill="#FFF" d="M38.874 75.213l-4.72-1.128.975-4.903-4.722-1.128.178-.894.596.066 12.325-14.432-.526-.62-12.75 14.93-.062-.006-.256 1.285 4.72 1.127-.974 4.903 4.721 1.129-.975 4.904 4.37 1.043.485-.331-4.36-1.041z"></path><path fill="#FFF" d="M42.69 72.683l-4.721-1.127.697-3.505-.42-.048-.772 3.88 4.72 1.129-.974 4.904 4.297 1.026.485-.33-4.287-1.025zM46.506 70.154l-4.72-1.129.12-.61-.42-.048-.196.987 4.72 1.129-.974 4.903 4.223 1.01.486-.332-4.214-1.006zM49.985 69.32l-.42-.046-.713 3.582 4.15.992.487-.33-4.141-.99zM53.226 69.684l-.421-.047-.137.69 4.076.974.487-.331-4.068-.971z"></path></g></svg>
