<?xml version="1.0" encoding="UTF-8"?>
<svg width="749px" height="136px" viewBox="0 0 749 136" version="1.1" xmlns="http://www.w3.org/2000/svg" xmlns:xlink="http://www.w3.org/1999/xlink">
    <!-- Generator: Sketch 54.1 (76490) - https://sketchapp.com -->
    <title>logo-hor</title>
    <desc>Created with Sketch.</desc>
    <g id="logo-hor" stroke="none" stroke-width="1" fill="none" fill-rule="evenodd">
        <g id="Group" fill="#000000">
            <path d="M409.070428,34.5537972 L409.070428,47.2169731 L367.931585,47.2169731 L367.931585,34.5537972 C367.931585,22.3595532 375.97434,14.78101 388.917237,14.78101 C402.837545,14.78101 409.070428,24.7112714 409.070428,34.5537972 M359,34.5537972 L359,57 L418,57 L418,34.5537972 C418,16.5982468 406.587139,5 388.917237,5 C370.464197,5 359,16.32193 359,34.5537972" id="Fill-177" transform="translate(388.500000, 31.000000) rotate(-270.000000) translate(-388.500000, -31.000000) "></path>
            <polygon id="Fill-179" transform="translate(74.000000, 68.500000) rotate(-270.000000) translate(-74.000000, -68.500000) " points="7 142 141 142 141 62.0524557 73.9984971 -5 7 62.0524557"></polygon>
            <polygon id="Fill-181" transform="translate(539.500000, 31.000000) rotate(-270.000000) translate(-539.500000, -31.000000) " points="510 36 569 36 569 26 510 26"></polygon>
            <polygon id="Fill-183" transform="translate(224.000000, 68.500000) rotate(-270.000000) translate(-224.000000, -68.500000) " points="157 142 291 142 291 62.0519103 223.998497 -5 157 62.0519103"></polygon>
            <polygon id="Fill-184" transform="translate(444.500000, 31.000000) rotate(-270.000000) translate(-444.500000, -31.000000) " points="464.653854 9 464.653854 43.2278168 448.130754 43.2278168 448.130754 12.3403062 438.783601 12.3403062 438.783601 43.2278168 424.349166 43.2278168 424.349166 9.83683885 415 9.83683885 415 53 474 53 474 9"></polygon>
            <path d="M519.753762,28.8082786 C519.753762,37.696307 514.705563,43.709208 505.540957,45.7454653 L511.054056,55 C517.662209,52.9048221 522.222611,49.5034036 525.005044,44.5940162 C527.693899,39.6247096 529,34.4896262 529,28.8921657 C529,15.6280316 521.590466,6 511.379586,6 C502.28566,6 496.815367,12.4133616 494.172305,26.1868096 C492.194239,36.4100395 489.442667,40.7711654 484.970865,40.7711654 C481.009756,40.7711654 478.245242,36.6337382 478.245242,30.7157095 C478.245242,23.807015 481.734483,19.325052 488.338654,17.7521705 L483.218779,8.5006318 C474.4464,11.6783516 469,19.8703175 469,29.8858273 C469,41.6140301 475.89884,50.4621123 485.052496,50.4621123 C494.82436,50.4621123 500.526605,43.8060775 502.99844,29.5223169 C504.963565,17.6962459 508.544391,16.1053887 511.791724,16.1053887 C516.553218,16.1053887 519.753762,21.211511 519.753762,28.8082786" id="Fill-185" transform="translate(499.000000, 30.500000) rotate(-270.000000) translate(-499.000000, -30.500000) "></path>
            <path d="M409.067561,109.553797 L409.067561,122.216973 L367.930426,122.216973 L367.930426,109.553797 C367.930426,97.3595532 375.973044,89.78101 388.917733,89.78101 C402.837803,89.78101 409.067561,99.7112714 409.067561,109.553797 M359,109.553797 L359,132 L418,132 L418,109.553797 C418,91.5982468 406.585321,80 388.917733,80 C370.460982,80 359,91.32193 359,109.553797" id="Fill-186" transform="translate(388.500000, 106.000000) rotate(-270.000000) translate(-388.500000, -106.000000) "></path>
            <polygon id="Fill-187" transform="translate(650.500000, 30.500000) rotate(-270.000000) translate(-650.500000, -30.500000) " points="680 20.4375321 680 4 621 4 621 13.7836691 671.92302 13.7836691 621.155017 40.4787778 621 40.5624679 621 57 680 57 680 47.2163309 629.163547 47.2163309 679.84599 20.5212222"></polygon>
            <path d="M681.047435,91.362649 C684.44033,94.8279545 686.163153,99.5800899 686.163153,105.483024 C686.163153,117.307759 677.854589,124.946325 665.001597,124.946325 C652.540742,124.946325 643.839045,116.944349 643.839045,105.483024 C643.839045,96.407697 649.304105,89.8980857 658.459648,88.0691193 L654.615893,79.2728036 C645.136885,81.6736943 635.006967,89.8196447 635.006967,105.477067 C635.001991,105.678631 635,105.878208 635,106.0758 C635,113.762027 637.984832,120.960727 643.438944,126.404931 C649.152823,132.108288 656.813462,135.157558 664.998611,134.993725 C673.515187,135.078124 681.270376,132.05467 686.834964,126.4794 C692.108931,121.191086 694.997221,113.917916 694.997221,105.954663 C695.165423,92.0497525 687.68692,81.2268784 675.305688,77 L671.881939,85.6722002 C675.418154,86.8200206 678.438816,88.6976403 681.047435,91.362649" id="Fill-188" transform="translate(665.000000, 106.000000) rotate(-270.000000) translate(-665.000000, -106.000000) "></path>
            <polygon id="Fill-189" transform="translate(428.500000, 106.000000) rotate(-270.000000) translate(-428.500000, -106.000000) " points="399 111 458 111 458 101 399 101"></polygon>
            <polygon id="Fill-190" transform="translate(619.500000, 106.000000) rotate(-270.000000) translate(-619.500000, -106.000000) " points="590 111 649 111 649 101 590 101"></polygon>
            <polygon id="Fill-191" transform="translate(722.500000, 106.000000) rotate(-270.000000) translate(-722.500000, -106.000000) " points="693 132 702.347153 132 702.347153 110.852273 752 110.852273 752 101.147727 702.347153 101.147727 702.347153 80 693 80"></polygon>
            <polygon id="Fill-192" transform="translate(521.500000, 106.000000) rotate(-270.000000) translate(-521.500000, -106.000000) " points="501.347153 132 501.347153 110.852273 551 110.852273 551 101.147727 501.347153 101.147727 501.347153 80 492 80 492 132"></polygon>
            <path d="M590.305287,36.1203349 L590.305287,13.8314875 C597.055673,15.2056149 603.751315,20.779076 603.751315,30.2980318 C603.751315,41.6498239 595.023191,49.8895919 582.999502,49.8895919 C571.1709,49.8895919 562.24769,41.5358962 562.24769,30.4619278 C562.24769,20.997937 566.617226,14.8838193 574.811848,12.5712876 L570.811582,3.32915604 C565.932433,5.10302969 561.823676,7.9802028 558.678406,12.0566144 C554.912045,16.8455736 553.004977,23.1185905 553.004977,30.7047736 C553,30.9016486 553,31.0995229 553,31.3003954 C553,38.8206203 555.900416,45.8841353 561.208557,51.2397346 C566.924786,57.0140682 574.663542,60.1230941 582.999502,59.9961746 C591.544483,60.1230941 599.336988,57.0880212 604.947712,51.4506008 C610.149351,46.2249189 613,39.1843893 613,31.5872132 C613,31.4323116 612.997014,31.2794087 612.995023,31.1235077 C612.995023,21.588562 608.901196,14.6169887 600.823029,10.3716843 L612.169888,10.3716843 L612.169888,2 L581.058592,2 L581.058592,36.1203349 L590.305287,36.1203349 Z" id="Fill-193" transform="translate(583.000000, 31.000000) rotate(-270.000000) translate(-583.000000, -31.000000) "></path>
            <path d="M463.174136,101.184165 C461.197,111.406562 458.444341,115.767332 453.973386,115.767332 C450.012146,115.767332 447.244554,111.631241 447.244554,105.710699 C447.244554,98.8105563 450.735901,94.3259629 457.341287,92.7532097 L452.221241,83.500428 C443.448572,86.6768902 438,94.871184 438,104.882882 C438,116.613124 444.900065,125.457489 454.05502,125.457489 C463.826212,125.457489 469.528647,118.807989 472.000564,104.519401 C473.965754,92.6952924 477.546699,91.1035663 480.79414,91.1035663 C485.554796,91.1035663 488.756442,96.2092725 488.756442,103.805421 C488.756442,112.689729 483.708075,118.708131 474.543165,120.741227 L480.058438,130 C486.665815,127.9 491.224377,124.498859 494.007898,119.592867 C496.694851,114.623966 498,109.489301 498,103.892297 C498,90.6272468 490.593207,81 480.380992,81 C471.28776,81 465.819277,87.4148359 463.174136,101.184165" id="Fill-194" transform="translate(468.000000, 105.500000) rotate(-270.000000) translate(-468.000000, -105.500000) "></path>
            <path d="M576.441788,121.251547 L560.344752,121.251547 L560.344752,103.63823 C560.344752,97.4701037 563.281271,93.9319698 568.395785,93.9319698 C573.510299,93.9319698 576.441788,97.4701037 576.441788,103.63823 L576.441788,121.251547 Z M567.236871,83.7696295 L567.241901,83.7746524 C567.208703,83.7746524 567.177517,83.7696295 567.141301,83.7696295 C557.485694,83.7696295 551,91.419513 551,102.803424 L551,131 L609.975856,131 L609.975856,121.251547 L585.78654,121.251547 L585.78654,109.935948 L610,92.903279 L610,81 L585.231227,98.6344129 C583.396279,89.5560154 577.030299,83.7696295 567.236871,83.7696295 L567.236871,83.7696295 Z" id="Fill-195" transform="translate(580.500000, 106.000000) rotate(-270.000000) translate(-580.500000, -106.000000) "></path>
        </g>
    </g>
</svg>