<?xml version="1.0" encoding="UTF-8"?>
<svg width="649px" height="453px" viewBox="0 0 649 453" version="1.1" xmlns="http://www.w3.org/2000/svg" xmlns:xlink="http://www.w3.org/1999/xlink">
    <title>Fill 124</title>
    <g id="Page-1" stroke="none" stroke-width="1" fill="none" fill-rule="evenodd">
        <g id="Artboard-7" transform="translate(-862.000000, -342.000000)" fill="#FFFFFF">
            <path d="M974.4074,738.82 L989.0484,744.786 C982.5434,773.527 960.3084,794.495 926.1434,794.495 C888.1804,794.858 862.3324,766.296 862.8744,729.42 C862.3324,693.085 890.5314,663.62 926.1434,664.344 C941.5074,664.344 953.9804,668.321 963.2004,676.274 C972.6004,684.229 978.9254,694.352 982.1794,706.462 L966.9964,713.331 C962.6584,693.085 948.3764,679.528 926.1434,679.528 C900.2924,679.528 880.2274,699.051 880.2274,729.42 C880.2274,760.872 899.3894,779.312 926.1434,779.312 C940.0624,779.312 950.9074,775.696 958.6804,768.285 C966.4544,760.872 971.6954,750.93 974.4074,738.82 L974.4074,738.82 Z M1479.8954,705.197 C1467.7854,705.197 1457.6624,710.982 1451.6964,720.923 L1451.6964,707.004 L1436.1504,707.004 L1436.1504,792.688 L1451.6964,792.688 L1451.6964,745.689 C1451.6964,729.239 1461.8194,718.935 1474.8354,718.935 C1487.1264,718.935 1494.3564,726.708 1494.3564,741.713 L1494.3564,792.688 L1510.0844,792.688 L1510.0844,737.011 C1510.0844,716.946 1498.1544,705.197 1479.8954,705.197 L1479.8954,705.197 Z M1134.4294,705.197 C1122.3174,705.197 1112.1944,710.982 1106.2284,720.923 L1106.2284,707.004 L1090.6844,707.004 L1090.6844,792.688 L1106.2284,792.688 L1106.2284,745.689 C1106.2284,729.239 1116.3514,718.935 1129.3674,718.935 C1141.6604,718.935 1148.8904,726.708 1148.8904,741.713 L1148.8904,792.688 L1164.6174,792.688 L1164.6174,737.011 C1164.6174,716.946 1152.6864,705.197 1134.4294,705.197 L1134.4294,705.197 Z M1317.3904,761.597 L1330.9484,766.838 C1325.1634,784.192 1312.3284,794.495 1292.6264,794.495 C1267.4984,794.495 1249.4224,776.961 1249.4224,749.304 C1249.4224,724.721 1265.8724,705.197 1290.2754,705.197 C1301.6634,705.197 1310.8824,708.451 1317.9324,715.14 C1324.9824,721.647 1328.4164,730.504 1328.4164,741.713 C1328.4164,745.508 1328.0554,748.943 1327.3324,752.197 L1265.3284,752.197 C1265.5094,770.815 1277.4404,780.757 1292.6264,780.757 C1305.8204,780.757 1313.9564,773.888 1317.3904,761.597 L1317.3904,761.597 Z M1265.3284,740.988 L1312.8724,740.988 L1313.0524,738.459 C1313.0524,726.166 1303.1104,718.935 1290.0954,718.935 C1276.8994,718.935 1266.9564,727.43 1265.3284,740.988 L1265.3284,740.988 Z M1408.1514,761.597 L1421.7084,766.838 C1415.9254,784.192 1403.0904,794.495 1383.3874,794.495 C1358.2594,794.495 1340.1834,776.961 1340.1834,749.304 C1340.1834,724.721 1356.6334,705.197 1381.0364,705.197 C1392.4244,705.197 1401.6434,708.451 1408.6934,715.14 C1415.7434,721.647 1419.1774,730.504 1419.1774,741.713 C1419.1774,745.508 1418.8164,748.943 1418.0934,752.197 L1356.0914,752.197 C1356.2724,770.815 1368.2014,780.757 1383.3874,780.757 C1396.5834,780.757 1404.7164,773.888 1408.1514,761.597 L1408.1514,761.597 Z M1356.0914,740.988 L1403.6324,740.988 L1403.8134,738.459 C1403.8134,726.166 1393.8714,718.935 1380.8554,718.935 C1367.6594,718.935 1357.7174,727.43 1356.0914,740.988 L1356.0914,740.988 Z M1215.7024,780.757 C1209.0144,780.757 1203.9544,776.058 1203.9544,767.922 L1203.9544,720.2 L1234.6844,720.2 L1234.6844,707.004 L1203.9544,707.004 L1203.9544,680.431 L1188.2264,680.431 L1188.2264,707.004 L1174.9214,707.004 L1174.9214,720.2 L1188.2264,720.2 L1188.2264,767.2 C1188.2264,784.372 1198.1694,794.495 1216.2444,794.495 C1230.8884,794.495 1240.6484,786 1242.9984,770.634 L1228.5374,767.38 C1227.0904,776.78 1222.9334,780.757 1215.7024,780.757 L1215.7024,780.757 Z M1072.2374,739.001 L1072.2374,792.688 L1057.2344,792.688 L1057.2344,779.131 C1052.8944,788.351 1041.5074,794.495 1027.7694,794.495 C1019.8164,794.495 1013.1274,792.147 1007.5234,787.445 C1002.0994,782.566 999.3874,776.239 999.3874,768.285 C999.3874,750.75 1012.5834,741.713 1031.2034,741.713 C1037.5304,741.713 1043.6774,742.616 1049.4604,744.422 L1057.2344,746.592 L1057.2344,737.734 C1057.2344,725.263 1048.5564,718.393 1035.7224,718.393 C1023.4314,718.393 1015.1144,725.082 1012.9464,736.108 L998.8454,732.132 C1002.2794,715.682 1015.6564,705.197 1035.7224,705.197 C1059.0414,705.197 1072.2374,717.851 1072.2374,739.001 L1072.2374,739.001 Z M1057.2344,758.885 L1049.2794,756.535 C1043.3154,754.728 1037.8914,753.823 1033.3734,753.823 C1022.3454,753.823 1015.4764,758.524 1015.4764,767.38 C1015.4764,775.335 1021.6224,780.757 1033.0124,780.757 C1047.2924,780.757 1057.2344,773.165 1057.2344,760.692 L1057.2344,758.885 Z M1257.4024,635.175 L1272.9494,635.175 L1272.9494,549.49 L1257.4024,549.49 L1257.4024,635.175 Z M1264.8134,515.536 C1259.0284,515.536 1254.5094,520.054 1254.5094,526.02 C1254.5094,531.986 1259.0284,536.504 1264.8134,536.504 C1270.7794,536.504 1275.2974,531.986 1275.2974,526.02 C1275.2974,520.054 1270.7794,515.536 1264.8134,515.536 L1264.8134,515.536 Z M1374.9714,602.817 L1361.0524,597.576 C1357.6184,613.664 1349.3014,623.243 1332.6704,623.243 C1317.4874,623.243 1303.2054,610.952 1303.2054,591.791 C1303.2054,572.087 1317.6684,561.422 1330.8644,561.422 C1344.7834,561.422 1353.8204,569.375 1356.5324,582.932 L1370.8144,578.594 C1366.6544,559.071 1351.8324,547.684 1331.0454,547.684 C1307.7254,547.684 1288.0224,566.121 1288.0224,591.791 C1288.0224,618.905 1306.0974,636.984 1333.0324,636.984 C1354.5444,636.984 1370.0894,624.51 1374.9714,602.817 L1374.9714,602.817 Z M1221.0154,547.684 C1210.7124,547.684 1202.9394,552.744 1199.1434,561.964 L1199.1434,549.49 L1183.5974,549.49 L1183.5974,635.175 L1199.1434,635.175 L1199.1434,580.584 C1199.1434,569.013 1205.4704,561.422 1215.0494,561.422 C1223.5464,561.422 1228.7894,566.302 1228.7894,574.257 C1228.7894,575.883 1228.6074,578.052 1228.2454,580.584 L1243.4314,580.584 C1244.1544,577.691 1244.5154,574.437 1244.5154,571.003 C1244.5154,557.987 1234.9344,547.684 1221.0154,547.684 L1221.0154,547.684 Z M1391.8704,609.686 C1391.8704,626.861 1401.8124,636.984 1419.8904,636.984 C1434.5324,636.984 1444.2934,628.487 1446.6444,613.12 L1432.1814,609.867 C1430.7364,619.267 1426.5784,623.243 1419.3484,623.243 C1412.6604,623.243 1407.5974,618.544 1407.5974,610.41 L1407.5974,562.686 L1438.3274,562.686 L1438.3274,549.49 L1407.5974,549.49 L1407.5974,522.919 L1391.8704,522.919 L1391.8704,549.49 L1378.5654,549.49 L1378.5654,562.686 L1391.8704,562.686 L1391.8704,609.686 Z M1003.8474,536.504 C1009.8124,536.504 1014.3314,531.986 1014.3314,526.02 C1014.3314,520.054 1009.8124,515.536 1003.8474,515.536 C998.0614,515.536 993.5434,520.054 993.5434,526.02 C993.5434,531.986 998.0614,536.504 1003.8474,536.504 L1003.8474,536.504 Z M917.6894,635.175 L870.6894,635.175 L870.6894,508.637 L917.6894,508.637 C957.8194,508.637 980.2354,535.03 980.2354,572.448 C980.2354,608.602 957.2774,635.175 917.6894,635.175 L917.6894,635.175 Z M887.3204,619.99 L917.6894,619.99 C947.1544,619.99 963.6054,599.924 963.6054,572.448 C963.6054,542.802 947.1544,523.823 917.6894,523.823 L887.3204,523.823 L887.3204,619.99 Z M1067.3124,584.38 C1050.5004,582.029 1044.3544,578.775 1044.3544,571.364 C1044.3544,564.676 1051.5844,560.338 1060.9844,560.338 C1070.2044,560.338 1076.8934,564.676 1079.7834,573.353 L1091.8954,566.665 C1086.6544,554.553 1077.0734,547.684 1060.9844,547.684 C1052.1264,547.684 1044.7154,549.854 1038.7494,554.372 C1032.9664,558.71 1030.0744,564.314 1030.0744,571.183 C1030.0744,584.741 1039.8354,592.875 1059.5374,595.767 C1076.8934,598.118 1082.1344,602.636 1082.1344,610.772 C1082.1344,618.183 1075.0844,623.243 1063.6964,623.243 C1050.6814,623.243 1043.0894,618.183 1038.2074,606.071 L1025.3734,612.759 C1030.4354,627.403 1043.6314,636.984 1062.9724,636.984 C1082.3144,636.984 1097.3194,625.775 1097.3194,609.867 C1097.3194,595.586 1087.3774,587.091 1067.3124,584.38 L1067.3124,584.38 Z M996.4354,635.175 L1011.9824,635.175 L1011.9824,549.49 L996.4354,549.49 L996.4354,635.175 Z M1144.2974,623.243 C1137.6094,623.243 1132.5494,618.544 1132.5494,610.41 L1132.5494,562.686 L1163.2794,562.686 L1163.2794,549.49 L1132.5494,549.49 L1132.5494,522.919 L1116.8214,522.919 L1116.8214,549.49 L1103.5164,549.49 L1103.5164,562.686 L1116.8214,562.686 L1116.8214,609.686 C1116.8214,626.861 1126.7644,636.984 1144.8394,636.984 C1159.4834,636.984 1169.2454,628.487 1171.5934,613.12 L1157.1324,609.867 C1155.6874,619.267 1151.5284,623.243 1144.2974,623.243 L1144.2974,623.243 Z M1120.1284,457.461 C1107.1134,457.461 1099.5214,452.4 1094.6394,440.288 L1081.8054,446.976 C1086.8674,461.62 1100.0634,471.201 1119.4064,471.201 C1138.7464,471.201 1153.7514,459.992 1153.7514,444.084 C1153.7514,429.804 1143.8094,421.309 1123.7434,418.597 C1106.9324,416.246 1100.7864,412.992 1100.7864,405.581 C1100.7864,398.893 1108.0164,394.555 1117.4164,394.555 C1126.6364,394.555 1133.3244,398.893 1136.2174,407.57 L1148.3274,400.882 C1143.0864,388.77 1133.5054,381.901 1117.4164,381.901 C1108.5584,381.901 1101.1474,384.071 1095.1814,388.589 C1089.3984,392.927 1086.5064,398.531 1086.5064,405.4 C1086.5064,418.958 1096.2674,427.092 1115.9714,429.984 C1133.3244,432.335 1138.5664,436.853 1138.5664,444.989 C1138.5664,452.4 1131.5164,457.461 1120.1284,457.461 L1120.1284,457.461 Z M1318.7604,422.392 C1318.7604,405.942 1328.8834,395.639 1341.8994,395.639 C1354.1904,395.639 1361.4224,403.411 1361.4224,418.416 L1361.4224,469.392 L1377.1474,469.392 L1377.1474,413.715 C1377.1474,393.65 1365.2184,381.901 1346.9594,381.901 C1334.8494,381.901 1324.7264,387.686 1318.7604,397.628 L1318.7604,383.707 L1303.2134,383.707 L1303.2134,469.392 L1318.7604,469.392 L1318.7604,422.392 Z M1170.3794,469.392 L1185.9264,469.392 L1185.9264,383.707 L1170.3794,383.707 L1170.3794,469.392 Z M917.6894,469.392 L870.6894,469.392 L870.6894,342.854 L917.6894,342.854 C957.8194,342.854 980.2354,369.247 980.2354,406.665 C980.2354,442.819 957.2774,469.392 917.6894,469.392 L917.6894,469.392 Z M887.3204,454.207 L917.6894,454.207 C947.1544,454.207 963.6054,434.141 963.6054,406.665 C963.6054,377.019 947.1544,358.04 917.6894,358.04 L887.3204,358.04 L887.3204,454.207 Z M990.6284,426.008 C990.6284,401.424 1007.0784,381.901 1031.4814,381.901 C1042.8714,381.901 1052.0884,385.155 1059.1404,391.843 C1066.1904,398.351 1069.6244,407.207 1069.6244,418.416 C1069.6244,422.212 1069.2634,425.646 1068.5394,428.9 L1006.5364,428.9 C1006.7174,447.518 1018.6464,457.461 1033.8324,457.461 C1047.0284,457.461 1055.1624,450.591 1058.5964,438.301 L1072.1544,443.542 C1066.3704,460.895 1053.5364,471.201 1033.8324,471.201 C1008.7044,471.201 990.6284,453.665 990.6284,426.008 L990.6284,426.008 Z M1006.5364,417.693 L1054.0784,417.693 L1054.2584,415.162 C1054.2584,402.869 1044.3164,395.639 1031.3014,395.639 C1018.1044,395.639 1008.1624,404.136 1006.5364,417.693 L1006.5364,417.693 Z M1210.4674,461.293 C1206.3234,458.021 1204.1644,453.311 1204.1644,447.164 C1204.1644,440.837 1207.7654,435.424 1212.9874,431.822 C1209.0254,426.747 1207.0454,420.595 1207.0454,413.182 C1207.0454,394.017 1222.3614,381.906 1241.1324,381.911 C1249.6264,381.913 1257.5854,384.272 1262.8334,388.081 C1264.1014,381.373 1269.7144,376.658 1277.6894,376.658 C1287.6644,376.658 1292.9274,382.468 1293.4714,394.089 L1279.8634,396.435 C1279.8634,391.174 1278.0514,388.633 1274.2454,388.631 C1271.5264,388.629 1269.5334,390.44 1269.5334,393.161 C1269.5334,394.25 1269.8954,395.338 1270.4404,396.245 C1273.7004,401.691 1275.3324,407.315 1275.3324,413.301 C1275.3324,432.893 1259.9364,444.636 1241.1324,444.574 C1234.0894,444.551 1227.5924,442.9 1221.8204,439.625 C1219.4754,441.247 1218.2144,443.232 1218.2144,445.946 C1218.2144,450.83 1222.5414,453.379 1229.7564,453.405 L1254.6904,453.497 C1272.6134,453.563 1281.8254,460.936 1283.7754,473.046 C1286.1834,488.008 1275.2974,497.431 1256.9444,503.591 C1238.5904,509.751 1222.4544,505.052 1214.6244,500.628 C1206.9234,496.16 1202.0034,489.225 1202.0034,479.867 C1202.0044,472.528 1204.8844,465.789 1210.4674,461.293 L1210.4674,461.293 Z M1222.4304,413.173 C1222.4304,424.562 1229.8414,431.251 1241.2314,431.251 C1252.6184,431.251 1260.0294,424.201 1260.0294,413.173 C1260.0294,402.327 1252.2574,395.097 1241.2314,395.097 C1230.2024,395.097 1222.4304,402.327 1222.4304,413.173 L1222.4304,413.173 Z M1216.8144,478.818 C1216.8144,488.469 1229.2664,495.666 1245.5364,492.616 C1261.9814,489.532 1269.5514,481.584 1268.4004,475.623 C1267.2494,469.662 1261.4314,466.73 1249.8524,466.68 L1228.6744,466.795 C1226.1484,466.784 1224.3454,466.596 1223.0814,466.41 C1218.9354,469.287 1216.8144,473.537 1216.8144,478.818 L1216.8144,478.818 Z M1177.7904,369.247 C1183.7564,369.247 1188.2744,364.728 1188.2744,358.762 C1188.2744,352.797 1183.7564,348.278 1177.7904,348.278 C1172.0054,348.278 1167.4874,352.797 1167.4874,358.762 C1167.4874,364.728 1172.0054,369.247 1177.7904,369.247 L1177.7904,369.247 Z" id="Fill-124"></path>
        </g>
    </g>
</svg>