<svg xmlns="http://www.w3.org/2000/svg" xmlns:xlink="http://www.w3.org/1999/xlink" width="592.66" height="233.195" viewBox="0 0 592.66 233.195">
  <defs>
    <clipPath id="clip-path">
      <path id="Path_994" data-name="Path 994" d="M343.386-13.733s-3.363-10.72-15.362-10.72c-6.577,0-11.174,3.081-11.174,7.5,0,4.985,4.844,8.049,16.2,10.257,15.3,2.944,22.432,9.041,22.432,19.179,0,11.381-10.7,19.637-25.443,19.637A35.784,35.784,0,0,1,312.6,27.671c-5.448-3.108-9.226-8.19-11.562-15.551L310.4,6.526s3.8,15.291,19.743,15.291c8.441,0,14.119-3.566,14.119-8.878,0-3.619-1.772-7.613-14.912-9.8C313.469.386,306.081-5.975,306.081-16.867c0-10.2,9.83-17.892,22.86-17.892,11.13,0,20.237,6.074,23.763,15.847ZM308.867,69.643s-3.359-10.716-15.357-10.716c-6.581,0-11.174,3.081-11.174,7.494,0,4.985,4.844,8.053,16.2,10.262,15.3,2.944,22.432,9.041,22.432,19.179,0,11.377-10.7,19.637-25.443,19.637a35.728,35.728,0,0,1-17.447-4.452c-5.453-3.1-9.23-8.186-11.562-15.551l9.358-5.589s3.8,15.287,19.748,15.287c8.437,0,14.119-3.566,14.119-8.873,0-3.623-1.776-7.613-14.912-9.8-15.877-2.759-23.265-9.12-23.265-20.008,0-10.2,9.83-17.892,22.86-17.892,11.13,0,20.237,6.07,23.759,15.847Zm-63.395,44.926h10.769V49.526H245.472Zm122.21-83.359h10.769V-33.833H367.682Zm-165.8,18.315h-24.7v65.044h24.7c19.756,0,32.517-12.58,32.517-32.059,0-20.347-12.461-32.985-32.517-32.985Zm0,55.2H187.94V59.373h13.938c13.418,0,21.758,8.869,21.758,23.137,0,15.348-10.927,22.216-21.758,22.216ZM255.007,20.9h37.714V31.206H244.238V-33.833H291.8v10.306H255.007V-7.615H289.04v10.3H255.007ZM201.878-33.833h-24.7V31.206h24.7c19.756,0,32.517-12.58,32.517-32.059,0-20.343-12.461-32.98-32.517-32.98Zm0,55.2H187.94V-23.986h13.938c13.418,0,21.758,8.864,21.758,23.133,0,15.344-10.927,22.216-21.758,22.216Zm122.84,28.162H382.4V59.831H358.937v54.738H348.173V59.831H324.718ZM544.974,93.5c-4.734,13.784-16.737,22.176-32.271,21.991a32.114,32.114,0,0,1-22.934-9.1,33.437,33.437,0,0,1-9.517-24.345,32.724,32.724,0,0,1,9.6-24.032A31.869,31.869,0,0,1,512.567,48.6c.225,0,.445,0,.674.009,17.5,0,26.6,11.293,29.277,21.859l-9.212,4.016s-3.615-16.027-20.078-16.027c-12.805,0-21.749,9.7-21.749,23.6,0,14.33,8.538,23.6,21.749,23.6,6.6,0,11.91-1.922,15.785-5.7a24.679,24.679,0,0,0,6.356-10.226Zm60.512-43.978V59.831H582.032v54.738H571.268V59.831H547.808V49.526ZM507.925,31.039,478.547-24.836V31.206h-10.76V-33.833h18.086l.093.167,29.375,55.972v-56.14h10.769V31.206H508.022Zm-50.555,83.53h10.769V49.526H457.371ZM413.542-3.48h40.941V31.206h-9.292V18.56c-4.712,9.005-12.457,13.568-23.045,13.568-.172,0-.344,0-.516,0a30.915,30.915,0,0,1-22.057-8.975,33.456,33.456,0,0,1-9.49-24.468,33.2,33.2,0,0,1,9.728-24.3,31.153,31.153,0,0,1,22.137-9.151c.225,0,.445,0,.666.009,8.419,0,15.388,2.125,20.709,6.321A29.418,29.418,0,0,1,453.011-14.9L443.5-10.766s-3.425-13.682-20.62-13.682c-12.294,0-21.568,9.949-21.568,23.137,0,13.4,9.146,23.133,21.758,23.133,10.566,0,16.754-7.467,18.28-14.991H413.542Zm32.914,118.12L426.229,86.266a50.547,50.547,0,0,0,4.849-1.86c7.952-3.072,12.32-9.094,12.32-17.041,0-10.645-8.45-17.8-21.021-17.8H391.229v65.044H402V87.928h12.5l18.813,26.712ZM402,59.871H421.45c6.81,0,10.72,3.235,10.72,8.878s-3.91,8.873-10.72,8.873H402Z" transform="translate(-0.822 34.759)" fill="none" clip-rule="evenodd"/>
    </clipPath>
    <clipPath id="clip-path-2">
      <path id="Path_993" data-name="Path 993" d="M-887,4149.575H7576.244V-611H-887Z" transform="translate(887 611)" fill="none"/>
    </clipPath>
    <clipPath id="clip-path-3">
      <path id="Path_1001" data-name="Path 1001" d="M444.459,112.287l-19.5-27.348a48.726,48.726,0,0,0,4.674-1.793c7.664-2.961,11.874-8.765,11.874-16.425,0-10.26-8.144-17.156-20.261-17.156H391.229v62.692h10.382V86.541h12.048l18.133,25.746ZM401.611,59.5h18.747c6.564,0,10.332,3.118,10.332,8.557s-3.769,8.552-10.332,8.552H401.611Z" transform="translate(-391.229 -49.565)" fill="none"/>
    </clipPath>
    <clipPath id="clip-path-4">
      <path id="Path_1000" data-name="Path 1000" d="M-887,3977.44H7270.22V-611H-887Z" transform="translate(887 611)" fill="none"/>
    </clipPath>
  </defs>
  <g id="Group_726" data-name="Group 726" transform="translate(-4280 -886.656)">
    <g id="Group_720" data-name="Group 720" transform="translate(4104.225 886.656)" clip-path="url(#clip-path)">
      <g id="Group_719" data-name="Group 719" transform="translate(-4138.736 -2540.037)" clip-path="url(#clip-path-2)">
        <path id="Path_992" data-name="Path 992" d="M-4.178-39.759H869.837V154.579H-4.178Z" transform="translate(3895.604 2557.756)"/>
      </g>
    </g>
    <g id="Group_725" data-name="Group 725" transform="translate(-34 -124.366)" style="isolation: isolate">
      <path id="Path_995" data-name="Path 995" d="M36.33-54.731c11.461,0,17.88,7.427,19.713,16.5l9.169-4.126C62.462-53.356,53.293-63.9,36.33-63.9c-18.7,0-32.55,14.212-32.55,33.009S16.433,2.117,36.33,2.117c17.88,0,29.341-11,32.55-25.673l-9.169-3.668C57.877-16.679,50.542-7.052,36.33-7.052c-12.928,0-22.006-8.711-22.006-23.84C14.324-45.562,23.952-54.731,36.33-54.731Zm108.195-8.252V1.2H192.2V-8.427H154.611v-18.8h33.925v-9.628H154.611v-16.5h36.676v-9.628ZM199.723,1.2h11.37l6.143-15.587h31.725L255.1,1.2h11.37L240.067-62.983H226.13Zm21.089-24.756L233.1-54.639l12.287,31.083ZM317.82-62.983H260.972v9.628h23.381V1.2h10.086V-53.356H317.82Zm11,0V1.2H376.5V-8.427H338.909v-18.8h33.925v-9.628H338.909v-16.5h36.676v-9.628Zm96.458,20.172,9.628-5.5C431.333-58.49,421.981-63.9,411.528-63.9c-13.57,0-22.464,8.16-22.464,17.513,0,11.828,8.986,17.238,22.923,19.622,11.461,1.926,15.129,5.226,15.129,10.086,0,5.226-5.5,9.169-14.4,9.169-9.9,0-16.688-5.593-19.072-16.046l-9.627,5.96c5.043,16.046,18.7,19.713,28.607,19.713,15.037,0,25.032-8.252,25.032-19.255,0-10.544-7.794-16.046-22.1-18.8-8.16-1.559-16.413-4.126-16.413-10.544,0-4.218,4.218-7.794,11.461-7.794C418.588-54.272,423.631-50.146,425.282-42.811Z" transform="translate(4469 1242.1)" fill="#fff"/>
      <g id="Group_724" data-name="Group 724" transform="translate(4546.674 1179.2)" clip-path="url(#clip-path-3)">
        <g id="Group_723" data-name="Group 723" transform="translate(-4365.373 -2529.468)" clip-path="url(#clip-path-4)">
          <path id="Path_999" data-name="Path 999" d="M-4.178-39.759H838.233V147.552H-4.178Z" transform="translate(3754.893 2466.709)" fill="#fff"/>
        </g>
      </g>
    </g>
    <path id="Path_1002" data-name="Path 1002" d="M0,0H39.907L71,32.464,39.907,66H0Z" transform="translate(4280 1053)" fill="#fff"/>
    <path id="Path_1003" data-name="Path 1003" d="M0,0H39.907L71,32.464,39.907,66H0Z" transform="translate(4351 1053)" fill="#fff"/>
  </g>
</svg>
