{
	"asset":{
		"version":"2.0",
		"generator":"Created using the official Cinema 4D glTF Exporter 1.000x290161"
	},
	"scenes":[{
		"nodes":[0]
	}],
	"nodes":[{
		"name":"A2",
		"translation":[67.16727447509766,
		110.36833953857422,
		-327.3529052734375],
		"rotation":[0.0,
		-0.9882793426513672,
		0.0,
		0.15265633165836335],
		"scale":[1.0,
		1.0,
		1.0],
		"children":[1,
		2]
	},
	{
		"name":"A2.extra",
		"translation":[1.2169580459594727,
		-9.569257736206055,
		32.240135192871097],
		"rotation":[0.0,
		0.0,
		0.0,
		-1.0],
		"scale":[1.0,
		1.0,
		1.0],
		"mesh":0
	},
	{
		"name":"A2",
		"translation":[-1.2169580459594727,
		9.569257736206055,
		-32.240135192871097],
		"rotation":[0.0,
		0.0,
		0.0,
		-1.0],
		"scale":[1.0,
		1.0,
		1.0],
		"mesh":1
	}],
	"meshes":[{
		"primitives":[{
			"attributes":{
				"POSITION":1,
				"NORMAL":2,
				"TEXCOORD_0":3
			},
			"indices":0,
			"material":0
		}]
	},
	{
		"primitives":[{
			"attributes":{
				"POSITION":5,
				"NORMAL":6,
				"TEXCOORD_0":7
			},
			"indices":4,
			"material":1
		}]
	}],
	"accessors":[{
		"bufferView":0,
		"byteOffset":0,
		"type":"SCALAR",
		"componentType":5123,
		"count":1416,
		"max":[412],
		"min":[0]
	},
	{
		"bufferView":1,
		"byteOffset":0,
		"type":"VEC3",
		"componentType":5126,
		"count":413,
		"max":[154.3244171142578,
		136.26223754882813,
		76.69281768798828],
		"min":[-154.3244171142578,
		-102.44574737548828,
		-87.26809692382813]
	},
	{
		"bufferView":1,
		"byteOffset":12,
		"type":"VEC3",
		"componentType":5126,
		"count":413,
		"max":[1.0,
		1.0,
		1.0],
		"min":[-1.0,
		-1.0,
		-1.0]
	},
	{
		"bufferView":1,
		"byteOffset":24,
		"type":"VEC2",
		"componentType":5126,
		"count":413,
		"max":[1.0299607515335084,
		0.9932143688201904],
		"min":[0.016953062266111375,
		0.009561551734805107]
	},
	{
		"bufferView":2,
		"byteOffset":0,
		"type":"SCALAR",
		"componentType":5123,
		"count":24633,
		"max":[11581],
		"min":[0]
	},
	{
		"bufferView":3,
		"byteOffset":0,
		"type":"VEC3",
		"componentType":5126,
		"count":11582,
		"max":[154.83828735351563,
		93.51812744140625,
		134.33535766601563],
		"min":[-149.97044372558595,
		-118.59213256835938,
		-4.314300060272217]
	},
	{
		"bufferView":3,
		"byteOffset":12,
		"type":"VEC3",
		"componentType":5126,
		"count":11582,
		"max":[1.0,
		1.0,
		1.0],
		"min":[-1.0,
		-1.0,
		-1.0]
	},
	{
		"bufferView":3,
		"byteOffset":24,
		"type":"VEC2",
		"componentType":5126,
		"count":11582,
		"max":[0.9994207620620728,
		0.994117259979248],
		"min":[-0.7476834654808044,
		0.004887168295681477]
	}],
	"bufferViews":[{
		"buffer":0,
		"byteOffset":0,
		"byteLength":2832,
		"target":34963
	},
	{
		"buffer":0,
		"byteOffset":2832,
		"byteLength":13216,
		"target":34962,
		"byteStride":32
	},
	{
		"buffer":1,
		"byteOffset":0,
		"byteLength":49266,
		"target":34963
	},
	{
		"buffer":1,
		"byteOffset":49268,
		"byteLength":370624,
		"target":34962,
		"byteStride":32
	}],
	"buffers":[{
		"uri":"data:application/octet-stream;base64,",
		"byteLength":16048
	},
	{
		"uri":"data:application/octet-stream;base64,",
		"byteLength":419892
	}],
	"materials":[{
		"pbrMetallicRoughness":{
			"baseColorFactor":[1.0,
			1.0,
			1.0,
			1.0],
			"metallicFactor":1.0,
			"roughnessFactor":1.0
		},
		"emissiveFactor":[0.0,
		0.0,
		0.0],
		"alphaMode":"OPAQUE",
		"doubleSided":true,
		"name":""
	},
	{
		"pbrMetallicRoughness":{
			"baseColorFactor":[1.0,
			1.0,
			1.0,
			1.0],
			"metallicFactor":1.0,
			"roughnessFactor":1.0
		},
		"emissiveFactor":[0.0,
		0.0,
		0.0],
		"alphaMode":"OPAQUE",
		"doubleSided":true,
		"name":""
	}]
}