{
	"asset":{
		"version":"2.0",
		"generator":"Created using the official Cinema 4D glTF Exporter 1.000x290161"
	},
	"scenes":[{
		"nodes":[0]
	}],
	"nodes":[{
		"name":"A3",
		"translation":[198.9644012451172,
		71.56859588623047,
		-97.18513488769531],
		"rotation":[0.0,
		-0.8089072704315186,
		0.0,
		-0.587936282157898],
		"scale":[1.0,
		1.0,
		1.0],
		"children":[1,
		2]
	},
	{
		"name":"A3.extra",
		"translation":[42.91664505004883,
		3.380767822265625,
		10.711584091186524],
		"rotation":[0.0,
		0.0,
		0.0,
		-1.0],
		"scale":[1.0,
		1.0,
		1.0],
		"mesh":0
	},
	{
		"name":"A3",
		"translation":[57.728878021240237,
		3.107330083847046,
		-0.1677815467119217],
		"rotation":[0.0,
		0.0,
		0.0,
		-1.0],
		"scale":[1.0,
		1.0,
		1.0],
		"mesh":1
	}],
	"meshes":[{
		"primitives":[{
			"attributes":{
				"POSITION":1,
				"NORMAL":2,
				"TEXCOORD_0":3
			},
			"indices":0,
			"material":0
		}]
	},
	{
		"primitives":[{
			"attributes":{
				"POSITION":5,
				"NORMAL":6,
				"TEXCOORD_0":7
			},
			"indices":4,
			"material":1
		}]
	}],
	"accessors":[{
		"bufferView":0,
		"byteOffset":0,
		"type":"SCALAR",
		"componentType":5123,
		"count":10500,
		"max":[4231],
		"min":[0]
	},
	{
		"bufferView":1,
		"byteOffset":0,
		"type":"VEC3",
		"componentType":5126,
		"count":4232,
		"max":[137.85122680664063,
		61.844482421875,
		75.18844604492188],
		"min":[-122.76909637451172,
		-53.464111328125,
		-78.48583221435547]
	},
	{
		"bufferView":1,
		"byteOffset":12,
		"type":"VEC3",
		"componentType":5126,
		"count":4232,
		"max":[1.0,
		1.0,
		1.0],
		"min":[-1.0,
		-1.0,
		-1.0]
	},
	{
		"bufferView":1,
		"byteOffset":24,
		"type":"VEC2",
		"componentType":5126,
		"count":4232,
		"max":[0.9881502985954285,
		0.9799790382385254],
		"min":[0.007365924306213856,
		0.010182511061429978]
	},
	{
		"bufferView":2,
		"byteOffset":0,
		"type":"SCALAR",
		"componentType":5123,
		"count":23997,
		"max":[10600],
		"min":[0]
	},
	{
		"bufferView":3,
		"byteOffset":0,
		"type":"VEC3",
		"componentType":5126,
		"count":10601,
		"max":[128.8513946533203,
		79.37651824951172,
		83.16681671142578],
		"min":[-135.18939208984376,
		-75.00834655761719,
		-74.01567840576172]
	},
	{
		"bufferView":3,
		"byteOffset":12,
		"type":"VEC3",
		"componentType":5126,
		"count":10601,
		"max":[1.0,
		1.0,
		1.0],
		"min":[-1.0,
		-1.0,
		-1.0]
	},
	{
		"bufferView":3,
		"byteOffset":24,
		"type":"VEC2",
		"componentType":5126,
		"count":10601,
		"max":[0.9987431168556213,
		0.9955403804779053],
		"min":[0.006586540024727583,
		0.007845385000109673]
	}],
	"bufferViews":[{
		"buffer":0,
		"byteOffset":0,
		"byteLength":21000,
		"target":34963
	},
	{
		"buffer":0,
		"byteOffset":21000,
		"byteLength":135424,
		"target":34962,
		"byteStride":32
	},
	{
		"buffer":1,
		"byteOffset":0,
		"byteLength":47994,
		"target":34963
	},
	{
		"buffer":1,
		"byteOffset":47996,
		"byteLength":339232,
		"target":34962,
		"byteStride":32
	}],
	"buffers":[{
		"uri":"data:application/octet-stream;base64,",
		"byteLength":156424
	},
	{
		"uri":"data:application/octet-stream;base64,",
		"byteLength":387228
	}],
	"materials":[{
		"pbrMetallicRoughness":{
			"baseColorFactor":[1.0,
			1.0,
			1.0,
			1.0],
			"metallicFactor":1.0,
			"roughnessFactor":1.0
		},
		"emissiveFactor":[1.0,
		1.0,
		1.0],
		"alphaMode":"OPAQUE",
		"doubleSided":true,
		"name":"Mat.1"
	},
	{
		"pbrMetallicRoughness":{
			"baseColorFactor":[1.0,
			1.0,
			1.0,
			1.0],
			"metallicFactor":1.0,
			"roughnessFactor":1.0
		},
		"emissiveFactor":[1.0,
		1.0,
		1.0],
		"alphaMode":"OPAQUE",
		"doubleSided":true,
		"name":"Mat"
	}]
}