<?xml version="1.0" encoding="UTF-8"?>
<svg width="205px" height="177px" viewBox="0 0 205 177" version="1.1" xmlns="http://www.w3.org/2000/svg" xmlns:xlink="http://www.w3.org/1999/xlink">
    <title>sticker12</title>
    <g id="Page-1" stroke="none" stroke-width="1" fill="none" fill-rule="evenodd">
        <g id="Artboard-17-Copy" transform="translate(-1588.000000, -781.000000)">
            <g id="sticker12" transform="translate(1588.417300, 781.236400)">
                <path d="M9.089,176.093 C4.069,176.093 2.27373675e-13,172.024 2.27373675e-13,167.004 L2.27373675e-13,102.258 C2.27373675e-13,45.873 45.873,3.83693077e-13 102.259,3.83693077e-13 C158.641,3.83693077e-13 204.511,45.87 204.511,102.253 L204.511,167.004 C204.511,172.024 200.442,176.093 195.422,176.093 L9.089,176.093 Z" id="Fill-1077" fill="#FF5D38"></path>
                <path d="M195.4201,167.0037 L9.0871,167.0037 L9.0871,102.2577 C9.0871,50.8837 50.8821,9.0887 102.2561,9.0887 C153.6271,9.0887 195.4201,50.8817 195.4201,102.2527 L195.4201,167.0037 Z M12.2991,163.7927 L192.2091,163.7927 L192.2091,102.2527 C192.2091,52.6527 151.8561,12.3007 102.2561,12.3007 C52.6531,12.3007 12.2991,52.6547 12.2991,102.2577 L12.2991,163.7927 Z" id="Fill-1079" fill="#FFFFFF"></path>
                <path d="M33.8416,144.7147 C33.8416,142.1757 32.2206,140.6627 29.7256,140.1717 L30.9836,137.0367 C34.6516,137.9107 36.9336,140.6407 36.9336,144.7357 C36.9336,149.4917 33.6486,152.5627 29.2566,152.5627 C24.9686,152.6477 21.4926,149.1077 21.5786,144.7357 C21.5786,140.7907 23.7536,138.2947 26.5476,137.6547 L27.9546,140.7907 C25.8866,141.2167 24.6706,142.7317 24.6706,144.7997 C24.6706,147.1887 26.4836,149.1507 29.2566,149.1507 C32.0706,149.1507 33.8416,147.1027 33.8416,144.7147" id="Fill-1081" fill="#FFFFFF"></path>
                <path d="M29.2565,116.0967 C33.4145,116.0117 37.0405,119.7007 36.9335,123.9877 C37.0405,128.2747 33.4145,131.9647 29.2565,131.8787 C25.0965,131.9647 21.4925,128.2747 21.5785,123.9877 C21.4925,119.7007 25.0965,116.0117 29.2565,116.0967 M29.2565,119.5087 C26.5265,119.5087 24.7775,121.4927 24.7775,123.9877 C24.7775,126.4827 26.5265,128.4667 29.2565,128.4667 C31.9865,128.4667 33.7345,126.4827 33.7345,123.9877 C33.7345,121.4927 31.9865,119.5087 29.2565,119.5087" id="Fill-1083" fill="#FFFFFF"></path>
                <polygon id="Fill-1086" fill="#FFFFFF" points="21.7919 98.4441 24.8839 98.4441 24.8839 106.4201 27.8699 106.4201 27.8699 99.0831 30.9619 99.0831 30.9619 106.4201 36.7199 106.4201 36.7199 109.8321 21.7919 109.8321"></polygon>
                <polygon id="Fill-1087" fill="#FFFFFF" points="25.0803 79.4622 28.0933 80.1592 26.2963 87.9292 29.2053 88.6022 30.8573 81.4542 33.8703 82.1512 32.2183 89.2992 37.8283 90.5952 37.0593 93.9202 22.5143 90.5572"></polygon>
                <polygon id="Fill-1088" fill="#FFFFFF" points="33.2317 61.6171 35.9877 63.0221 32.2947 70.2571 34.6707 71.4691 38.0717 64.8041 40.8277 66.2081 37.4257 72.8731 40.0857 74.2301 43.8747 66.8061 46.6307 68.2121 41.2917 78.6741 27.9897 71.8901"></polygon>
                <polygon id="Fill-1089" fill="#FFFFFF" points="45.386 46.1749 47.723 48.2009 42.399 54.3409 44.413 56.0869 49.318 50.4309 51.655 52.4569 46.75 58.1129 49.006 60.0689 54.47 53.7689 56.807 55.7949 49.108 64.6739 37.827 54.8929"></polygon>
                <polygon id="Fill-1090" fill="#FFFFFF" points="70.8672 32.0239 66.3842 34.4919 72.0912 44.8589 69.1022 46.5039 63.3952 36.1379 58.9132 38.6049 57.4222 35.8969 69.3762 29.3159"></polygon>
                <g id="Group-1099" transform="translate(77.268120, 23.585967)" fill="#FFFFFF">
                    <path d="M15.5617802,6.87353279 C16.6227802,10.8945328 13.8907802,15.2835328 9.70078025,16.1885328 C5.56078025,17.2995328 1.12378025,14.6445328 0.228780246,10.5845328 C-0.831219754,6.56353279 1.90578025,2.19453279 6.09078025,1.26953279 C10.2357802,0.178532789 14.6677802,2.81353279 15.5617802,6.87353279 M12.2467802,7.67553279 C11.6047802,5.02353279 9.26778025,3.79053279 6.84278025,4.37753279 C4.41778025,4.96453279 2.90278025,7.12953279 3.54478025,9.78153279 C4.18678025,12.4345328 6.52378025,13.6665328 8.94778025,13.0805328 C11.3737802,12.4935328 12.8887802,10.3285328 12.2467802,7.67553279" id="Fill-1091"></path>
                    <path d="M36.3737802,12.2317328 C38.8767802,12.6487328 40.6357802,11.3007328 41.5307802,8.92073279 L44.4157802,10.6767328 C42.9497802,14.1497328 39.8827802,15.9517328 35.8437802,15.2777328 C31.1537802,14.4957328 28.6657802,10.7527328 29.3887802,6.41973279 C30.0087802,2.17773279 34.0717802,-0.667267211 38.3697802,0.135732789 C42.2607802,0.783732789 44.3627802,3.33973279 44.5347802,6.20073279 L41.2117802,7.07273279 C41.1307802,4.96273279 39.8377802,3.51473279 37.7977802,3.17473279 C35.4427802,2.78173279 33.2097802,4.24673279 32.7537802,6.98073279 C32.2897802,9.75673279 34.0177802,11.8397328 36.3737802,12.2317328" id="Fill-1093"></path>
                    <path d="M64.3694802,17.8041328 C62.5914802,21.5641328 57.6734802,23.1641328 53.8844802,21.1581328 C50.0004802,19.3421328 48.3154802,14.4521328 50.2464802,10.7681328 C52.0234802,7.00813279 56.9314802,5.42713279 60.7304802,7.41513279 C64.6054802,9.24913279 66.3004802,14.1201328 64.3694802,17.8041328 M61.3164802,16.2831328 C62.5334802,13.8401328 61.5374802,11.3911328 59.3044802,10.2781328 C57.0714802,9.16613279 54.5164802,9.84613279 53.2994802,12.2891328 C52.0824802,14.7321328 53.0774802,17.1821328 55.3104802,18.2941328 C57.5444802,19.4071328 60.0984802,18.7261328 61.3164802,16.2831328" id="Fill-1095"></path>
                    <path d="M71.8645802,29.9845328 C73.7155802,31.7215328 75.9285802,31.5755328 77.9945802,30.0915328 L79.4195802,33.1545328 C76.2715802,35.2315328 72.7195802,35.0265328 69.7335802,32.2245328 C66.2655802,28.9715328 66.2735802,24.4745328 69.2785802,21.2715328 C72.1515802,18.0875328 77.1115802,17.9745328 80.2405802,21.0275328 C83.1175802,23.7275328 83.4485802,27.0225328 82.0035802,29.4965328 L78.7545802,28.3775328 C79.8585802,26.5775328 79.5865802,24.6545328 78.0775802,23.2395328 C76.3365802,21.6045328 73.6645802,21.5845328 71.7675802,23.6065328 C69.8415802,25.6585328 70.1225802,28.3495328 71.8645802,29.9845328" id="Fill-1097"></path>
                </g>
                <polygon id="Fill-1100" fill="#FFFFFF" points="162.1805 75.8677 160.1435 72.4897 163.4465 65.7897 160.4715 65.1937 157.0035 67.2867 155.2405 64.3657 168.0195 56.6557 169.7825 59.5757 164.6155 62.6937 172.5915 64.2317 174.7945 67.8827 166.7815 66.3667"></polygon>
                <polygon id="Fill-1101" fill="#FFFFFF" points="178.5656 88.1711 177.1356 83.2551 165.7686 86.5621 164.8156 83.2851 176.1816 79.9781 174.7526 75.0631 177.7216 74.1981 181.5356 87.3061"></polygon>
                <path d="M182.5417,97.5977 L182.7397,102.5007 L168.0567,108.9627 L167.9067,105.2327 L170.9507,103.9567 L170.6727,97.0947 L167.5377,96.0687 L167.3857,92.3377 L182.5417,97.5977 Z M173.9947,102.6817 L179.9977,100.1557 L173.8107,98.1207 L173.9947,102.6817 Z" id="Fill-1102" fill="#FFFFFF"></path>
                <polygon id="Fill-1103" fill="#FFFFFF" points="167.7887 117.2746 182.7167 117.2746 182.7167 113.8626 167.7887 113.8626"></polygon>
                <polygon id="Fill-1104" fill="#FFFFFF" points="182.7166 126.9354 170.8806 126.9354 170.8806 135.3164 167.7886 135.3164 167.7886 123.5234 182.7166 123.5234"></polygon>
                <g id="Group-1109" transform="translate(49.337900, 114.007000)">
                    <path d="M129.3273,30.1608 C128.2393,30.1608 127.7063,31.3338 127.3443,33.2958 C126.6393,37.0708 125.5733,38.6908 122.7793,38.6908 C120.1573,38.6908 118.2363,36.3888 118.2363,32.6128 C118.2363,31.0558 118.5783,29.6708 119.2603,28.4118 C119.9433,27.1528 121.0943,26.2148 122.7153,25.5758 L124.5283,28.4538 C122.3313,29.0728 121.2223,30.6508 121.2223,32.7198 C121.2223,34.2558 121.7563,35.2788 122.6733,35.2788 C123.6963,35.2788 124.2083,34.6178 124.5923,31.9738 C125.0403,28.8178 126.5323,26.7488 129.3693,26.7488 C131.6943,26.7488 133.5923,28.9018 133.5923,32.2938 C133.5923,35.1298 132.3133,37.1978 129.8603,38.0518 L128.2603,35.2788 C129.9673,34.7458 130.7133,33.7858 130.7133,32.1868 C130.7133,30.9708 130.1163,30.1608 129.3273,30.1608" id="Fill-1105" fill="#FFFFFF"></path>
                    <path d="M0,13.148 L0,7.586 C0,2.791 2.812,0 7.182,0 C11.267,0 14.159,2.811 14.159,7.485 L14.159,13.148 L0,13.148 Z M11.227,9.911 L11.227,7.586 C11.227,4.673 9.628,3.237 7.182,3.237 C4.491,3.237 2.933,4.713 2.933,7.687 L2.933,9.911 L11.227,9.911 Z" id="Fill-1107" fill="#FFE600"></path>
                </g>
                <path d="M49.2979,103.9429 L49.4669,99.2939 L63.8179,94.2479 L63.6899,97.7859 L60.7189,98.7709 L60.4829,105.2789 L63.3739,106.4769 L63.2459,110.0149 L49.2979,103.9429 Z M57.7489,99.7549 L51.8889,101.7089 L57.5919,104.0819 L57.7489,99.7549 Z" id="Fill-1110" fill="#FFE600"></path>
                <polygon id="Fill-1111" fill="#FFE600" points="58.6353 84.5211 54.8323 79.3511 56.2373 76.1021 62.1733 84.2881 67.1863 86.4571 65.9013 89.4271 60.8893 87.2591 50.8583 88.5411 52.3433 85.1061"></polygon>
                <polygon id="Fill-1112" fill="#FFE600" points="79.3316 58.3866 75.3156 61.1186 81.6326 70.4056 78.9546 72.2266 72.6386 62.9396 68.6216 65.6706 66.9716 63.2436 77.6816 55.9596"></polygon>
                <path d="M101.0785,57.1001 C101.8915,60.9601 99.0915,64.9901 95.0775,65.6461 C91.1025,66.5021 87.0235,63.7741 86.3705,59.8831 C85.5575,56.0231 88.3595,52.0131 92.3695,51.3371 C96.3505,50.5011 100.4235,53.2091 101.0785,57.1001 M97.8975,57.7011 C97.4165,55.1571 95.2605,53.8781 92.9345,54.3181 C90.6095,54.7581 89.0685,56.7381 89.5495,59.2821 C90.0315,61.8261 92.1885,63.1051 94.5135,62.6651 C96.8395,62.2251 98.3795,60.2451 97.8975,57.7011" id="Fill-1113" fill="#FFE600"></path>
                <polygon id="Fill-1115" fill="#FFE600" points="115.5219 66.9223 112.6009 65.5273 118.7049 52.7483 123.7079 55.1373 123.2099 68.1953 128.3809 57.3693 131.3019 58.7653 125.1979 71.5443 120.1959 69.1543 120.6929 56.0963"></polygon>
                <polygon id="Fill-1116" fill="#FFE600" points="138.0762 64.5783 140.3902 66.8413 130.4912 76.9683 128.1752 74.7053"></polygon>
                <path d="M139.8119,76.3425 C143.3909,74.4505 147.9109,76.0935 149.6859,79.7535 C151.4059,83.1685 150.6539,86.1305 148.3689,88.1185 L146.0829,85.7815 C147.5629,84.5825 147.9379,82.8085 147.0649,81.0725 C145.9819,78.9225 143.5279,78.0965 141.2689,79.2335 C140.0929,79.8265 139.2999,80.6325 138.9319,81.6575 C138.5629,82.6805 138.6739,83.7565 139.2479,84.8955 C140.1399,86.6665 141.7789,87.0875 142.6289,86.8855 L140.2269,82.1145 L142.5759,80.9315 L146.8619,89.4445 L140.1749,92.8105 L138.9009,90.2815 L141.4489,88.9975 C139.4139,89.1385 137.5929,88.1305 136.4909,85.9435 C134.6709,82.4645 135.9169,78.2355 139.8119,76.3425" id="Fill-1117" fill="#FFE600"></path>
                <polygon id="Fill-1119" fill="#FFE600" points="146.4107 99.6121 140.9487 99.7071 140.8937 96.4701 155.0527 96.2241 155.1097 99.4611 149.3447 99.5611 149.4537 105.8321 155.2187 105.7311 155.2747 108.9671 141.1147 109.2141 141.0597 105.9781 146.5207 105.8821"></polygon>
                <polygon id="Fill-1120" fill="#FFE600" points="152.237 128.1137 152.237 123.2587 141.01 123.2587 141.01 120.0227 152.237 120.0227 152.237 115.1677 155.17 115.1677 155.17 128.1137"></polygon>
                <g id="Group-1125" transform="translate(49.337900, 138.256300)" fill="#FFE600">
                    <path d="M0,0 L5.562,0 C10.357,0 13.148,2.812 13.148,7.181 C13.148,11.266 10.336,14.159 5.663,14.159 L0,14.159 L0,0 Z M3.236,11.227 L5.562,11.227 C8.475,11.227 9.911,9.628 9.911,7.181 C9.911,4.49 8.435,2.933 5.461,2.933 L3.236,2.933 L3.236,11.227 Z" id="Fill-1121"></path>
                    <path d="M29.0159,14.1593 C28.8339,13.7753 28.7119,13.3703 28.6519,12.9463 C28.5899,12.5213 28.5709,11.8333 28.5709,10.9233 C28.5709,9.5273 27.8219,8.7993 26.5079,8.7993 L23.8769,8.7993 L23.8769,14.1593 L20.6409,14.1593 L20.6409,0.0003 L27.7209,0.0003 C30.6949,0.0003 32.4739,1.7593 32.4739,4.1463 C32.4739,4.9353 32.2119,5.6843 31.7059,6.3913 C31.1999,7.0993 30.5529,7.5853 29.7449,7.8883 C30.9369,8.2123 31.8269,9.2843 31.9079,10.8223 C31.9889,12.1973 32.1519,13.1283 32.6559,13.8353 L32.6559,14.1593 L29.0159,14.1593 Z M27.6199,5.8663 C28.7729,5.8663 29.3389,5.2193 29.3389,4.3493 C29.3389,3.4793 28.7729,2.9323 27.6199,2.9323 L23.8769,2.9323 L23.8769,5.8663 L27.6199,5.8663 Z" id="Fill-1123"></path>
                </g>
                <polygon id="Fill-1126" fill="#FFE600" points="89.6347 152.4156 92.8707 152.4156 92.8707 138.2566 89.6347 138.2566"></polygon>
                <polygon id="Fill-1127" fill="#FFE600" points="105.1389 152.4156 101.9019 152.4156 101.9019 138.2566 107.4449 138.2566 112.6229 150.2506 112.6229 138.2566 115.8599 138.2566 115.8599 152.4156 110.3169 152.4156 105.1389 140.4206"></polygon>
                <polygon id="Fill-1128" fill="#FFE600" points="137.6812 152.4156 133.9402 152.4156 130.1162 146.4486 128.1742 148.5726 128.1742 152.4156 124.9382 152.4156 124.9382 138.2566 128.1742 138.2566 128.1742 143.9806 133.3322 138.2566 137.3782 138.2566 132.2202 144.0206"></polygon>
                <path d="M147.0784,142.0994 C147.0784,143.1304 148.1904,143.6364 150.0514,143.9804 C153.6314,144.6484 155.1694,145.6594 155.1694,148.3094 C155.1694,150.7974 152.9844,152.6174 149.4044,152.6174 C147.9284,152.6174 146.6134,152.2934 145.4194,151.6464 C144.2264,150.9994 143.3364,149.9074 142.7294,148.3694 L145.4604,146.6504 C146.0464,148.7334 147.5434,149.7854 149.5064,149.7854 C150.9624,149.7854 151.9334,149.2804 151.9334,148.4104 C151.9334,147.4394 151.3054,146.9544 148.7974,146.5904 C145.8044,146.1654 143.8424,144.7494 143.8424,142.0584 C143.8424,139.8534 145.8844,138.0534 149.1004,138.0534 C151.7914,138.0534 153.7544,139.2674 154.5624,141.5934 L151.9334,143.1114 C151.4274,141.4924 150.5174,140.7844 148.9994,140.7844 C147.8474,140.7844 147.0784,141.3514 147.0784,142.0994" id="Fill-1129" fill="#FFE600"></path>
                <path d="M101.8264,124.3917 C96.3134,124.3917 90.8184,122.0087 86.7524,117.8567 C82.6984,113.7167 80.4404,108.1927 80.5564,102.7007 C80.4404,97.1897 82.7004,91.6637 86.7524,87.5257 C90.8194,83.3717 96.3134,80.9887 101.8264,80.9887 L102.6814,80.9887 C108.1944,80.9887 113.6894,83.3717 117.7554,87.5247 C121.8094,91.6637 124.0674,97.1877 123.9514,102.6817 C124.0674,108.1917 121.8094,113.7157 117.7574,117.8547 C113.6894,122.0087 108.1944,124.3897 102.6814,124.3917 L101.8264,124.3917 Z M102.5774,120.8047 C107.2034,120.8047 111.7994,118.8227 115.1894,115.3637 C118.5714,111.9147 120.4584,107.2927 120.3654,102.6817 C120.4584,98.0897 118.5714,93.4657 115.1894,90.0187 C111.7984,86.5597 107.2014,84.5757 102.5744,84.5757 L101.9324,84.5757 C97.3064,84.5757 92.7074,86.5597 89.3184,90.0187 C85.9364,93.4657 84.0494,98.0897 84.1414,102.7007 C84.0494,107.2927 85.9364,111.9147 89.3184,115.3637 C92.7074,118.8207 97.3044,120.8047 101.9294,120.8047 L102.2534,120.8017 L102.5774,120.8047 Z M102.2534,114.5777 C97.2064,114.5777 92.8054,111.5217 91.1714,106.9297 L94.4474,105.5187 C95.6884,109.0057 98.5084,110.9927 102.2534,110.9927 C105.9994,110.9927 108.8184,109.0057 110.0604,105.5187 L113.3344,106.9297 C111.7014,111.5197 107.3004,114.5777 102.2534,114.5777 L102.2534,114.5777 Z M108.8984,98.6297 C107.4504,98.6297 106.3154,97.4947 106.3154,96.0447 C106.3154,94.5967 107.4504,93.4617 108.8984,93.4617 C110.3484,93.4617 111.4834,94.5967 111.4834,96.0447 C111.4834,97.4947 110.3484,98.6297 108.8984,98.6297 L108.8984,98.6297 Z M95.6094,98.6297 C94.1594,98.6297 93.0244,97.4947 93.0244,96.0447 C93.0244,94.5967 94.1594,93.4617 95.6094,93.4617 C97.0574,93.4617 98.1924,94.5967 98.1924,96.0447 C98.1924,97.4947 97.0574,98.6297 95.6094,98.6297 L95.6094,98.6297 Z" id="Fill-1131" fill="#FFFFFF"></path>
            </g>
        </g>
    </g>
</svg>