<?xml version="1.0" encoding="UTF-8"?>
<svg width="213px" height="208px" viewBox="0 0 213 208" version="1.1" xmlns="http://www.w3.org/2000/svg" xmlns:xlink="http://www.w3.org/1999/xlink">
    <title>sticker10</title>
    <g id="Page-1" stroke="none" stroke-width="1" fill="none" fill-rule="evenodd">
        <g id="Artboard-17-Copy" transform="translate(-915.000000, -765.000000)">
            <g id="sticker10" transform="translate(915.543419, 765.888400)">
                <g id="Group-1397" transform="translate(-0.000000, 0.000000)">
                    <path d="M108.367681,206.789 C104.692681,206.789 100.965681,206.591 97.2926806,206.201 C95.4716806,206.009 93.5746806,205.75 91.4976806,205.411 C91.1946806,205.362 90.8856806,205.304 90.5776806,205.245 L90.2336806,205.181 C88.6416806,204.901 87.0746806,204.591 85.5986806,204.262 L84.5716806,204.019 C82.8966806,203.627 81.1936806,203.184 79.5336806,202.706 L79.1216806,202.586 C63.7796806,198.098 49.4796806,189.954 37.7766806,179.036 C37.5496806,178.826 37.3166806,178.597 37.0866806,178.368 L36.8256806,178.112 C35.8566806,177.185 34.9216806,176.272 34.0126806,175.333 C33.3876806,174.691 32.7686806,174.018 32.1496806,173.345 L31.7526806,172.911 C31.3356806,172.452 30.9186806,171.994 30.5096806,171.527 C29.7066806,170.615 28.9136806,169.68 28.1336806,168.726 L27.3586806,167.758 C24.1686806,163.765 21.3216806,159.64 18.9016806,155.505 C18.8096806,155.362 18.7236806,155.218 18.6426806,155.073 C17.4356806,152.86 15.9206806,150.851 14.0766806,148.993 C11.2106806,146.104 8.15968057,144.164 6.10668057,143.045 L5.67968057,142.812 C4.31868057,142.069 3.17168057,140.991 2.34668057,139.679 C2.34668057,139.679 2.03268057,139.178 2.00068057,139.127 C1.91768057,138.987 1.68368057,138.587 1.43468057,138.064 C-0.304319431,134.511 -0.476319431,130.106 0.994680569,126.047 C1.06968057,125.837 1.15468057,125.629 1.24468057,125.426 C1.65968057,124.503 2.16668057,123.616 2.79768057,122.713 C2.97768057,122.457 3.13268057,122.255 3.28968057,122.056 C3.81868057,121.381 4.34868057,120.797 4.91068057,120.266 C5.06268057,120.113 5.25968057,119.93 5.45968057,119.754 C5.65268057,119.59 5.84168057,119.433 6.03168057,119.285 C5.72468057,117.324 5.47868057,115.396 5.29568057,113.529 C5.28168057,113.401 5.26768057,113.214 5.25368057,113.027 C5.11868057,111.543 5.01768057,110.154 4.94568057,108.763 L4.89168057,107.404 C4.84668057,106.24 4.82168057,105.069 4.81868057,103.899 C4.81368057,103.402 4.81368057,102.87 4.81968057,102.339 C4.83368057,101.165 4.86968057,100.009 4.92368057,98.853 L4.93568057,98.514 C4.94968057,98.136 4.96368057,97.758 4.98768057,97.378 C5.08868057,95.636 5.21768057,94.041 5.37868057,92.506 C8.28968057,65.039 21.7206806,40.355 43.1976806,22.996 C61.8056806,7.952 84.2166806,0 108.004681,0 C111.679681,0 115.406681,0.198 119.082681,0.587 C120.801681,0.77 122.557681,1.001 124.299681,1.274 C124.512681,1.307 124.717681,1.345 124.922681,1.385 C126.502681,1.645 128.006681,1.915 129.496681,2.227 C129.557681,2.239 129.635681,2.257 129.712681,2.275 C153.094681,7.2 173.464681,19.694 188.587681,38.402 C203.688681,57.082 211.636681,79.588 211.572681,103.493 L211.575681,103.722 C211.567681,105.257 211.516681,106.745 211.445681,108.236 C211.437681,108.574 211.431681,108.816 211.417681,109.059 C211.318681,110.818 211.178681,112.58 210.996681,114.288 C208.086681,141.75 194.655681,166.433 173.179681,183.793 C170.873681,185.657 168.471681,187.438 166.042681,189.083 C148.942681,200.667 128.998681,206.789 108.367681,206.789" id="Fill-1393" fill="#FFFFFF"></path>
                    <path d="M132.226881,12.3929 C127.659881,11.1899 122.945881,10.3169 118.107881,9.8039 C117.307881,9.7199 116.508881,9.6459 115.709881,9.5809 C115.618881,9.5739 115.528881,9.5699 115.437881,9.5629 C91.3648806,7.6889 67.8778806,14.9629 49.0248806,30.2039 C30.7498806,44.9769 18.8778806,65.5759 15.2428806,88.6199 C15.2388806,88.6429 15.2348806,88.6649 15.2308806,88.6879 C15.1228806,89.3799 15.0238806,90.0739 14.9298806,90.7699 C14.9158806,90.8759 14.8988806,90.9809 14.8848806,91.0879 C14.7798806,91.8819 14.6848806,92.6779 14.6008806,93.4769 C14.4718806,94.6869 14.3748806,95.8959 14.2918806,97.1039 C14.2798806,97.2919 14.2648806,97.4809 14.2528806,97.6689 C14.1798806,98.8519 14.1298806,100.0339 14.1008806,101.2129 C14.0968806,101.3699 14.0938806,101.5269 14.0908806,101.6839 C13.9588806,108.3279 14.5188806,114.9029 15.7558806,121.3239 C15.9688806,122.5349 16.2248806,123.7549 16.5168806,124.9729 C13.7888806,124.9989 11.0318806,126.2519 9.75588057,129.0939 L9.71088057,129.2059 C8.64888057,132.1369 9.80588057,134.1229 9.94188057,134.3399 L10.1668806,134.7019 L10.5408806,134.9049 C14.3648806,136.9869 21.2258806,141.5019 25.8508806,149.0249 C28.4798806,153.7449 31.5338806,158.2719 34.9998806,162.5599 C49.6038806,180.6259 69.9028806,192.4299 92.6278806,196.2089 C92.6918806,196.2209 92.7558806,196.2309 92.8208806,196.2419 C93.5728806,196.3659 94.3288806,196.4799 95.0858806,196.5859 C95.2758806,196.6129 95.4648806,196.6419 95.6548806,196.6679 C96.4408806,196.7719 97.2288806,196.8689 98.0208806,196.9539 C98.1048806,196.9629 98.1888806,196.9759 98.2728806,196.9849 C99.3598806,197.0999 100.443881,197.1889 101.525881,197.2659 C103.813881,197.4299 106.095881,197.5189 108.368881,197.5189 C108.612881,197.5189 108.854881,197.5049 109.098881,197.5039 C109.863881,197.4969 110.627881,197.4799 111.388881,197.4549 C112.207881,197.4289 113.024881,197.3879 113.840881,197.3409 C114.275881,197.3149 114.710881,197.2899 115.144881,197.2579 C134.134881,195.8909 152.236881,188.8069 167.354881,176.5849 C185.721881,161.7379 197.621881,141.0059 201.191881,117.8219 C201.224881,117.6139 201.250881,117.4029 201.281881,117.1929 C201.360881,116.6589 201.440881,116.1249 201.510881,115.5879 C201.594881,114.9369 201.670881,114.2829 201.741881,113.6279 C201.753881,113.5229 201.768881,113.4179 201.779881,113.3119 C202.121881,110.0869 202.294881,106.8809 202.308655,103.7049 C202.481881,60.8259 173.328881,23.2229 132.226881,12.3929 M142.784881,97.1679 C142.427881,95.9619 141.747881,94.8749 140.782881,94.0199 C139.422881,92.8119 137.673881,92.2049 135.858881,92.3159 C134.043881,92.4249 132.379881,93.2339 131.171881,94.5959 C122.987881,103.8409 114.276881,106.2859 110.996881,107.2069 C110.664881,107.2999 110.384881,107.3779 110.164881,107.4469 C108.039881,108.1039 107.000881,107.7449 106.333881,107.3599 C105.508881,106.8819 104.918881,106.1119 104.672881,105.1919 C104.423881,104.2559 104.542881,103.4059 105.058881,102.4359 C105.162881,102.2409 105.327881,101.9939 105.526881,101.6879 C106.691881,99.8969 108.860881,96.5629 109.436881,91.1289 C109.731881,88.3449 109.135881,85.8769 107.711881,83.9929 C106.361881,82.2059 104.358881,81.0879 102.072881,80.8469 C100.510881,80.6789 99.2018806,81.1479 99.0568806,81.2009 C98.4838806,81.4149 98.0788806,81.9329 98.0118806,82.5419 C97.1078806,90.7089 89.0778806,99.6469 77.2038806,100.4679 C70.1718806,100.9529 65.6658806,99.3549 63.8678806,98.5359 C67.1278806,74.6579 88.9238806,57.5569 113.012881,60.2349 C132.165881,62.3729 147.156881,76.4049 151.445881,94.1369 C150.526881,93.7689 149.531881,93.5979 148.514881,93.6569 C146.699881,93.7659 145.034881,94.5749 143.795881,95.9729 C143.458881,96.3779 143.121881,96.7709 142.784881,97.1679" id="Fill-1395" fill="#00D461"></path>
                </g>
                <polygon id="Fill-1398" fill="#FFFFFF" points="50.0700806 79.7302 48.7040806 82.5902 36.1930806 76.6122 38.5330806 71.7162 51.3170806 72.2042 40.7180806 67.1392 42.0830806 64.2812 54.5950806 70.2572 52.2570806 75.1552 39.4720806 74.6672"></polygon>
                <g id="Group-1405" transform="translate(49.743392, 29.172732)" fill="#FFFFFF">
                    <path d="M12.1909883,21.740468 C15.0899883,24.296468 15.2529883,29.100468 12.4849883,31.965468 C9.86198828,34.966468 5.06098828,35.212468 2.27098828,32.540468 C-0.630011723,29.984468 -0.777011723,25.194468 1.97598828,22.314468 C4.61198828,19.326468 9.39698828,19.067468 12.1909883,21.740468 M10.0449883,24.075468 C8.17598828,22.360468 5.73298828,22.618468 4.16598828,24.324468 C2.59798828,26.032468 2.54798828,28.489468 4.41698828,30.205468 C6.28198828,31.920468 8.72598828,31.662468 10.2959883,29.954468 C11.8639883,28.247468 11.9119883,25.791468 10.0449883,24.075468" id="Fill-1399"></path>
                    <path d="M16.4545883,10.204968 L20.7335883,17.221968 C21.6825883,18.778968 23.0735883,19.274968 24.5625883,18.367968 C26.0505883,17.459968 26.2465883,15.994968 25.2975883,14.438968 L21.0205883,7.42196802 L23.7265883,5.77196802 L28.0055883,12.788968 C29.8625883,15.832968 29.1515883,18.932968 26.0585883,20.819968 C22.9625883,22.705968 19.8825883,21.915968 18.0275883,18.871968 L13.7495883,11.854968 L16.4545883,10.204968 Z" id="Fill-1401"></path>
                    <path d="M43.7517883,13.228868 C43.4777883,12.915868 43.2537883,12.568868 43.0837883,12.184868 C42.9107883,11.801868 42.7077883,11.157868 42.4637883,10.301868 C42.0897883,8.98886802 41.1877883,8.50486802 39.9497883,8.85686802 L37.4757883,9.56486802 L38.9167883,14.609868 L35.8697883,15.479868 L32.0657883,2.15186802 L38.7287883,0.249868016 C41.5277883,-0.548131984 43.6767883,0.628868016 44.3167883,2.87486802 C44.5297883,3.61886802 44.4827883,4.39286802 44.1977883,5.19586802 C43.9117883,5.99786802 43.4327883,6.62886802 42.7527883,7.13286802 C43.9627883,7.11686802 45.0887883,7.88486802 45.5787883,9.30986802 C46.0247883,10.583868 46.4267883,11.416868 47.0917883,11.946868 L47.1797883,12.250868 L43.7517883,13.228868 Z M40.2097883,5.79886802 C41.2947883,5.48886802 41.6547883,4.72686802 41.4207883,3.90786802 C41.1867883,3.08986802 40.5067883,2.72786802 39.4227883,3.03786802 L35.8977883,4.04386802 L36.6867883,6.80386802 L40.2097883,5.79886802 Z" id="Fill-1403"></path>
                </g>
                <polygon id="Fill-1406" fill="#FFFFFF" points="101.209981 27.1346 104.371981 26.9096 105.362981 40.7406 102.198981 40.9666"></polygon>
                <path d="M115.677281,30.9349 C115.549281,31.9369 116.568281,32.5659 118.333281,33.1289 C121.730281,34.2199 123.099281,35.3929 122.771281,37.9689 C122.464281,40.3839 120.116281,41.8839 116.636281,41.4409 C115.203281,41.2589 113.965281,40.7819 112.886281,40.0049 C111.808281,39.2289 111.077281,38.0579 110.678281,36.4899 L113.542281,35.1559 C113.855281,37.2539 115.179281,38.4599 117.086281,38.7029 C118.501281,38.8819 119.505281,38.5119 119.613281,37.6649 C119.734281,36.7229 119.185281,36.1739 116.793281,35.5099 C113.936281,34.7269 112.204281,33.1089 112.537281,30.4949 C112.809281,28.3539 115.016281,26.8559 118.142281,27.2549 C120.756281,27.5869 122.514281,29.0079 123.011281,31.3689 L120.268281,32.5169 C119.977281,30.8829 119.181281,30.0839 117.705281,29.8959 C116.586281,29.7529 115.769281,30.2089 115.677281,30.9349" id="Fill-1407" fill="#FFFFFF"></path>
                <polygon id="Fill-1409" fill="#FFFFFF" points="131.848881 39.4481 129.779881 44.3771 126.857881 43.1511 132.222881 30.3751 135.143881 31.6001 132.959881 36.8031 138.618881 39.1771 140.799881 33.9761 143.722881 35.2021 138.358881 47.9781 135.437881 46.7531 137.506881 41.8241"></polygon>
                <polygon id="Fill-1410" fill="#FFFFFF" points="151.199481 39.9348 153.786481 41.7618 145.790481 53.0798 143.202481 51.2508"></polygon>
                <polygon id="Fill-1411" fill="#FFFFFF" points="152.592581 58.8206 150.474581 56.4636 160.784581 47.2016 164.411581 51.2386 159.061581 62.8546 167.798581 55.0096 169.913581 57.3666 159.602581 66.6266 155.977581 62.5916 161.326581 50.9756"></polygon>
                <g id="Group-1418" transform="translate(53.819460, 66.844972)" fill="#FFFFFF">
                    <path d="M114.686521,0.673527877 C118.247521,-1.06047212 122.617521,0.693527877 124.234521,4.33252788 C125.805521,7.73252788 124.972521,10.6045279 122.673521,12.4755279 L120.510521,10.1135279 C121.999521,8.98952788 122.424521,7.26452788 121.626521,5.53852788 C120.637521,3.39852788 118.261521,2.51152788 116.013521,3.55052788 C114.846521,4.09052788 114.043521,4.85452788 113.648521,5.84452788 C113.255521,6.83452788 113.331521,7.89052788 113.853521,9.02352788 C114.667521,10.7845279 116.257521,11.2515279 117.095521,11.0805279 L114.900521,6.33452788 L117.239521,5.25352788 L121.153521,13.7245279 L114.501521,16.7985279 L113.338521,14.2815279 L115.871521,13.1095279 C113.875521,13.1815279 112.125521,12.1335279 111.120521,9.95852788 C109.455521,6.49652788 110.811521,2.39852788 114.686521,0.673527877" id="Fill-1412"></path>
                    <path d="M4.48832079,91.2566279 C6.22532079,92.8486279 8.27932079,92.6876279 10.1813208,91.2866279 L11.5383208,94.1176279 C8.63732079,96.0806279 5.33532079,95.9306279 2.53232079,93.3606279 C-0.725679212,90.3756279 -0.767679212,86.1996279 1.99032079,83.1896279 C4.62332079,80.2016279 9.22732079,80.0416279 12.1673208,82.8436279 C14.8703208,85.3186279 15.2133208,88.3766279 13.8983208,90.6916279 L10.8683208,89.6866279 C11.8743208,88.0006279 11.6003208,86.2196279 10.1843208,84.9226279 C8.54832079,83.4226279 6.06632079,83.4336279 4.32732079,85.3306279 C2.56032079,87.2586279 2.85132079,89.7576279 4.48832079,91.2566279" id="Fill-1414"></path>
                    <path d="M22.2643208,106.277828 C22.2733208,105.861828 22.3453208,105.454828 22.4783208,105.056828 C22.6113208,104.655828 22.8963208,104.047828 23.2973208,103.250828 C23.9123208,102.029828 23.5763208,101.063828 22.4273208,100.486828 L20.1263208,99.3298279 L17.7693208,104.017828 L14.9373208,102.594828 L21.1623208,90.2098279 L27.3563208,93.3198279 C29.9573208,94.6278279 30.7413208,96.9488279 29.6913208,99.0388279 C29.3453208,99.7278279 28.7863208,100.268828 28.0323208,100.664828 C27.2793208,101.062828 26.4983208,101.201828 25.6573208,101.112828 C26.5613208,101.919828 26.8673208,103.247828 26.2623208,104.629828 C25.7283208,105.868828 25.4603208,106.754828 25.5923208,107.595828 L25.4493208,107.878828 L22.2643208,106.277828 Z M24.6893208,98.4078279 C25.6963208,98.9168279 26.4783208,98.5988279 26.8613208,97.8368279 C27.2433208,97.0758279 26.9883208,96.3498279 25.9783208,95.8408279 L22.7043208,94.1978279 L21.4143208,96.7648279 L24.6893208,98.4078279 Z" id="Fill-1416"></path>
                </g>
                <polygon id="Fill-1419" fill="#FFFFFF" points="100.731081 166.0872 100.141081 168.8982 92.7550806 167.3472 92.2480806 169.7702 99.0520806 171.1992 98.4600806 174.0082 91.6560806 172.5792 91.0860806 175.2942 98.6660806 176.8852 98.0760806 179.6962 87.3950806 177.4552 90.2440806 163.8852"></polygon>
                <path d="M110.018981,166.3017 L114.565981,165.9977 L120.918981,179.4757 L117.459981,179.7047 L116.201981,176.9087 L109.836981,177.3297 L108.958981,180.2677 L105.499981,180.4977 L110.018981,166.3017 Z M114.944981,174.1137 L112.455981,168.6007 L110.713981,174.3937 L114.944981,174.1137 Z" id="Fill-1420" fill="#FFFFFF"></path>
                <polygon id="Fill-1421" fill="#FFFFFF" points="134.470581 163.9946 129.945581 165.4576 133.326581 175.9216 130.310581 176.8966 126.929581 166.4316 122.402581 167.8936 121.520581 165.1606 133.587581 161.2616"></polygon>
                <polygon id="Fill-1422" fill="#FFFFFF" points="137.519681 159.0454 140.286681 157.4974 147.057681 169.5994 144.290681 171.1464"></polygon>
                <polygon id="Fill-1423" fill="#FFFFFF" points="152.645781 148.0107 155.231781 145.7287 160.574781 159.5087 157.128781 162.5487 144.121781 155.5347 146.703781 153.2537 157.239781 159.2017"></polygon>
                <polygon id="Fill-1424" fill="#FFFFFF" points="157.696681 142.1474 159.581681 139.6004 170.726681 147.8484 168.840681 150.3944"></polygon>
                <polygon id="Fill-1425" fill="#FFFFFF" points="170.295081 125.766 168.268081 130.061 178.199081 134.749 176.850081 137.61 166.916081 132.924 164.889081 137.219 162.294081 135.993 167.700081 124.54"></polygon>
                <polygon id="Fill-1426" fill="#FFFFFF" points="175.349181 115.5593 170.573181 111.4773 171.189181 108.0683 178.670181 114.5493 183.931181 115.5013 183.367181 118.6173 178.107181 117.6693 168.830181 121.1223 169.481181 117.5173"></polygon>
                <path d="M181.340012,94.8839 C181.345981,93.8349 180.499981,92.9809 179.450981,92.9749 C178.499981,92.9699 177.715981,93.6669 177.572981,94.5789 L177.514981,94.5779 C177.381981,93.6649 176.604981,92.9599 175.653981,92.9538781 C174.604981,92.9489 173.749981,93.8009 173.74496,94.8429 C173.738981,95.8849 175.026981,97.0389 175.026981,97.0389 L177.516981,99.5559 L180.033981,97.0659 C180.033981,97.0659 181.333981,95.9319 181.340012,94.8839" id="Fill-1427" fill="#363D45"></path>
                <path d="M202.369681,107.7991 C202.434681,106.4381 202.482681,105.0781 202.489681,103.7221 C202.489681,103.6631 202.486681,103.6051 202.486681,103.5451 C202.560681,81.9441 195.286681,61.1421 181.520681,44.1141 C167.742681,27.0691 148.901681,15.5881 127.736681,11.1441 C127.703681,11.1371 127.670681,11.1281 127.636681,11.1211 C126.275681,10.8371 124.902681,10.5911 123.522681,10.3651 C123.310681,10.3301 123.103681,10.2841 122.891681,10.2511 C121.312681,10.0041 119.723681,9.7931 118.123681,9.6231 C93.0886806,6.9661 68.4976806,14.2261 48.9086806,30.0621 C29.3206806,45.8961 17.0706806,68.4101 14.4166806,93.4571 C14.2586806,94.9441 14.1456806,96.4311 14.0576806,97.9161 C14.0316806,98.3691 14.0186806,98.8201 13.9996806,99.2721 C13.9516806,100.3251 13.9186806,101.3771 13.9066806,102.4281 C13.9006806,102.9101 13.9016806,103.3901 13.9036806,103.8711 C13.9076806,104.9361 13.9316806,105.9991 13.9716806,107.0611 C13.9866806,107.4721 13.9996806,107.8841 14.0206806,108.2941 C14.0856806,109.5661 14.1776806,110.8361 14.2936806,112.1031 C14.3106806,112.2841 14.3216806,112.4661 14.3386806,112.6461 C14.5696806,115.0031 14.8976806,117.3491 15.3076806,119.6841 C15.5446806,121.3671 15.8816806,123.0851 16.2856806,124.7971 C15.9186806,124.8101 15.5536806,124.8491 15.1896806,124.9081 C15.0756806,124.9261 14.9656806,124.9561 14.8516806,124.9791 C14.5496806,125.0401 14.2526806,125.1171 13.9586806,125.2121 C13.8306806,125.2541 13.7036806,125.2961 13.5776806,125.3441 C13.2466806,125.4701 12.9246806,125.6181 12.6116806,125.7901 C12.5546806,125.8221 12.4936806,125.8451 12.4366806,125.8781 C12.0776806,126.0901 11.7386806,126.3411 11.4156806,126.6181 C11.3256806,126.6951 11.2436806,126.7821 11.1566806,126.8641 C10.9186806,127.0911 10.6946806,127.3381 10.4846806,127.6061 C10.4036806,127.7081 10.3226806,127.8081 10.2466806,127.9161 C9.98368057,128.2921 9.73868057,128.6921 9.53768057,129.1421 C8.63568057,131.6301 9.29068057,133.4471 9.62768057,134.1381 C9.69868057,134.2851 9.76068057,134.3991 9.78468057,134.4381 L10.0366806,134.8391 L10.4516806,135.0661 C12.9866806,136.4451 16.8606806,138.8981 20.5266806,142.5931 C22.7256806,144.8091 24.8486806,147.4721 26.5626806,150.6181 C26.5746806,150.6411 26.5936806,150.6561 26.6066806,150.6781 C28.9466806,154.7081 31.5976806,158.5051 34.4696806,162.1001 C34.7016806,162.3911 34.9306806,162.6841 35.1666806,162.9721 C35.8776806,163.8411 36.6016806,164.6951 37.3416806,165.5361 C37.7676806,166.0231 38.2036806,166.5001 38.6396806,166.9781 C39.2676806,167.6621 39.8936806,168.3481 40.5406806,169.0131 C41.3706806,169.8701 42.2256806,170.7021 43.0876806,171.5281 C43.3866806,171.8131 43.6726806,172.1111 43.9756806,172.3921 C54.5006806,182.2111 67.3286806,189.6691 81.6806806,193.8671 C81.8026806,193.9031 81.9246806,193.9381 82.0476806,193.9741 C83.5686806,194.4121 85.1076806,194.8131 86.6626806,195.1771 C86.9676806,195.2491 87.2716806,195.3241 87.5786806,195.3931 C88.9816806,195.7071 90.3986806,195.9841 91.8266806,196.2351 C92.2056806,196.3021 92.5806806,196.3811 92.9606806,196.4431 C94.7086806,196.7281 96.4696806,196.9761 98.2516806,197.1651 C101.635681,197.5241 105.011681,197.7021 108.367681,197.7021 C127.164681,197.7021 145.345681,192.1281 160.946681,181.5601 C163.174681,180.0501 165.350681,178.4391 167.468681,176.7271 C187.056681,160.8921 199.305681,138.3781 201.960681,113.3311 C202.129681,111.7331 202.256681,110.1371 202.345681,108.5441 C202.359681,108.2941 202.357681,108.0481 202.369681,107.7991 M18.8206806,136.2711 C18.4066806,135.9471 18.0126806,135.6721 17.6096806,135.3771 C17.2796806,135.1351 16.9396806,134.8691 16.6196806,134.6461 C15.1936806,133.6551 13.8716806,132.8471 12.7466806,132.2131 C12.7026806,132.0351 12.6676806,131.7951 12.6776806,131.5061 C12.6866806,131.2161 12.7416806,130.8751 12.8776806,130.4951 C13.5406806,129.0191 15.1186806,128.3861 16.6686806,128.3971 C16.8596806,128.3991 17.0486806,128.4201 17.2376806,128.4401 C17.8306806,130.5051 18.4836806,132.5001 19.1416806,134.3551 C19.3356806,134.9111 19.5386806,135.4621 19.7426806,136.0131 C19.9356806,136.5301 20.1246806,137.0311 20.3116806,137.5161 C20.2146806,137.4341 20.1186806,137.3551 20.0216806,137.2741 C19.6206806,136.9381 19.2156806,136.5811 18.8206806,136.2711 M165.201681,173.9231 C146.361681,189.1521 122.722681,196.1341 98.6306806,193.5791 C96.9216806,193.3981 95.2256806,193.1621 93.5396806,192.8851 C93.1776806,192.8261 92.8216806,192.7501 92.4616806,192.6861 C91.0866806,192.4431 89.7166806,192.1801 88.3586806,191.8741 C88.0696806,191.8091 87.7836806,191.7371 87.4956806,191.6701 C85.9986806,191.3171 84.5096806,190.9351 83.0366806,190.5071 C82.9256806,190.4751 82.8146806,190.4431 82.7036806,190.4101 C69.1596806,186.4221 56.7236806,179.3121 46.4216806,169.7441 C46.1566806,169.4961 45.9046806,169.2361 45.6416806,168.9851 C44.7846806,168.1701 43.9416806,167.3401 43.1156806,166.4901 C42.5056806,165.8601 41.9126806,165.2161 41.3216806,164.5691 C40.8906806,164.0991 40.4616806,163.6261 40.0406806,163.1471 C39.3376806,162.3441 38.6446806,161.5331 37.9696806,160.7061 C37.7346806,160.4191 37.5056806,160.1251 37.2726806,159.8341 C32.0176806,153.2331 27.6666806,145.9101 24.4036806,138.0591 C24.3546806,137.9381 24.3066806,137.8191 24.2546806,137.6921 C23.8776806,136.7721 23.5276806,135.8401 23.1796806,134.9061 C22.9596806,134.3131 22.7346806,133.6941 22.5056806,133.0431 C21.6526806,130.5911 20.8906806,128.0991 20.2486806,125.5641 C20.2026806,125.3781 20.1606806,125.1921 20.1146806,125.0061 C19.8206806,123.8121 19.5496806,122.6101 19.3036806,121.3991 C19.2426806,121.0981 19.1866806,120.7961 19.1286806,120.4941 C18.9966806,119.8101 18.8866806,119.1201 18.7706806,118.4311 C18.4646806,115.9411 18.4206806,113.5851 18.7896806,111.5821 C19.1216806,109.7831 19.8416806,108.5111 20.8716806,107.9061 C21.3336806,107.6341 21.8696806,107.5141 22.4356806,107.5161 C22.5806806,117.2281 25.2266806,132.2611 34.2756806,145.2721 C34.6266806,145.7751 35.1876806,146.0451 35.7576806,146.0451 C36.1126806,146.0451 36.4716806,145.9401 36.7866806,145.7221 C37.6036806,145.1541 37.8046806,144.0301 37.2366806,143.2121 C24.3116806,124.6301 25.5406806,102.6431 26.7796806,99.5731 C27.3776806,98.0931 28.3196806,97.3541 29.7476806,97.2471 C31.5956806,97.0931 33.2366806,98.5081 33.3736806,100.3121 C33.4866806,102.8951 33.6136806,105.3271 33.7796806,107.6661 C33.7806806,107.6831 33.7766806,107.7001 33.7776806,107.7171 C33.7786806,107.7251 33.7836806,107.7321 33.7846806,107.7401 C34.6156806,119.3991 36.5246806,128.5061 43.6526806,139.8281 C44.1836806,140.6721 45.2966806,140.9241 46.1396806,140.3941 C46.9816806,139.8631 47.2356806,138.7491 46.7046806,137.9071 C39.9976806,127.2511 38.1766806,118.5641 37.3766806,107.3871 C37.2786806,105.6051 38.7496806,103.9941 40.6256806,103.8531 C41.5556806,103.7791 42.4036806,104.0741 43.0856806,104.6621 C43.7716806,105.2521 44.1866806,106.0731 44.2536806,106.9721 C45.2586806,120.5391 51.3096806,128.7511 53.2986806,131.4501 L53.6496806,131.9301 C55.2166806,134.1241 57.0026806,135.3191 59.1056806,135.5861 C60.9516806,135.8181 62.7936806,135.3211 64.2676806,134.1771 C65.7896806,132.9971 66.6836806,131.4331 66.9206806,129.5291 C66.9566806,129.2361 66.9756806,128.8411 66.9946806,128.3541 C67.0646806,126.5061 67.1966806,123.0651 69.4616806,119.0111 C71.4926806,115.3761 74.5846806,114.9701 76.7516806,116.1801 C76.8856806,116.2541 77.0106806,116.3391 77.1226806,116.4251 C74.0896806,122.4361 74.2116806,130.0811 77.5226806,136.7261 C80.0556806,141.8101 86.6816806,150.5751 102.596681,152.3131 C102.643681,152.3231 102.682681,152.3511 102.731681,152.3571 C104.539681,152.5591 106.342681,152.6591 108.139681,152.6591 C110.840681,152.6591 113.520681,152.4031 116.173681,151.9481 C116.730681,151.8561 117.282681,151.7561 117.832681,151.6451 C118.113681,151.5871 118.395681,151.5331 118.675681,151.4691 C136.855681,147.4691 151.259681,133.2991 155.111681,114.3551 C155.202681,113.9781 155.275681,113.6061 155.313681,113.2451 C155.511681,112.1461 155.686681,111.0381 155.812681,109.9111 C156.194681,106.4771 156.195681,103.0891 155.864681,99.7831 C155.849681,99.5901 155.828681,99.3991 155.797681,99.2101 C153.345681,77.4131 136.086681,59.3661 113.390681,56.8331 C87.1066806,53.8961 63.3206806,72.8711 60.3286806,99.1421 C60.3286806,99.1431 60.3276806,99.1441 60.3276806,99.1451 C60.3236806,99.1821 60.3166806,99.2181 60.3126806,99.2551 C60.3026806,99.3471 60.3326806,99.4301 60.3366806,99.5191 C60.3416806,99.6471 60.3376806,99.7721 60.3696806,99.8961 C60.4006806,100.0181 60.4606806,100.1231 60.5156806,100.2341 C60.5616806,100.3291 60.5976806,100.4261 60.6606806,100.5121 C60.7486806,100.6321 60.8616806,100.7231 60.9756806,100.8181 C61.0316806,100.8651 61.0666806,100.9271 61.1296806,100.9681 C61.1406806,100.9751 61.1746806,100.9961 61.2086806,101.0161 C61.2176806,101.0211 61.2256806,101.0271 61.2346806,101.0321 C62.0696806,101.5321 67.5756806,104.5611 77.4356806,103.8831 C87.7696806,103.1691 99.1936806,95.6771 101.223681,84.2381 C101.377681,84.2301 101.541681,84.2331 101.710681,84.2511 C103.044681,84.3921 104.205681,85.0331 104.977681,86.0571 C105.867681,87.2351 106.231681,88.8641 106.029681,90.7681 C105.540681,95.3821 103.664681,98.2691 102.656681,99.8191 C102.390681,100.2301 102.175681,100.5651 102.037681,100.8251 C101.106681,102.5701 100.885681,104.2871 101.363681,106.0761 C101.846681,107.8791 103.002681,109.3871 104.617681,110.3221 C105.666681,110.9291 106.813681,111.2321 108.085681,111.2311 C109.042681,111.2311 110.068681,111.0591 111.175681,110.7171 C111.372681,110.6561 111.623681,110.5861 111.922681,110.5021 C115.467681,109.5071 124.881681,106.8631 133.731681,96.8661 C134.971681,95.4721 137.114681,95.3421 138.508681,96.5801 C139.904681,97.8191 140.033681,99.9621 138.795681,101.3581 C138.762681,101.3941 138.753681,101.4411 138.724681,101.4801 C131.135681,109.6411 122.975681,115.8731 111.263681,119.6691 C110.316681,119.9761 109.796681,120.9931 110.103681,121.9401 C110.410681,122.8871 111.424681,123.4091 112.374681,123.1001 C127.473681,118.2061 136.905681,109.5921 146.387681,98.2071 C147.624681,96.8141 149.767681,96.6811 151.164681,97.9211 C152.237681,98.8721 152.539681,100.0311 152.118681,101.5701 C151.409681,104.1631 138.095681,122.5821 115.745681,129.5461 C114.795681,129.8431 114.265681,130.8541 114.561681,131.8041 C114.802681,132.5761 115.514681,133.0721 116.282681,133.0721 C116.459681,133.0721 116.641681,133.0451 116.819681,132.9901 C132.530681,128.0941 144.324681,117.7861 150.599681,110.2811 C150.995681,110.5501 151.350681,110.9051 151.551681,111.3871 C151.734681,111.8251 151.772681,112.3591 151.698681,112.9551 C151.668681,113.1141 151.640681,113.2741 151.609681,113.4321 C151.480681,114.0201 151.266681,114.6541 150.920681,115.3491 C148.068681,121.0781 137.342681,132.2901 120.695681,137.9831 C119.752681,138.3061 119.250681,139.3311 119.572681,140.2731 C119.829681,141.0221 120.529681,141.4931 121.278681,141.4931 C121.473681,141.4931 121.668681,141.4621 121.862681,141.3951 C129.906681,138.6441 136.600681,134.7131 141.831681,130.6311 C141.871681,130.5991 141.951681,130.5371 141.951681,130.5371 C141.951681,130.5371 143.433681,131.5851 142.061681,133.1841 C140.293681,135.2451 138.683681,136.8131 137.641681,137.7611 C136.547681,138.7571 135.850681,139.2861 135.805681,139.3211 C131.297681,142.9251 126.218681,145.5821 120.710681,147.2201 C120.087681,147.4061 119.461681,147.5711 118.833681,147.7281 C113.863681,148.9381 108.571681,149.3231 103.124681,148.7481 C88.8086806,147.2311 82.9616806,139.5571 80.7496806,135.1171 C77.7556806,129.1071 77.8086806,122.1891 80.8876806,117.0631 C81.2486806,116.4591 81.2266806,115.6991 80.8296806,115.1181 C80.7406806,114.9871 79.9156806,113.8171 78.5096806,113.0321 C74.9006806,111.0161 69.5426806,111.4741 66.3126806,117.2521 C63.6266806,122.0621 63.4686806,126.2191 63.3916806,128.2161 C63.3776806,128.5741 63.3696806,128.8651 63.3426806,129.0801 C63.2226806,130.0381 62.8266806,130.7311 62.0576806,131.3271 C61.3426806,131.8811 60.4486806,132.1251 59.5596806,132.0081 C58.8316806,131.9161 57.8366806,131.5861 56.5846806,129.8341 L56.2026806,129.3111 C54.3666806,126.8191 48.7786806,119.2361 47.8506806,106.7041 C47.7096806,104.8421 46.8536806,103.1461 45.4386806,101.9281 C44.0216806,100.7111 42.2216806,100.1161 40.3566806,100.2561 C39.1226806,100.3491 38.0046806,100.7711 37.0346806,101.3891 C37.0146806,100.9581 36.9936806,100.5361 36.9736806,100.0971 C36.6826806,96.2531 33.3176806,93.3561 29.4786806,93.6501 C26.6876806,93.8601 24.5416806,95.4841 23.4366806,98.2231 C23.0046806,99.2921 22.6506806,101.2811 22.5026806,103.9301 C21.2776806,103.9141 20.0916806,104.1801 19.0426806,104.7971 C18.5746806,105.0731 18.0586806,105.4671 17.5556806,105.9971 C17.5376806,105.3591 17.5196806,104.7221 17.5156806,104.0821 C17.5126806,103.6311 17.5016806,103.1811 17.5048154,102.7311 C17.5136806,101.6601 17.5536806,100.5831 17.5996806,99.5061 C17.6176806,99.0971 17.6236806,98.6881 17.6466806,98.2781 C17.7306806,96.8021 17.8466806,95.3231 18.0036806,93.8371 C20.5546806,69.7481 32.3366806,48.0941 51.1746806,32.8661 C52.2796806,31.9731 53.4036806,31.1141 54.5396806,30.2781 C54.9116806,30.0051 55.2926806,29.7461 55.6686806,29.4791 C56.4426806,28.9271 57.2196806,28.3801 58.0076806,27.8551 C58.4556806,27.5571 58.9086806,27.2701 59.3596806,26.9801 C60.0966806,26.5081 60.8366806,26.0431 61.5836806,25.5931 C62.0566806,25.3091 62.5326806,25.0301 63.0096806,24.7541 C63.7606806,24.3201 64.5176806,23.9001 65.2796806,23.4891 C65.7516806,23.2341 66.2246806,22.9781 66.7016806,22.7311 C67.5116806,22.3131 68.3296806,21.9131 69.1506806,21.5191 C69.5826806,21.3121 70.0116806,21.0981 70.4466806,20.8981 C71.4696806,20.4281 72.5036806,19.9831 73.5426806,19.5521 C73.7796806,19.4541 74.0126806,19.3451 74.2506806,19.2491 C75.5436806,18.7261 76.8476806,18.2341 78.1616806,17.7731 C78.4576806,17.6691 78.7586806,17.5781 79.0556806,17.4771 C80.0686806,17.1331 81.0846806,16.8011 82.1096806,16.4931 C82.5576806,16.3591 83.0096806,16.2371 83.4606806,16.1101 C84.3466806,15.8591 85.2356806,15.6161 86.1306806,15.3931 C86.6226806,15.2701 87.1166806,15.1541 87.6116806,15.0401 C88.4836806,14.8371 89.3586806,14.6481 90.2366806,14.4711 C90.7336806,14.3721 91.2316806,14.2741 91.7316806,14.1821 C92.6376806,14.0161 93.5476806,13.8691 94.4596806,13.7311 C94.9266806,13.6601 95.3936806,13.5841 95.8616806,13.5211 C96.8926806,13.3811 97.9286806,13.2671 98.9656806,13.1631 C99.3156806,13.1281 99.6636806,13.0821 100.014681,13.0511 C101.419681,12.9271 102.828681,12.8321 104.243681,12.7731 C104.333681,12.7691 104.424681,12.7711 104.515681,12.7671 C105.801681,12.7181 107.092681,12.6981 108.385681,12.702354 C109.382681,12.7071 110.383681,12.7461 111.384681,12.7831 C111.940681,12.8031 112.494681,12.8061 113.051681,12.8371 C114.613681,12.9221 116.178681,13.0431 117.744681,13.2091 C119.285681,13.3721 120.812681,13.5741 122.325681,13.8121 C122.556681,13.8491 122.782681,13.8991 123.012681,13.9361 C124.313681,14.1511 125.609681,14.3801 126.888681,14.6491 C126.941681,14.6601 126.992681,14.6741 127.044681,14.6851 C168.863681,23.5411 198.995681,60.8221 198.879681,103.5711 C198.879681,103.6161 198.881885,103.6611 198.881885,103.7061 C198.876681,105.0251 198.828681,106.3511 198.765681,107.6791 C198.754681,107.9011 198.755681,108.1221 198.743681,108.3431 C198.658681,109.8741 198.536681,111.4101 198.373681,112.9511 C195.821681,137.0401 184.040681,158.6941 165.201681,173.9231 M142.833681,96.8251 C142.455681,95.7301 141.830681,94.7051 140.903681,93.8821 C138.020681,91.3251 133.592681,91.5881 131.031681,94.4751 C122.886681,103.6781 114.212681,106.1131 110.947681,107.0311 C110.612681,107.1251 110.330681,107.2041 110.108681,107.2721 C108.054681,107.9081 107.057681,107.5681 106.423681,107.2011 C105.640681,106.7481 105.080681,106.0171 104.847681,105.1451 C104.611681,104.2571 104.725681,103.4491 105.219681,102.5201 C105.321681,102.3291 105.484681,102.0861 105.680681,101.7851 C106.852681,99.9801 109.035681,96.6221 109.616681,91.1481 C109.915681,88.3171 109.308681,85.8051 107.855681,83.8831 C106.475681,82.0551 104.427681,80.9121 102.089681,80.6651 C100.503681,80.4931 99.1436806,80.9731 98.9936806,81.0291 C98.3546806,81.2661 97.9046806,81.8431 97.8296806,82.5201 C96.6876806,92.8271 86.4376806,99.6471 77.1886806,100.2851 C70.3516806,100.7551 65.9206806,99.2481 64.0656806,98.4261 C67.3746806,74.7161 89.0526806,57.7381 112.989681,60.4171 C131.943681,62.5321 146.803681,76.3431 151.182681,93.8441 C148.593681,92.9641 145.604681,93.6561 143.653681,95.8571 C143.380681,96.1851 143.107681,96.5021 142.833681,96.8251" id="Fill-1429" fill="#363D45"></path>
            </g>
        </g>
    </g>
</svg>