<?xml version="1.0" encoding="UTF-8"?>
<svg width="118px" height="235px" viewBox="0 0 118 235" version="1.1" xmlns="http://www.w3.org/2000/svg" xmlns:xlink="http://www.w3.org/1999/xlink">
    <title>sticker6</title>
    <g id="Page-1" stroke="none" stroke-width="1" fill="none" fill-rule="evenodd">
        <g id="Artboard-17-Copy" transform="translate(-960.000000, -451.000000)">
            <g id="sticker6" transform="translate(960.700252, 451.544244)">
                <path d="M58.6330481,234.187112 C26.4350481,234.230056 0.207048126,209.399056 0.166048126,178.834056 L5.68434189e-14,55.5100558 C-0.0409518738,24.9450558 26.1200481,0.0430557634 58.3180481,1.42108547e-12 C90.5160481,-0.0429442366 116.743048,24.7880558 116.785048,55.3520558 L116.951096,178.677056 C116.992048,209.242056 90.8310481,234.144056 58.6330481,234.187112" id="Fill-1258" fill="#FF4D21"></path>
                <polygon id="Fill-1260" fill="#FFFFFF" points="25.2224481 43.7308558 27.3444481 44.5978558 25.1094481 50.0718558 27.1594481 50.9078558 29.2154481 45.8738558 31.3374481 46.7398558 29.2814481 51.7758558 33.2334481 53.3888558 32.2764481 55.7308558 22.0314481 51.5468558"></polygon>
                <g id="Group-1267" transform="translate(30.163496, 24.902956)" fill="#FFFFFF">
                    <path d="M10.0518523,10.5318 C12.2018523,12.7408 12.0378523,16.5708 9.66285231,18.6828 C7.39485231,20.9088 3.56285231,20.8128 1.50485231,18.5168 C-0.645147692,16.3078 -0.470147692,12.4888 1.89385231,10.3668 C4.17185231,8.1518 7.99385231,8.2368 10.0518523,10.5318 M8.20285231,12.2588 C6.82285231,10.7798 4.86385231,10.8358 3.51285231,12.0998 C2.16085231,13.3618 1.97185231,15.3128 3.35285231,16.7908 C4.73385231,18.2698 6.69285231,18.2128 8.04385231,16.9498 C9.39585231,15.6868 9.58385231,13.7368 8.20285231,12.2588" id="Fill-1261"></path>
                    <path d="M23.8105523,5.6073 C24.7815523,8.5343 22.9645523,11.9113 19.9045523,12.7763 C16.8925523,13.7913 13.4845523,12.0333 12.6315523,9.0683 C11.6605523,6.1423 13.4815523,2.7803 16.5365523,1.9013 C19.5545523,0.8993 22.9585523,2.6433 23.8105523,5.6073 M21.3935523,6.3553 C20.7945523,4.4213 19.0065523,3.6193 17.2385523,4.1663 C15.4715523,4.7143 14.4495523,6.3863 15.0495523,8.3203 C15.6475523,10.2533 17.4355523,11.0583 19.2035523,10.5103 C20.9705523,9.9633 21.9915523,8.2883 21.3935523,6.3553" id="Fill-1263"></path>
                    <path d="M27.7560523,0 L32.0780523,0.488 C35.8030523,0.908 37.7250523,3.337 37.3430523,6.731 C36.9850523,9.907 34.5470523,11.908 30.9170523,11.497 L26.5160523,11.001 L27.7560523,0 Z M29.2880523,9.006 L31.0950523,9.21 C33.3580523,9.465 34.6140523,8.35 34.8280523,6.448 C35.0640523,4.358 34.0540523,3.018 31.7430523,2.758 L30.0140523,2.563 L29.2880523,9.006 Z" id="Fill-1265"></path>
                </g>
                <polygon id="Fill-1268" fill="#FFFFFF" points="84.7616481 38.3163558 81.7836481 35.9663558 76.3486481 42.8513558 74.3626481 41.2843558 79.7986481 34.3993558 76.8206481 32.0483558 78.2406481 30.2493558 86.1806481 36.5173558"></polygon>
                <g id="Group-1279" transform="translate(6.482048, 7.269056)">
                    <path d="M83.1451,45.4913 C80.4331,46.9613 76.7891,45.7603 75.4031,42.8993 C73.8761,40.1103 75.0131,36.4463 77.7831,35.0893 C80.4951,33.6203 84.1241,34.8273 85.5251,37.6823 C87.0371,40.4783 85.9151,44.1343 83.1451,45.4913 M81.9851,43.2423 C83.7841,42.3153 84.2641,40.4133 83.4161,38.7683 C82.5681,37.1243 80.7411,36.4103 78.9421,37.3383 C77.1421,38.2663 76.6641,40.1683 77.5121,41.8123 C78.3601,43.4573 80.1861,44.1703 81.9851,43.2423" id="Fill-1269" fill="#FFFFFF"></path>
                    <path d="M50.7845,8.215 L50.5755,0.017 C50.9965,0.006 51.4185,0.001 51.8415,1.13686838e-13 L51.8595,8.201 C51.5015,8.202 51.1415,8.206 50.7845,8.215" id="Fill-1271" fill="#FFE600"></path>
                    <path d="M55.234,220.8012 L54.768,212.6132 C55.492,212.5722 56.213,212.5142 56.927,212.4402 L57.777,220.5972 C56.935,220.6842 56.088,220.7522 55.234,220.8012 L55.234,220.8012 Z M48.866,220.7992 C48.015,220.7502 47.168,220.6812 46.328,220.5942 L47.178,212.4372 C47.894,212.5122 48.616,212.5692 49.343,212.6122 L48.866,220.7992 Z M64.065,219.5732 L62.279,211.5692 C62.987,211.4112 63.688,211.2372 64.38,211.0472 L66.542,218.9582 C65.725,219.1812 64.899,219.3862 64.065,219.5732 L64.065,219.5732 Z M40.04,219.5652 C39.216,219.3812 38.382,219.1722 37.556,218.9452 L39.733,211.0382 C40.424,211.2282 41.123,211.4042 41.828,211.5612 L40.04,219.5652 Z M72.591,216.9052 L69.5,209.3102 C70.168,209.0382 70.828,208.7502 71.479,208.4492 L74.936,215.8842 C74.168,216.2412 73.379,216.5852 72.591,216.9052 L72.591,216.9052 Z M31.514,216.8922 C30.732,216.5732 29.943,216.2282 29.168,215.8672 L32.631,208.4342 C33.281,208.7372 33.941,209.0252 34.609,209.2972 L31.514,216.8922 Z M80.565,212.8422 L76.237,205.8782 C76.85,205.4962 77.453,205.1002 78.044,204.6912 L82.711,211.4342 C82.006,211.9212 81.284,212.3962 80.565,212.8422 L80.565,212.8422 Z M23.545,212.8222 C22.822,212.3702 22.11,211.9032 21.412,211.4202 L26.081,204.6772 C26.67,205.0862 27.272,205.4812 27.883,205.8622 L23.545,212.8222 Z M87.743,207.4682 L82.276,201.3552 C82.814,200.8742 83.338,200.3802 83.85,199.8762 L89.611,205.7112 C88.997,206.3172 88.369,206.9092 87.743,207.4682 L87.743,207.4682 Z M16.386,207.4542 C15.752,206.8862 15.124,206.2952 14.521,205.6982 L20.291,199.8712 C20.8,200.3752 21.321,200.8662 21.857,201.3452 L16.386,207.4542 Z M93.882,200.9062 L87.414,195.8632 C87.855,195.2982 88.28,194.7222 88.69,194.1372 L95.41,198.8362 C94.919,199.5382 94.405,200.2342 93.882,200.9062 L93.882,200.9062 Z M10.253,200.8942 C9.723,200.2122 9.21,199.5172 8.731,198.8312 L15.451,194.1322 C15.862,194.7192 16.289,195.2972 16.73,195.8642 L10.253,200.8942 Z M98.744,193.3222 L91.457,189.5612 C91.786,188.9242 92.099,188.2772 92.386,187.6372 L99.865,191.0012 C99.517,191.7752 99.14,192.5552 98.744,193.3222 L98.744,193.3222 Z M5.399,193.3162 C5.003,192.5492 4.626,191.7662 4.277,190.9892 L11.759,187.6322 C12.047,188.2732 12.359,188.9202 12.686,189.5562 L5.399,193.3162 Z M102.102,184.9502 L94.234,182.6422 C94.434,181.9592 94.616,181.2662 94.776,180.5822 L102.762,182.4502 C102.567,183.2802 102.346,184.1212 102.102,184.9502 L102.102,184.9502 Z M2.041,184.9322 C1.798,184.1002 1.577,183.2572 1.382,182.4232 L9.37,180.5642 C9.529,181.2482 9.711,181.9442 9.912,182.6282 L2.041,184.9322 Z M103.794,176.0692 L95.629,175.3232 C95.693,174.6122 95.738,173.8972 95.764,173.1972 L103.958,173.4872 C103.929,174.3392 103.874,175.2082 103.794,176.0692 L103.794,176.0692 Z M0.354,176.0382 C0.277,175.1792 0.223,174.3142 0.193,173.4652 L8.388,173.1752 C8.413,173.8792 8.458,174.5972 8.521,175.3102 L0.354,176.0382 Z M95.783,167.4482 L95.78,165.0882 L103.98,165.0752 L103.984,167.4352 L95.783,167.4482 Z M0.158,167.4252 L0.156,165.0642 L8.356,165.0552 L8.358,167.4162 L0.158,167.4252 Z M95.772,159.1852 L95.769,156.8252 L103.969,156.8162 L103.972,159.1762 L95.772,159.1852 Z M0.148,159.1642 L0.145,156.8032 L8.345,156.7942 L8.348,159.1552 L0.148,159.1642 Z M95.761,150.9252 L95.757,148.5652 L103.957,148.5522 L103.961,150.9132 L95.761,150.9252 Z M0.137,150.9052 L0.133,148.5442 L8.333,148.5322 L8.337,150.8922 L0.137,150.9052 Z M95.75,142.6652 L95.746,140.3052 L103.947,140.2922 L103.95,142.6522 L95.75,142.6652 Z M0.125,142.6412 L0.122,140.2812 L8.322,140.2722 L8.325,142.6322 L0.125,142.6412 Z M95.738,134.4022 L95.736,132.0412 L103.936,132.0322 L103.939,134.3932 L95.738,134.4022 Z M0.114,134.3802 L0.111,132.0202 L8.312,132.0112 L8.314,134.3712 L0.114,134.3802 Z M95.728,126.1422 L95.724,123.7822 L103.924,123.7692 L103.928,126.1292 L95.728,126.1422 Z M0.103,126.1212 L0.1,123.7602 L8.3,123.7482 L8.304,126.1092 L0.103,126.1212 Z M95.717,117.8812 L95.713,115.5212 L103.913,115.5082 L103.917,117.8682 L95.717,117.8812 Z M0.092,117.8582 L0.089,115.4982 L8.289,115.4892 L8.292,117.8492 L0.092,117.8582 Z M95.705,109.6192 L95.702,107.2582 L103.902,107.2492 L103.905,109.6102 L95.705,109.6192 Z M0.081,109.5972 L0.078,107.2372 L8.278,107.2282 L8.281,109.5882 L0.081,109.5972 Z M95.694,101.3572 L95.692,98.9972 L103.892,98.9882 L103.894,101.3482 L95.694,101.3572 Z M0.07,101.3372 L0.066,98.9772 L8.267,98.9652 L8.27,101.3252 L0.07,101.3372 Z M95.683,93.0982 L95.68,90.7372 L103.88,90.7252 L103.884,93.0852 L95.683,93.0982 Z M0.058,93.0752 L0.056,90.7152 L8.256,90.7062 L8.258,93.0662 L0.058,93.0752 Z M95.672,84.8342 L95.669,82.4742 L103.869,82.4652 L103.872,84.8252 L95.672,84.8342 Z M0.048,84.8142 L0.045,82.4532 L8.245,82.4442 L8.248,84.8052 L0.048,84.8142 Z M95.661,76.5742 L95.658,74.2142 L103.858,74.2052 L103.861,76.5652 L95.661,76.5742 Z M0.037,76.5542 L0.033,74.1942 L8.233,74.1812 L8.237,76.5422 L0.037,76.5542 Z M95.65,68.3142 L95.647,65.9542 L103.847,65.9422 L103.85,68.3022 L95.65,68.3142 Z M0.026,68.2932 L0.022,65.9332 L8.222,65.9202 L8.226,68.2802 L0.026,68.2932 Z M95.638,60.0512 L95.636,57.6912 L103.836,57.6822 L103.838,60.0422 L95.638,60.0512 Z M0.014,60.0312 L0.012,57.6702 L8.212,57.6612 L8.214,60.0222 L0.014,60.0312 Z M95.628,51.7902 L95.625,49.4302 L103.825,49.4212 L103.828,51.7812 L95.628,51.7902 Z M0.003,51.7712 L-1.13686838e-13,49.4112 L8.2,49.3982 L8.204,51.7582 L0.003,51.7712 Z M95.299,44.0762 C95.206,43.3682 95.094,42.6592 94.965,41.9682 L103.025,40.4592 C103.182,41.2962 103.318,42.1542 103.431,43.0102 L95.299,44.0762 Z M8.53,44.0542 L0.398,42.9872 C0.51,42.1382 0.646,41.2792 0.806,40.4332 L8.865,41.9512 C8.734,42.6482 8.62,43.3562 8.53,44.0542 L8.53,44.0542 Z M93.62,36.8132 C93.393,36.1372 93.146,35.4622 92.885,34.8062 L100.503,31.7712 C100.819,32.5672 101.119,33.3832 101.394,34.1992 L93.62,36.8132 Z M10.21,36.7992 L2.44,34.1782 C2.715,33.3632 3.015,32.5492 3.33,31.7582 L10.947,34.7982 C10.685,35.4512 10.438,36.1242 10.21,36.7992 L10.21,36.7992 Z M90.576,29.9922 C90.224,29.3692 89.853,28.7522 89.473,28.1592 L96.385,23.7442 C96.842,24.4612 97.289,25.2042 97.713,25.9542 L90.576,29.9922 Z M13.259,29.9842 L6.122,25.9462 C6.538,25.2092 6.985,24.4662 7.451,23.7372 L14.363,28.1512 C13.975,28.7572 13.604,29.3742 13.259,29.9842 L13.259,29.9842 Z M86.299,23.8422 C85.839,23.2942 85.363,22.7572 84.875,22.2322 L90.876,16.6442 C91.457,17.2682 92.029,17.9132 92.576,18.5642 L86.299,23.8422 Z M17.539,23.8352 L11.264,18.5562 C11.81,17.9072 12.384,17.2602 12.969,16.6322 L18.967,22.2262 C18.477,22.7512 18,23.2882 17.539,23.8352 L17.539,23.8352 Z M80.969,18.5402 C80.418,18.0822 79.855,17.6362 79.281,17.2042 L84.21,10.6502 C84.885,11.1582 85.56,11.6922 86.215,12.2382 L80.969,18.5402 Z M22.877,18.5302 L17.634,12.2252 C18.295,11.6752 18.972,11.1402 19.647,10.6332 L24.57,17.1922 C23.993,17.6242 23.429,18.0712 22.877,18.5302 L22.877,18.5302 Z M74.783,14.2352 C74.162,13.8772 73.531,13.5352 72.89,13.2072 L76.629,5.9082 C77.388,6.2972 78.143,6.7062 78.874,7.1282 L74.783,14.2352 Z M29.076,14.2222 L24.996,7.1082 C25.734,6.6852 26.483,6.2782 27.244,5.8882 L30.983,13.1872 C30.337,13.5182 29.702,13.8642 29.076,14.2222 L29.076,14.2222 Z M67.942,11.0362 C67.266,10.7872 66.582,10.5532 65.891,10.3342 L68.364,2.5152 C69.176,2.7722 69.982,3.0482 70.777,3.3402 L67.942,11.0362 Z M35.932,11.0212 L33.106,3.3232 C33.902,3.0302 34.708,2.7562 35.523,2.5002 L37.983,10.3222 C37.292,10.5402 36.609,10.7732 35.932,11.0212 L35.932,11.0212 Z M60.644,9.0152 C59.939,8.8822 59.228,8.7642 58.511,8.6632 L59.653,0.5422 C60.499,0.6612 61.34,0.8012 62.173,0.9592 L60.644,9.0152 Z M43.227,9.0072 L41.718,0.9482 C42.547,0.7922 43.386,0.6542 44.231,0.5352 L45.371,8.6562 C44.65,8.7572 43.936,8.8752 43.227,9.0072 L43.227,9.0072 Z" id="Fill-1273" fill="#FFE600"></path>
                    <path d="M52.9376,8.2114 C52.5766,8.2044 52.2146,8.2004 51.8506,8.2004 L51.8506,0.0004 C52.2726,0.0004 52.6896,0.0044 53.1086,0.0134 L52.9376,8.2114 Z" id="Fill-1275" fill="#FFE600"></path>
                    <path d="M45.8172,42.6094 C47.9672,42.7664 49.5232,43.8384 50.1022,45.4504 L50.0892,36.2314 L52.7782,36.2284 L52.7902,45.4474 C53.3652,43.8344 54.9162,42.7564 57.0662,42.5944 L57.7672,45.4804 C55.0002,45.5834 53.1902,47.1784 52.7962,50.1854 L50.1092,50.1894 C49.7062,47.1834 47.8922,45.5934 45.1252,45.4974 L45.8172,42.6094 Z" id="Fill-1277" fill="#FFE600"></path>
                </g>
                <polygon id="Fill-1280" fill="#FFFFFF" points="92.0460481 190.805156 89.9170481 189.915156 92.2120481 184.426156 90.1580481 183.566156 88.0460481 188.616156 85.9180481 187.726156 88.0290481 182.677156 84.0660481 181.020156 85.0480481 178.671156 95.3230481 182.966156"></polygon>
                <g id="Group-1287" transform="translate(49.333934, 189.257815)" fill="#FFFFFF">
                    <path d="M27.5296138,9.78524097 C25.3856138,7.54324097 25.5846138,3.69024097 27.9946138,1.58824097 C30.2956138,-0.631759035 34.1506138,-0.499759035 36.2016138,1.82924097 C38.3446138,4.07124097 38.1336138,7.91224097 35.7356138,10.026241 C33.4236138,12.233241 29.5786138,12.113241 27.5296138,9.78524097 M29.4036138,8.06424097 C30.7796138,9.56424097 32.7526138,9.52524097 34.1236138,8.26824097 C35.4936138,7.01024097 35.7026138,5.04824097 34.3256138,3.54924097 C32.9496138,2.04924097 30.9786138,2.08824097 29.6076138,3.34624097 C28.2366138,4.60324097 28.0276138,6.56424097 29.4036138,8.06424097" id="Fill-1281"></path>
                    <path d="M13.6489138,14.630541 C12.6939138,11.675541 14.5509138,8.29154097 17.6369138,7.44554097 C20.6769138,6.44654097 24.0949138,8.24554097 24.9289138,11.235541 C25.8849138,14.189541 24.0219138,17.559541 20.9399138,18.420541 C17.8939138,19.403541 14.4819138,17.621541 13.6489138,14.630541 M16.0869138,13.895541 C16.6749138,15.846541 18.4679138,16.670541 20.2509138,16.134541 C22.0349138,15.596541 23.0769138,13.920541 22.4899138,11.969541 C21.9029138,10.017541 20.1079138,9.19554097 18.3249138,9.73154097 C16.5419138,10.267541 15.5009138,11.944541 16.0869138,13.895541" id="Fill-1283"></path>
                    <path d="M9.65201381,20.241441 L5.30501381,19.717441 C1.56001381,19.266441 -0.356986188,16.806441 0.0550138119,13.392441 C0.439013812,10.200441 2.90901381,8.20544097 6.55901381,8.64444097 L10.9850138,9.17844097 L9.65201381,20.241441 Z M8.17901381,11.165441 L6.36201381,10.945441 C4.08701381,10.671441 2.81301381,11.785441 2.58401381,13.696441 C2.33101381,15.799441 3.33801381,17.154441 5.66001381,17.435441 L7.39801381,17.645441 L8.17901381,11.165441 Z" id="Fill-1285"></path>
                </g>
                <polygon id="Fill-1288" fill="#FFFFFF" points="32.0505481 195.772056 35.0285481 198.164056 40.5595481 191.278056 42.5445481 192.873056 37.0135481 199.759056 39.9905481 202.150056 38.5455481 203.950056 30.6055481 197.572056"></polygon>
                <path d="M27.2949481,181.186956 C30.0379481,179.733956 33.6939481,180.976956 35.0609481,183.869956 C36.5719481,186.690956 35.3939481,190.367956 32.5929481,191.706956 C29.8489481,193.159956 26.2089481,191.909956 24.8259481,189.024956 C23.3299481,186.194956 24.4949481,182.525956 27.2949481,181.186956 M28.4399481,183.460956 C26.6209481,184.377956 26.1209481,186.287956 26.9589481,187.949956 C27.7959481,189.613956 29.6279481,190.347956 31.4469481,189.431956 C33.2669481,188.514956 33.7659481,186.606956 32.9299481,184.942956 C32.0919481,183.279956 30.2599481,182.544956 28.4399481,183.460956" id="Fill-1289" fill="#FFFFFF"></path>
                <path d="M64.6679481,184.322256 C62.5169481,184.165256 60.9619481,183.092256 60.3829481,181.480256 L60.3959481,190.699256 L57.7079481,190.702256 L57.6949481,181.483256 C57.1209481,183.097256 55.5679481,184.174256 53.4189481,184.336256 L52.7169481,181.451256 C55.4849481,181.347256 57.2949481,179.753256 57.6889481,176.745256 L60.3769481,176.741256 C60.7789481,179.747256 62.5929481,181.338256 65.3609481,181.434256 L64.6679481,184.322256 Z" id="Fill-1291" fill="#FFE600"></path>
                <path d="M26.0113481,116.947256 C25.8463481,108.696256 32.9833481,101.970256 41.2763481,102.095256 C49.0723481,102.095256 53.7763481,106.179256 55.3023481,112.161256 L48.9493481,114.182256 C48.1233481,110.387256 45.2363481,108.077256 41.2763481,108.077256 C36.3663481,108.077256 32.6123481,111.790256 32.6123481,116.947256 C32.6123481,119.628256 33.3553481,121.814256 34.8813481,123.424256 C36.4073481,125.033256 38.4703481,125.816256 41.0693481,125.816256 C45.1123481,125.816256 47.3813481,123.217256 47.7943481,121.485256 L36.9023481,121.485256 L36.9023481,116.121256 L56.3333481,116.121256 L56.3333481,131.386256 L50.5573481,131.386256 L50.5573481,125.569256 C48.9493481,129.406256 45.4423481,131.798256 40.4503481,131.798256 C32.4473481,131.923256 25.8873481,125.775256 26.0113481,116.947256" id="Fill-1293" fill="#FFFFFF"></path>
                <path d="M90.5740481,116.947256 C90.7390481,124.991256 83.6020481,132.005256 75.3100481,131.798256 C67.0170481,132.005256 59.8810481,124.991256 60.0450481,116.947256 C59.8810481,108.902256 67.0170481,101.930256 75.3100481,102.095256 C83.6020481,101.930256 90.7390481,108.902256 90.5740481,116.947256 M83.9730481,116.947256 C83.9730481,111.665256 80.1370481,108.283256 75.3100481,108.283256 C70.4820481,108.283256 66.6460481,111.665256 66.6460481,116.947256 C66.6460481,122.228256 70.4820481,125.610256 75.3100481,125.610256 C80.1370481,125.610256 83.9730481,122.228256 83.9730481,116.947256" id="Fill-1295" fill="#FFFFFF"></path>
                <path d="M26.0113481,155.227356 C25.8463481,146.976356 32.9833481,140.251356 41.2763481,140.375356 C49.0723481,140.375356 53.7763481,144.460356 55.3023481,150.441356 L48.9493481,152.462356 C48.1233481,148.667356 45.2363481,146.357356 41.2763481,146.357356 C36.3663481,146.357356 32.6123481,150.070356 32.6123481,155.227356 C32.6123481,157.908356 33.3553481,160.095356 34.8813481,161.704356 C36.4073481,163.313356 38.4703481,164.096356 41.0693481,164.096356 C45.1123481,164.096356 47.3813481,161.497356 47.7943481,159.765356 L36.9023481,159.765356 L36.9023481,154.401356 L56.3333481,154.401356 L56.3333481,169.666356 L50.5573481,169.666356 L50.5573481,163.849356 C48.9493481,167.686356 45.4423481,170.078356 40.4503481,170.078356 C32.4473481,170.203356 25.8873481,164.056356 26.0113481,155.227356" id="Fill-1297" fill="#FFFFFF"></path>
                <path d="M90.5740481,155.227356 C90.7390481,163.271356 83.6020481,170.285356 75.3100481,170.078356 C67.0170481,170.285356 59.8810481,163.271356 60.0450481,155.227356 C59.8810481,147.182356 67.0170481,140.210356 75.3100481,140.375356 C83.6020481,140.210356 90.7390481,147.182356 90.5740481,155.227356 M83.9730481,155.227356 C83.9730481,149.946356 80.1370481,146.563356 75.3100481,146.563356 C70.4820481,146.563356 66.6460481,149.946356 66.6460481,155.227356 C66.6460481,160.508356 70.4820481,163.890356 75.3100481,163.890356 C80.1370481,163.890356 83.9730481,160.508356 83.9730481,155.227356" id="Fill-1299" fill="#FFFFFF"></path>
                <path d="M26.0095481,78.6679558 C25.8445481,70.4169558 32.9815481,63.6919558 41.2745481,63.8169558 C49.0705481,63.8169558 53.7745481,67.9009558 55.3005481,73.8829558 L48.9475481,75.9039558 C48.1215481,72.1089558 45.2345481,69.7989558 41.2745481,69.7989558 C36.3645481,69.7989558 32.6105481,73.5119558 32.6105481,78.6679558 C32.6105481,81.3499558 33.3535481,83.5359558 34.8795481,85.1449558 C36.4065481,86.7549558 38.4685481,87.5379558 41.0675481,87.5379558 C45.1105481,87.5379558 47.3795481,84.9389558 47.7925481,83.2069558 L36.9005481,83.2069558 L36.9005481,77.8429558 L56.3315481,77.8429558 L56.3315481,93.1079558 L50.5555481,93.1079558 L50.5555481,87.2899558 C48.9475481,91.1279558 45.4405481,93.5199558 40.4485481,93.5199558 C32.4455481,93.6439558 25.8855481,87.4969558 26.0095481,78.6679558" id="Fill-1301" fill="#FFFFFF"></path>
                <path d="M90.5722481,78.6679558 C90.7372481,86.7129558 83.6002481,93.7259558 75.3082481,93.5199558 C67.0152481,93.7259558 59.8792481,86.7129558 60.0442481,78.6679558 C59.8792481,70.6239558 67.0152481,63.6519558 75.3082481,63.8169558 C83.6002481,63.6519558 90.7372481,70.6239558 90.5722481,78.6679558 M83.9712481,78.6679558 C83.9712481,73.3869558 80.1352481,70.0049558 75.3082481,70.0049558 C70.4812481,70.0049558 66.6442481,73.3869558 66.6442481,78.6679558 C66.6442481,83.9489558 70.4812481,87.3319558 75.3082481,87.3319558 C80.1352481,87.3319558 83.9712481,83.9489558 83.9712481,78.6679558" id="Fill-1303" fill="#FFFFFF"></path>
            </g>
        </g>
    </g>
</svg>